STARTFONT 2.1
COMMENT
COMMENT Converted from OpenType font "FreeUniversal-Bold.ttf" by "otf2bdf 3.0".
COMMENT
FONT -FreeType-FreeUniversal-Bold-R-Normal--68-680-72-72-P-335-ISO10646-1
SIZE 68 72 72
FONTBOUNDINGBOX 100 91 -5 -18
STARTPROPERTIES 19
FOUNDRY "FreeType"
FAMILY_NAME "FreeUniversal"
WEIGHT_NAME "Bold"
SLANT "R"
SETWIDTH_NAME "Normal"
ADD_STYLE_NAME ""
PIXEL_SIZE 68
POINT_SIZE 680
RESOLUTION_X 72
RESOLUTION_Y 72
SPACING "P"
AVERAGE_WIDTH 335
CHARSET_REGISTRY "ISO10646"
CHARSET_ENCODING "1"
FONT_ASCENT 72
FONT_DESCENT 17
COPYRIGHT "FreeUniveral (c) Stephen Wilson 2009    Original Font Sil-Sophia  Copyright (c) SIL International, 1994-2008."
_OTF_FONTFILE "FreeUniversal-Bold.ttf"
_OTF_PSNAME "FreeUniversal-Bold"
ENDPROPERTIES
CHARS 243
STARTCHAR 0020
ENCODING 32
SWIDTH 294 0
DWIDTH 20 0
BBX 0 0 0 0
BITMAP
ENDCHAR
STARTCHAR 0021
ENCODING 33
SWIDTH 382 0
DWIDTH 26 0
BBX 8 49 9 0
BITMAP
FF
FF
FF
FF
FF
FF
FF
FF
FF
FF
FF
FF
FF
FF
FF
FF
FF
FF
FF
FF
FF
FF
FF
FF
FF
FF
FF
FF
FF
FF
FF
FF
FF
FF
FF
FF
00
00
00
00
00
FF
FF
FF
FF
FF
FF
FF
FF
ENDCHAR
STARTCHAR 0022
ENCODING 34
SWIDTH 514 0
DWIDTH 35 0
BBX 26 20 5 29
BITMAP
FFC1FFC0
FFC0FF80
FFC0FF80
FFC0FF80
FFC0FF80
FF80FF80
FF80FF80
FF80FF80
7F80FF80
7F80FF80
7F80FF80
7F80FF80
7F807F80
7F807F00
7F807F00
7F807F00
7F807F00
7F007F00
7F007F00
7F007F00
ENDCHAR
STARTCHAR 0023
ENCODING 35
SWIDTH 720 0
DWIDTH 49 0
BBX 43 50 3 0
BITMAP
00007F007E00
00007F00FE00
00007F00FE00
00007E00FE00
0000FE01FC00
0000FE01FC00
0000FE01FC00
0001FC01F800
0001FC03F800
0001FC03F800
0001F803F000
0003F807F000
0003F807F000
01FFFFFFFFE0
01FFFFFFFFC0
03FFFFFFFFC0
03FFFFFFFFC0
03FFFFFFFF80
07FFFFFFFF80
000FE01FC000
000FC01FC000
001FC01F8000
001FC03F8000
001FC03F8000
003F803F0000
003F807F0000
003F807F0000
007F007E0000
007F00FE0000
007F00FE0000
3FFFFFFFF800
7FFFFFFFF800
7FFFFFFFF800
7FFFFFFFF800
7FFFFFFFF000
FFFFFFFFF000
01FC03F80000
01F803F80000
03F807F00000
03F807F00000
03F807F00000
07F007E00000
07F00FE00000
07F00FE00000
07E00FC00000
0FE01FC00000
0FE01FC00000
0FE01FC00000
1FC03F800000
1FC03F800000
ENDCHAR
STARTCHAR 0024
ENCODING 36
SWIDTH 573 0
DWIDTH 39 0
BBX 35 61 2 -7
BITMAP
0000F00000
0000F00000
0000F00000
0000F00000
0003FF0000
001FFFC000
007FFFF000
01FFFFFC00
03FFFFFE00
07FFFFFE00
0FFFFFFF00
1FFFFFFF00
1FFCF3FF80
3FF0F1FF80
3FE0F0FFC0
7FE0F0FFC0
7FC0F07FC0
7FC0F07FC0
7FC0F07FC0
7FC0F00000
7FE0F00000
7FF0F00000
7FF8F00000
3FFEF00000
3FFFF00000
3FFFF80000
1FFFFF0000
0FFFFFC000
07FFFFF800
01FFFFFC00
007FFFFF00
000FFFFF00
0001FFFF80
0000FFFFC0
0000F7FFC0
0000F1FFE0
0000F0FFE0
0000F07FE0
0000F03FE0
FF80F03FE0
FF80F03FE0
FF80F03FE0
FFC0F03FE0
7FC0F07FE0
7FE0F07FC0
7FF0F0FFC0
3FFCF3FFC0
3FFFFFFF80
1FFFFFFF00
0FFFFFFE00
07FFFFFC00
03FFFFF800
00FFFFE000
003FFF8000
0003FC0000
0000F00000
0000F00000
0000F00000
0000F00000
0000F00000
0000F00000
ENDCHAR
STARTCHAR 0025
ENCODING 37
SWIDTH 1014 0
DWIDTH 69 0
BBX 63 51 3 -1
BITMAP
00000000001FC000
003F8000003F8000
01FFF000003F8000
07FFFC00007F0000
0FFFFE00007E0000
1FFFFF0000FE0000
1FE0FF0001FC0000
3F803F8001FC0000
7F803FC003F80000
7F001FC003F80000
7F001FC007F00000
FE000FE007E00000
FE000FE00FE00000
FE000FE01FC00000
FE000FE01FC00000
FE000FE03F800000
FE000FE03F800000
FE000FE07F000000
FE000FE07E000000
7F001FC0FE000000
7F001FC1FC000000
7F803FC1FC000000
3F803F83F8000000
3FE0FF03F807F800
1FFFFF07F01FFF00
0FFFFE07E07FFFC0
07FFFC0FE0FFFFE0
01FFF01FC1FFFFF0
007FC01FC1FE0FF0
0000003F83F803F8
0000003F87F803FC
0000007F07F001FC
0000007E07F001FC
000000FE0FE000FE
000001FC0FE000FE
000001FC0FE000FE
000003F80FE000FE
000003F80FE000FE
000007F00FE000FE
000007E00FE000FE
00000FE00FE000FE
00001FC007F001FC
00001FC007F001FC
00003F8007F803FC
00003F8003F803F8
00007F0003FE0FF0
00007E0001FFFFF0
0000FE0000FFFFE0
0001FC00007FFFC0
0001FC00001FFF00
0003F8000007FC00
ENDCHAR
STARTCHAR 0026
ENCODING 38
SWIDTH 794 0
DWIDTH 54 0
BBX 49 51 4 -1
BITMAP
0007FE00000000
003FFFC0000000
00FFFFF0000000
01FFFFF8000000
03FFFFFC000000
07FFFFFE000000
07FFFFFE000000
0FFF07FF000000
0FFC01FF000000
0FF801FF000000
0FF800FF000000
0FF800FF000000
0FF800FF000000
0FFC01FE000000
0FFC01FE000000
07FE03FE000000
07FF07FC000000
03FF1FF8000000
01FFBFF0000000
01FFFFE0000000
00FFFFC0000000
007FFF80000000
007FFE00000000
01FFFC00000000
03FFFE003FE000
07FFFF003FE000
0FFFFF803FE000
1FFFFF803FE000
3FF8FFC03FE000
3FF0FFE03FE000
7FF07FF03FC000
7FE03FF87FC000
7FC01FFC7FC000
FFC00FFE7FC000
FF8007FF7F8000
FF8003FFFF8000
FF8001FFFF8000
FF8000FFFF0000
FFC0007FFF0000
FFC0003FFF0000
FFE0000FFE0000
7FF0000FFE0000
7FF8003FFF0000
3FFF00FFFF8000
3FFFFFFFFFC000
1FFFFFFFFFE000
0FFFFFFFFFF000
07FFFFFF9FFC00
01FFFFFE0FFE00
007FFFF007FF80
0007FF00000000
ENDCHAR
STARTCHAR 0027
ENCODING 39
SWIDTH 411 0
DWIDTH 28 0
BBX 10 20 9 29
BITMAP
FFC0
FFC0
FFC0
FFC0
FFC0
FFC0
FF80
FF80
7F80
7F80
7F80
7F80
7F80
7F80
7F80
7F80
7F80
7F80
7F00
3F00
ENDCHAR
STARTCHAR 0028
ENCODING 40
SWIDTH 382 0
DWIDTH 26 0
BBX 13 59 6 -9
BITMAP
03F8
07F8
07F8
07F0
0FF0
0FF0
0FE0
1FE0
1FE0
1FE0
3FC0
3FC0
3FC0
3FC0
7FC0
7F80
7F80
7F80
7F80
7F80
7F80
FF00
FF00
FF00
FF00
FF00
FF00
FF00
FF00
FF00
FF00
FF00
FF00
FF00
FF00
FF00
FF00
FF00
7F80
7F80
7F80
7F80
7F80
7F80
3FC0
3FC0
3FC0
3FC0
3FC0
1FE0
1FE0
1FE0
0FE0
0FF0
0FF0
07F0
07F8
07F8
03F8
ENDCHAR
STARTCHAR 0029
ENCODING 41
SWIDTH 382 0
DWIDTH 26 0
BBX 13 59 7 -9
BITMAP
FE00
FE00
FF00
7F00
7F80
7F80
7F80
3FC0
3FC0
3FC0
1FE0
1FE0
1FE0
1FE0
1FE0
0FF0
0FF0
0FF0
0FF0
0FF0
0FF0
07F8
07F8
07F8
07F8
07F8
07F8
07F8
07F8
07F8
07F8
07F8
07F8
07F8
07F8
07F8
07F8
0FF8
0FF0
0FF0
0FF0
0FF0
0FF0
0FF0
1FE0
1FE0
1FE0
1FE0
1FE0
3FC0
3FC0
3FC0
7F80
7F80
7F80
7F00
FF00
FE00
FE00
ENDCHAR
STARTCHAR 002A
ENCODING 42
SWIDTH 632 0
DWIDTH 43 0
BBX 27 27 8 23
BITMAP
00404000
01C07000
07E0FC00
0FE0FE00
07F1FC00
07F1FC00
03F1F800
01FBF000
00FBE000
007FC000
E07FC0E0
FFBFBFE0
FFFFFFE0
FFFFFFE0
FFFFFFE0
FF3F9FE0
C07FC060
007BC000
00FBE000
01FBF000
03F1F800
07F1FC00
0FF1FC00
0FE0FE00
07E0FC00
01C07000
00404000
ENDCHAR
STARTCHAR 002B
ENCODING 43
SWIDTH 1014 0
DWIDTH 69 0
BBX 41 41 14 0
BITMAP
00003C000000
00003C000000
00003C000000
00003C000000
00003C000000
00003C000000
00003C000000
00003C000000
00003C000000
00003C000000
00003C000000
00003C000000
00003C000000
00003C000000
00003C000000
00003C000000
00003C000000
00003C000000
00003C000000
FFFFFFFFFF80
FFFFFFFFFF80
FFFFFFFFFF80
FFFFFFFFFF80
00003C000000
00003C000000
00003C000000
00003C000000
00003C000000
00003C000000
00003C000000
00003C000000
00003C000000
00003C000000
00003C000000
00003C000000
00003C000000
00003C000000
00003C000000
00003C000000
00003C000000
00003C000000
ENDCHAR
STARTCHAR 002C
ENCODING 44
SWIDTH 308 0
DWIDTH 21 0
BBX 15 17 3 -9
BITMAP
07FE
07FC
07FC
07F8
0FF8
0FF0
0FF0
1FE0
1FE0
1FC0
3FC0
3F80
3F80
7F00
7F00
7E00
FE00
ENDCHAR
STARTCHAR 002D
ENCODING 45
SWIDTH 338 0
DWIDTH 23 0
BBX 17 9 3 13
BITMAP
FFFF80
FFFF80
FFFF80
FFFF80
FFFF80
FFFF80
FFFF80
FFFF80
FFFF80
ENDCHAR
STARTCHAR 002E
ENCODING 46
SWIDTH 308 0
DWIDTH 21 0
BBX 9 9 7 0
BITMAP
FF80
FF80
FF80
FF80
FF80
FF80
FF80
FF80
FF80
ENDCHAR
STARTCHAR 002F
ENCODING 47
SWIDTH 426 0
DWIDTH 29 0
BBX 23 54 3 -4
BITMAP
0000FE
0000FE
0000FC
0001FC
0001FC
0001F8
0003F8
0003F8
0003F8
0007F0
0007F0
0007F0
0007E0
000FE0
000FE0
000FC0
001FC0
001FC0
001FC0
003F80
003F80
003F80
003F00
007F00
007F00
007E00
00FE00
00FE00
00FE00
01FC00
01FC00
01FC00
01F800
03F800
03F800
03F000
07F000
07F000
07F000
0FE000
0FE000
0FE000
0FC000
1FC000
1FC000
1F8000
3F8000
3F8000
3F0000
7F0000
7F0000
7F0000
7E0000
FE0000
ENDCHAR
STARTCHAR 0030
ENCODING 48
SWIDTH 573 0
DWIDTH 39 0
BBX 34 51 2 -1
BITMAP
0007F80000
003FFF0000
00FFFFC000
01FFFFE000
03FFFFF000
07FFFFF800
0FFFFFFC00
0FFE1FFC00
1FF807FE00
1FF003FE00
3FF003FF00
3FE001FF00
3FE001FF00
7FE001FF80
7FC000FF80
7FC000FF80
7FC000FF80
FFC000FF80
FFC000FFC0
FFC000FFC0
FFC000FFC0
FFC000FFC0
FFC000FFC0
FFC000FFC0
FFC000FFC0
FFC000FFC0
FFC000FFC0
FFC000FFC0
FFC000FFC0
FFC000FFC0
FFC000FFC0
FFC000FFC0
FFC000FFC0
FFC000FF80
7FC000FF80
7FC000FF80
7FC000FF80
7FE001FF80
3FE001FF00
3FE001FF00
3FF003FF00
1FF003FE00
1FF807FE00
0FFE1FFC00
0FFFFFFC00
07FFFFF800
03FFFFF000
01FFFFE000
00FFFFC000
003FFF0000
0007F80000
ENDCHAR
STARTCHAR 0031
ENCODING 49
SWIDTH 573 0
DWIDTH 39 0
BBX 20 49 7 0
BITMAP
001FF0
003FF0
007FF0
01FFF0
03FFF0
0FFFF0
3FFFF0
FFFFF0
FFFFF0
FFFFF0
FFDFF0
FF9FF0
FE1FF0
F81FF0
E01FF0
801FF0
001FF0
001FF0
001FF0
001FF0
001FF0
001FF0
001FF0
001FF0
001FF0
001FF0
001FF0
001FF0
001FF0
001FF0
001FF0
001FF0
001FF0
001FF0
001FF0
001FF0
001FF0
001FF0
001FF0
001FF0
001FF0
001FF0
001FF0
001FF0
001FF0
001FF0
001FF0
001FF0
001FF0
ENDCHAR
STARTCHAR 0032
ENCODING 50
SWIDTH 573 0
DWIDTH 39 0
BBX 34 50 2 0
BITMAP
0003FE0000
001FFFC000
007FFFF000
00FFFFF800
03FFFFFE00
07FFFFFE00
07FFFFFF00
0FFFFFFF80
1FFF07FF80
1FFC01FFC0
1FF800FFC0
3FF800FFC0
3FF0007FC0
3FF0007FC0
3FF0007FC0
0000007FC0
0000007FC0
000000FFC0
000000FF80
000001FF80
000001FF80
000003FF00
000007FF00
00000FFE00
00001FFE00
00003FFC00
00007FF800
0000FFF000
0001FFE000
0003FFC000
0007FF8000
000FFF0000
001FFE0000
003FFC0000
00FFF80000
01FFE00000
03FFC00000
07FF800000
1FFE000000
3FFC000000
7FF8000000
FFE0000000
FFFFFFFFC0
FFFFFFFFC0
FFFFFFFFC0
FFFFFFFFC0
FFFFFFFFC0
FFFFFFFFC0
FFFFFFFFC0
FFFFFFFFC0
ENDCHAR
STARTCHAR 0033
ENCODING 51
SWIDTH 573 0
DWIDTH 39 0
BBX 32 51 3 -1
BITMAP
001FF800
00FFFF00
03FFFF80
07FFFFE0
0FFFFFF0
1FFFFFF8
3FFFFFF8
7FFFFFFC
7FF81FFC
7FE00FFE
FFC007FE
FFC003FE
FF8003FE
FF8003FE
000003FE
000003FE
000003FE
000007FE
00000FFC
00007FFC
003FFFF8
003FFFE0
003FFFC0
003FFE00
003FFF00
003FFFC0
003FFFF0
003FFFF8
00003FFC
000007FE
000003FE
000003FF
000001FF
000001FF
000001FF
000001FF
FF8001FF
FF8001FF
FF8001FF
FFC003FF
FFC003FE
7FE007FE
7FE00FFE
7FF81FFC
3FFFFFF8
3FFFFFF0
1FFFFFF0
0FFFFFC0
03FFFF80
01FFFE00
001FF000
ENDCHAR
STARTCHAR 0034
ENCODING 52
SWIDTH 573 0
DWIDTH 39 0
BBX 36 50 2 0
BITMAP
00003FFC00
00007FFC00
00007FFC00
0000FFFC00
0000FFFC00
0001FFFC00
0003FFFC00
0003FFFC00
0007FFFC00
0007FFFC00
000FF7FC00
001FF7FC00
001FE7FC00
003FC7FC00
007FC7FC00
007F87FC00
00FF87FC00
00FF07FC00
01FF07FC00
03FE07FC00
03FC07FC00
07FC07FC00
07F807FC00
0FF807FC00
1FF007FC00
1FF007FC00
3FE007FC00
3FC007FC00
7FC007FC00
FF8007FC00
FF8007FC00
FFFFFFFFF0
FFFFFFFFF0
FFFFFFFFF0
FFFFFFFFF0
FFFFFFFFF0
FFFFFFFFF0
FFFFFFFFF0
FFFFFFFFF0
000007FC00
000007FC00
000007FC00
000007FC00
000007FC00
000007FC00
000007FC00
000007FC00
000007FC00
000007FC00
000007FC00
ENDCHAR
STARTCHAR 0035
ENCODING 53
SWIDTH 573 0
DWIDTH 39 0
BBX 33 50 3 -1
BITMAP
7FFFFFFE00
7FFFFFFE00
7FFFFFFE00
7FFFFFFE00
7FFFFFFE00
7FFFFFFE00
7FFFFFFE00
7FFFFFFE00
7FC0000000
7FC0000000
7FC0000000
7FC0000000
7FC0000000
7FC0000000
7FC0000000
7FC0000000
7FC0000000
7FC1FF0000
7FC7FFC000
7FDFFFF000
7FFFFFF800
7FFFFFFC00
7FFFFFFE00
7FFFFFFE00
7FFC0FFF00
7FF003FF00
7FE003FF00
7FC001FF80
7FC001FF80
000000FF80
000000FF80
000000FF80
000000FF80
000000FF80
000000FF80
000000FF80
000000FF80
FF8001FF80
FF8001FF00
FFC003FF00
FFC003FE00
7FE00FFE00
7FF83FFC00
7FFFFFFC00
3FFFFFF800
1FFFFFF000
0FFFFFE000
07FFFF8000
01FFFE0000
003FF00000
ENDCHAR
STARTCHAR 0036
ENCODING 54
SWIDTH 573 0
DWIDTH 39 0
BBX 34 51 2 -1
BITMAP
0003FC0000
001FFF8000
007FFFE000
00FFFFF000
01FFFFF800
03FFFFFC00
07FFFFFE00
07FFFFFE00
0FFF07FF00
1FFC03FF00
1FF801FF80
1FF800FF80
3FF000FF80
3FE0000000
3FE0000000
7FE0000000
7FC0000000
7FC0000000
7FC07F0000
7FC3FFE000
FFC7FFF000
FFCFFFF800
FFDFFFFC00
FFBFFFFE00
FFFFFFFF00
FFFE0FFF00
FFF803FF80
FFF803FF80
FFF001FF80
FFF001FFC0
FFE000FFC0
FFE000FFC0
FFE000FFC0
FFE000FFC0
FFE000FFC0
7FE000FFC0
7FE000FFC0
7FE000FFC0
7FE000FF80
3FF001FF80
3FF001FF80
3FF803FF00
1FF803FF00
1FFE0FFE00
0FFFFFFE00
07FFFFFC00
03FFFFF800
01FFFFF000
00FFFFC000
003FFF0000
0007F80000
ENDCHAR
STARTCHAR 0037
ENCODING 55
SWIDTH 573 0
DWIDTH 39 0
BBX 33 49 3 0
BITMAP
FFFFFFFF80
FFFFFFFF80
FFFFFFFF80
FFFFFFFF80
FFFFFFFF80
FFFFFFFF80
FFFFFFFF80
FFFFFFFF80
000000FF80
000001FF80
000001FF80
000003FF00
000003FF00
000007FE00
000007FE00
00000FFE00
00000FFC00
00001FFC00
00001FF800
00001FF800
00003FF000
00003FF000
00007FF000
00007FE000
0000FFE000
0000FFC000
0001FFC000
0001FFC000
0003FF8000
0003FF8000
0003FF0000
0007FF0000
0007FE0000
000FFE0000
000FFE0000
001FFC0000
001FFC0000
003FF80000
003FF80000
003FF80000
007FF00000
007FF00000
00FFE00000
00FFE00000
01FFC00000
01FFC00000
03FFC00000
03FF800000
07FF800000
ENDCHAR
STARTCHAR 0038
ENCODING 56
SWIDTH 573 0
DWIDTH 39 0
BBX 34 51 2 -1
BITMAP
000FFC0000
00FFFFC000
03FFFFF000
07FFFFF800
0FFFFFFC00
1FFFFFFE00
3FFFFFFF00
3FFFFFFF00
3FFC0FFF00
7FF807FF80
7FF003FF80
7FE001FF80
7FE001FF80
7FE001FF80
7FE001FF80
7FE001FF80
7FE001FF80
3FF003FF00
3FF807FF00
1FFC0FFE00
0FFFFFFC00
07FFFFF000
01FFFFC000
003FFF0000
00FFFF8000
03FFFFE000
07FFFFF800
1FFFFFFC00
3FFC0FFE00
3FF807FF00
7FF003FF00
7FE001FF80
7FE001FF80
FFC000FFC0
FFC000FFC0
FFC000FFC0
FFC000FFC0
FFC000FFC0
FFC000FFC0
FFE001FFC0
FFE001FFC0
FFF003FFC0
7FF007FF80
7FFC0FFF80
3FFFFFFF00
3FFFFFFF00
1FFFFFFE00
0FFFFFFC00
03FFFFF000
00FFFFC000
000FFC0000
ENDCHAR
STARTCHAR 0039
ENCODING 57
SWIDTH 573 0
DWIDTH 39 0
BBX 34 51 2 -1
BITMAP
0007F80000
003FFF0000
00FFFFC000
03FFFFE000
07FFFFF000
0FFFFFF800
1FFFFFFC00
1FFFFFFE00
3FF81FFE00
3FF007FF00
7FE007FF00
7FC003FF00
7FC003FF80
FFC001FF80
FF8001FF80
FF8001FF80
FF8001FFC0
FF8001FFC0
FF8001FFC0
FFC001FFC0
FFC003FFC0
FFC003FFC0
7FE007FFC0
7FF007FFC0
7FF81FFFC0
3FFFFFFFC0
1FFFFF7FC0
1FFFFEFFC0
0FFFFCFFC0
03FFFCFFC0
01FFF0FFC0
007FC0FF80
000000FF80
000000FF80
000001FF80
000001FF80
000001FF00
000001FF00
7FC003FF00
7FC003FE00
7FE007FE00
3FE00FFE00
3FF00FFC00
1FF83FFC00
1FFFFFF800
0FFFFFF000
07FFFFE000
03FFFFC000
01FFFF8000
007FFE0000
000FF00000
ENDCHAR
STARTCHAR 003A
ENCODING 58
SWIDTH 308 0
DWIDTH 21 0
BBX 9 34 9 0
BITMAP
FF80
FF80
FF80
FF80
FF80
FF80
FF80
FF80
FF80
0000
0000
0000
0000
0000
0000
0000
0000
0000
0000
0000
0000
0000
0000
0000
0000
FF80
FF80
FF80
FF80
FF80
FF80
FF80
FF80
FF80
ENDCHAR
STARTCHAR 003B
ENCODING 59
SWIDTH 308 0
DWIDTH 21 0
BBX 15 42 3 -8
BITMAP
07FC
07FC
07FC
07FC
07FC
07FC
07FC
07FC
07FC
0000
0000
0000
0000
0000
0000
0000
0000
0000
0000
0000
0000
0000
0000
0000
0000
07FE
07FC
07FC
0FF8
0FF8
0FF0
1FF0
1FE0
1FE0
3FC0
3FC0
3F80
7F80
7F00
7F00
FE00
FE00
ENDCHAR
STARTCHAR 003C
ENCODING 60
SWIDTH 1014 0
DWIDTH 69 0
BBX 41 35 14 3
BITMAP
000000000180
000000000780
000000003F80
00000001FF80
00000007FF00
0000003FF800
000001FFC000
000007FF0000
00003FF80000
0000FFC00000
0007FE000000
003FF8000000
00FFC0000000
07FE00000000
3FF800000000
FFC000000000
FE0000000000
F80000000000
FE0000000000
FFC000000000
3FF000000000
07FE00000000
01FFC0000000
003FF0000000
0007FE000000
0001FFC00000
00003FF00000
00000FFE0000
000001FFC000
0000003FF800
0000000FFE00
00000001FF80
000000003F80
000000000F80
000000000180
ENDCHAR
STARTCHAR 003D
ENCODING 61
SWIDTH 1014 0
DWIDTH 69 0
BBX 41 17 14 12
BITMAP
FFFFFFFFFF80
FFFFFFFFFF80
FFFFFFFFFF80
FFFFFFFFFF80
000000000000
000000000000
000000000000
000000000000
000000000000
000000000000
000000000000
000000000000
000000000000
FFFFFFFFFF80
FFFFFFFFFF80
FFFFFFFFFF80
FFFFFFFFFF80
ENDCHAR
STARTCHAR 003E
ENCODING 62
SWIDTH 1014 0
DWIDTH 69 0
BBX 41 35 14 3
BITMAP
C00000000000
F00000000000
FE0000000000
FFC000000000
7FF000000000
0FFE00000000
01FFC0000000
007FF0000000
000FFE000000
0001FF800000
00003FF00000
00000FFE0000
000001FF8000
0000003FF000
0000000FFC00
00000001FF80
000000003F80
000000000F80
000000003F80
00000001FF80
00000007FE00
0000003FF000
000001FFC000
000007FE0000
00003FF00000
0001FFC00000
0007FE000000
003FF8000000
01FFC0000000
0FFE00000000
3FF800000000
FFC000000000
FE0000000000
F80000000000
C00000000000
ENDCHAR
STARTCHAR 003F
ENCODING 63
SWIDTH 544 0
DWIDTH 37 0
BBX 31 50 2 0
BITMAP
001FF000
00FFFE00
03FFFF80
07FFFFC0
0FFFFFE0
1FFFFFF0
3FFFFFF8
7FF03FFC
7FC00FFC
FF8007FE
7F0007FE
1F0003FE
0E0003FE
000003FE
000003FE
000007FE
000007FC
000007FC
00000FF8
00001FF8
00001FF0
00003FE0
0000FFC0
0001FF80
0003FE00
0007FC00
000FF800
000FF000
001FE000
001FC000
001FC000
001FC000
001FC000
001FC000
001FC000
001FC000
001FC000
00000000
00000000
00000000
00000000
00000000
003FC000
003FC000
003FC000
003FC000
003FC000
003FC000
003FC000
003FC000
ENDCHAR
STARTCHAR 0040
ENCODING 64
SWIDTH 1044 0
DWIDTH 71 0
BBX 65 65 3 -14
BITMAP
0000000FFF00000000
000001FFFFF8000000
000007FFFFFF000000
00003FFFFFFFC00000
0000FFFFFFFFF00000
0001FFFFFFFFF80000
0007FFFFFFFFFC0000
000FFFFFFFFFFF0000
001FFFF801FFFF8000
003FFFC0001FFFC000
007FFE000007FFE000
00FFFC000003FFE000
01FFF0000000FFF000
03FFE00000007FF800
07FF800000003FF800
07FF000000001FFC00
0FFE003F80000FFE00
0FFC00FFE1FF0FFE00
1FFC03FFF9FF07FE00
1FF807FFFDFF07FF00
3FF00FFFFFFF03FF00
3FF01FFFFFFF03FF00
3FF01FFFFFFF01FF80
7FE03FFC1FFF01FF80
7FE03FF00FFF01FF80
7FC07FF007FF01FF80
7FC07FE003FF00FF80
FFC07FC003FF00FF80
FFC0FFC003FF00FF80
FFC0FFC001FF00FF80
FF80FF8001FF00FF80
FF80FF8001FF00FF80
FF80FF8001FF00FF80
FF80FF8001FF00FF80
FF80FF8001FF00FF80
FF80FF8001FF00FF80
FF80FFC001FF00FF00
FF80FFC003FF01FF00
FFC07FC003FF01FF00
7FC07FE007FF01FF00
7FC07FE007FF83FE00
7FC03FF00FFF83FE00
7FE03FFC3FFFC7FC00
3FE01FFFFFFFFFFC00
3FF00FFFFFFFFFF800
3FF00FFFFF7FFFF000
1FF807FFFE3FFFE000
1FFC01FFFC1FFFC000
0FFC00FFF00FFF0000
0FFE001FC001FC0000
07FF00000000000000
03FF80000000000000
03FFE0000000000000
01FFF0000000000000
00FFFC000000000000
007FFF000001800000
003FFFE0007F800000
001FFFFFFFFF800000
0007FFFFFFFF800000
0003FFFFFFFF800000
0000FFFFFFFF800000
00003FFFFFFF800000
00000FFFFFFF800000
000001FFFFFF800000
0000000FFFE0000000
ENDCHAR
STARTCHAR 0041
ENCODING 65
SWIDTH 705 0
DWIDTH 48 0
BBX 46 49 1 1
BITMAP
00003FF00000
00003FF80000
00007FF80000
00007FF80000
00007FFC0000
0000FFFC0000
0000FFFC0000
0001FFFE0000
0001FFFE0000
0001FFFF0000
0003FFFF0000
0003FFFF0000
0003FEFF8000
0007FCFF8000
0007FCFF8000
000FFC7FC000
000FF87FC000
000FF87FE000
001FF83FE000
001FF03FE000
001FF03FF000
003FF01FF000
003FE01FF000
007FE01FF800
007FC00FF800
007FC00FFC00
00FFC00FFC00
00FF8007FC00
00FF8007FE00
01FF8007FE00
01FF0003FE00
03FFFFFFFF00
03FFFFFFFF00
03FFFFFFFF80
07FFFFFFFF80
07FFFFFFFF80
07FFFFFFFFC0
0FFFFFFFFFC0
0FFFFFFFFFC0
1FF800007FE0
1FF800007FE0
1FF000003FF0
3FF000003FF0
3FF000003FF0
3FE000001FF8
7FE000001FF8
7FE000000FF8
FFC000000FFC
FFC000000FFC
ENDCHAR
STARTCHAR 0042
ENCODING 66
SWIDTH 676 0
DWIDTH 46 0
BBX 37 49 5 0
BITMAP
FFFFFF8000
FFFFFFF000
FFFFFFFC00
FFFFFFFE00
FFFFFFFF00
FFFFFFFF80
FFFFFFFFC0
FFFFFFFFC0
FFC00FFFC0
FFC001FFE0
FFC000FFE0
FFC000FFE0
FFC0007FE0
FFC0007FE0
FFC0007FE0
FFC0007FE0
FFC000FFC0
FFC000FFC0
FFC001FF80
FFC00FFF80
FFFFFFFF00
FFFFFFFC00
FFFFFFF000
FFFFFFC000
FFFFFFE000
FFFFFFFC00
FFFFFFFF00
FFFFFFFF80
FFC001FFC0
FFC0007FE0
FFC0003FF0
FFC0003FF0
FFC0001FF0
FFC0001FF8
FFC0001FF8
FFC0001FF8
FFC0001FF8
FFC0003FF8
FFC0003FF8
FFC0007FF8
FFC001FFF0
FFFFFFFFF0
FFFFFFFFE0
FFFFFFFFC0
FFFFFFFF80
FFFFFFFF00
FFFFFFFC00
FFFFFFF000
FFFFFF8000
ENDCHAR
STARTCHAR 0043
ENCODING 67
SWIDTH 735 0
DWIDTH 50 0
BBX 42 51 4 -1
BITMAP
00007FE00000
0007FFFE0000
001FFFFF8000
007FFFFFE000
00FFFFFFF000
01FFFFFFF800
03FFFFFFFC00
07FFFFFFFE00
0FFFC03FFE00
0FFF000FFF00
1FFC0007FF00
1FF80003FF80
3FF00003FF80
3FF00001FF80
3FE00001FF80
7FE00001FFC0
7FE00000FFC0
7FE000000000
7FC000000000
FFC000000000
FFC000000000
FFC000000000
FFC000000000
FFC000000000
FFC000000000
FFC000000000
FFC000000000
FFC000000000
FFC000000000
FFC000000000
FFC000000000
FFC000000000
7FC000000000
7FE00001FFC0
7FE00001FFC0
7FE00001FFC0
3FE00003FFC0
3FF00003FF80
3FF00007FF80
1FF80007FF80
1FFC000FFF00
0FFE001FFF00
0FFFC07FFE00
07FFFFFFFC00
03FFFFFFF800
01FFFFFFF000
00FFFFFFE000
007FFFFFC000
001FFFFF0000
0007FFFC0000
0000FFC00000
ENDCHAR
STARTCHAR 0044
ENCODING 68
SWIDTH 735 0
DWIDTH 50 0
BBX 41 49 5 0
BITMAP
FFFFF8000000
FFFFFF800000
FFFFFFF00000
FFFFFFFC0000
FFFFFFFE0000
FFFFFFFF8000
FFFFFFFFC000
FFFFFFFFE000
FFC00FFFF000
FFC001FFF800
FFC0007FF800
FFC0003FFC00
FFC0001FFC00
FFC0000FFE00
FFC00007FE00
FFC00007FF00
FFC00003FF00
FFC00003FF00
FFC00003FF00
FFC00001FF80
FFC00001FF80
FFC00001FF80
FFC00001FF80
FFC00001FF80
FFC00001FF80
FFC00001FF80
FFC00001FF80
FFC00001FF80
FFC00001FF80
FFC00001FF80
FFC00003FF00
FFC00003FF00
FFC00003FF00
FFC00007FF00
FFC00007FE00
FFC0000FFE00
FFC0001FFC00
FFC0003FFC00
FFC0007FF800
FFC001FFF800
FFC00FFFF000
FFFFFFFFE000
FFFFFFFFC000
FFFFFFFF8000
FFFFFFFE0000
FFFFFFFC0000
FFFFFFF00000
FFFFFF800000
FFFFF8000000
ENDCHAR
STARTCHAR 0045
ENCODING 69
SWIDTH 632 0
DWIDTH 43 0
BBX 33 49 5 0
BITMAP
FFFFFFFF80
FFFFFFFF80
FFFFFFFF80
FFFFFFFF80
FFFFFFFF80
FFFFFFFF80
FFFFFFFF80
FFFFFFFF80
FF80000000
FF80000000
FF80000000
FF80000000
FF80000000
FF80000000
FF80000000
FF80000000
FF80000000
FF80000000
FF80000000
FF80000000
FFFFFFFE00
FFFFFFFE00
FFFFFFFE00
FFFFFFFE00
FFFFFFFE00
FFFFFFFE00
FFFFFFFE00
FF80000000
FF80000000
FF80000000
FF80000000
FF80000000
FF80000000
FF80000000
FF80000000
FF80000000
FF80000000
FF80000000
FF80000000
FF80000000
FF80000000
FFFFFFFF80
FFFFFFFF80
FFFFFFFF80
FFFFFFFF80
FFFFFFFF80
FFFFFFFF80
FFFFFFFF80
FFFFFFFF80
ENDCHAR
STARTCHAR 0046
ENCODING 70
SWIDTH 588 0
DWIDTH 40 0
BBX 31 49 5 0
BITMAP
FFFFFFFE
FFFFFFFE
FFFFFFFE
FFFFFFFE
FFFFFFFE
FFFFFFFE
FFFFFFFE
FFFFFFFE
FFC00000
FFC00000
FFC00000
FFC00000
FFC00000
FFC00000
FFC00000
FFC00000
FFC00000
FFC00000
FFC00000
FFC00000
FFFFFFFC
FFFFFFFC
FFFFFFFC
FFFFFFFC
FFFFFFFC
FFFFFFFC
FFFFFFFC
FFFFFFFC
FFC00000
FFC00000
FFC00000
FFC00000
FFC00000
FFC00000
FFC00000
FFC00000
FFC00000
FFC00000
FFC00000
FFC00000
FFC00000
FFC00000
FFC00000
FFC00000
FFC00000
FFC00000
FFC00000
FFC00000
FFC00000
ENDCHAR
STARTCHAR 0047
ENCODING 71
SWIDTH 779 0
DWIDTH 53 0
BBX 45 51 4 -1
BITMAP
00000FFE0000
0000FFFFE000
0003FFFFF800
000FFFFFFE00
003FFFFFFF00
007FFFFFFF80
00FFFFFFFFC0
01FFFFFFFFE0
03FFF807FFE0
07FFC001FFF0
0FFF00007FF0
0FFE00003FF0
1FFC00003FF8
1FF800001FF8
3FF800001FF8
3FF000001FF8
7FF000000000
7FE000000000
7FE000000000
7FE000000000
FFE000000000
FFC000000000
FFC000000000
FFC000000000
FFC0007FFFF0
FFC0007FFFF0
FFC0007FFFF0
FFC0007FFFF0
FFC0007FFFF0
FFC0007FFFF0
FFC0007FFFF0
FFE0007FFFF0
7FE000003FF0
7FE000003FF0
7FF000003FF0
7FF000003FF0
3FF800003FF0
3FF800003FF0
1FFC00003FF0
1FFE00003FF0
0FFF80003FF0
07FFE0003FF0
07FFFC01FFF0
03FFFFFFFFF0
01FFFFFFFFF0
00FFFFFFFFF0
003FFFFFFFF0
001FFFFFFFF0
0007FFFFFFC0
0000FFFFFC00
00000FFF8000
ENDCHAR
STARTCHAR 0048
ENCODING 72
SWIDTH 720 0
DWIDTH 49 0
BBX 39 49 5 0
BITMAP
FF800003FE
FF800003FE
FF800003FE
FF800003FE
FF800003FE
FF800003FE
FF800003FE
FF800003FE
FF800003FE
FF800003FE
FF800003FE
FF800003FE
FF800003FE
FF800003FE
FF800003FE
FF800003FE
FF800003FE
FF800003FE
FF800003FE
FFFFFFFFFE
FFFFFFFFFE
FFFFFFFFFE
FFFFFFFFFE
FFFFFFFFFE
FFFFFFFFFE
FFFFFFFFFE
FFFFFFFFFE
FF800003FE
FF800003FE
FF800003FE
FF800003FE
FF800003FE
FF800003FE
FF800003FE
FF800003FE
FF800003FE
FF800003FE
FF800003FE
FF800003FE
FF800003FE
FF800003FE
FF800003FE
FF800003FE
FF800003FE
FF800003FE
FF800003FE
FF800003FE
FF800003FE
FF800003FE
ENDCHAR
STARTCHAR 0049
ENCODING 73
SWIDTH 294 0
DWIDTH 20 0
BBX 10 49 5 0
BITMAP
FFC0
FFC0
FFC0
FFC0
FFC0
FFC0
FFC0
FFC0
FFC0
FFC0
FFC0
FFC0
FFC0
FFC0
FFC0
FFC0
FFC0
FFC0
FFC0
FFC0
FFC0
FFC0
FFC0
FFC0
FFC0
FFC0
FFC0
FFC0
FFC0
FFC0
FFC0
FFC0
FFC0
FFC0
FFC0
FFC0
FFC0
FFC0
FFC0
FFC0
FFC0
FFC0
FFC0
FFC0
FFC0
FFC0
FFC0
FFC0
FFC0
ENDCHAR
STARTCHAR 004A
ENCODING 74
SWIDTH 632 0
DWIDTH 43 0
BBX 34 50 4 -1
BITMAP
000000FFC0
000000FFC0
000000FFC0
000000FFC0
000000FFC0
000000FFC0
000000FFC0
000000FFC0
000000FFC0
000000FFC0
000000FFC0
000000FFC0
000000FFC0
000000FFC0
000000FFC0
000000FFC0
000000FFC0
000000FFC0
000000FFC0
000000FFC0
000000FFC0
000000FFC0
000000FFC0
000000FFC0
000000FFC0
000000FFC0
000000FFC0
000000FFC0
000000FFC0
000000FFC0
000000FFC0
000000FFC0
000000FFC0
FFC000FFC0
FFC000FFC0
FFC000FFC0
FFC000FFC0
FFC000FFC0
FFE001FF80
7FE001FF80
7FF003FF80
7FFC0FFF00
7FFFFFFF00
3FFFFFFE00
3FFFFFFC00
1FFFFFF800
0FFFFFF000
07FFFFE000
01FFFF8000
001FF80000
ENDCHAR
STARTCHAR 004B
ENCODING 75
SWIDTH 691 0
DWIDTH 47 0
BBX 40 49 5 0
BITMAP
FFC0003FFC
FFC0007FF8
FFC000FFF0
FFC000FFE0
FFC001FFC0
FFC003FFC0
FFC007FF80
FFC007FF00
FFC00FFE00
FFC01FFC00
FFC03FFC00
FFC07FF800
FFC07FF000
FFC0FFE000
FFC1FFC000
FFC3FFC000
FFC3FF8000
FFC7FF0000
FFCFFE0000
FFDFFE0000
FFFFFC0000
FFFFF80000
FFFFF80000
FFFFFC0000
FFFFFE0000
FFDFFE0000
FFCFFF0000
FFCFFF8000
FFC7FF8000
FFC3FFC000
FFC3FFE000
FFC1FFE000
FFC0FFF000
FFC07FF800
FFC07FFC00
FFC03FFC00
FFC01FFE00
FFC01FFF00
FFC00FFF00
FFC007FF80
FFC003FFC0
FFC003FFE0
FFC001FFE0
FFC000FFF0
FFC000FFF8
FFC0007FF8
FFC0003FFC
FFC0001FFE
FFC0001FFF
ENDCHAR
STARTCHAR 004C
ENCODING 76
SWIDTH 573 0
DWIDTH 39 0
BBX 33 49 5 0
BITMAP
FFC0000000
FFC0000000
FFC0000000
FFC0000000
FFC0000000
FFC0000000
FFC0000000
FFC0000000
FFC0000000
FFC0000000
FFC0000000
FFC0000000
FFC0000000
FFC0000000
FFC0000000
FFC0000000
FFC0000000
FFC0000000
FFC0000000
FFC0000000
FFC0000000
FFC0000000
FFC0000000
FFC0000000
FFC0000000
FFC0000000
FFC0000000
FFC0000000
FFC0000000
FFC0000000
FFC0000000
FFC0000000
FFC0000000
FFC0000000
FFC0000000
FFC0000000
FFC0000000
FFC0000000
FFC0000000
FFC0000000
FFC0000000
FFFFFFFF80
FFFFFFFF80
FFFFFFFF80
FFFFFFFF80
FFFFFFFF80
FFFFFFFF80
FFFFFFFF80
FFFFFFFF80
ENDCHAR
STARTCHAR 004D
ENCODING 77
SWIDTH 926 0
DWIDTH 63 0
BBX 53 49 5 0
BITMAP
FFFF000007FFF8
FFFF000007FFF8
FFFF80000FFFF8
FFFF80000FFFF8
FFFF80000FFFF8
FFFFC0000FFFF8
FFFFC0001FFFF8
FFFFC0001FFFF8
FFFFE0001FFFF8
FFBFE0003FFFF8
FFBFE0003FEFF8
FFBFE0003FEFF8
FF9FF0007FEFF8
FF9FF0007FCFF8
FF9FF0007FCFF8
FF9FF8007FCFF8
FF8FF800FFCFF8
FF8FF800FF8FF8
FF8FFC00FF8FF8
FF87FC01FF8FF8
FF87FC01FF0FF8
FF87FC01FF0FF8
FF83FE03FF0FF8
FF83FE03FE0FF8
FF83FE03FE0FF8
FF83FF03FE0FF8
FF81FF07FC0FF8
FF81FF07FC0FF8
FF81FF87FC0FF8
FF80FF8FFC0FF8
FF80FF8FF80FF8
FF80FF8FF80FF8
FF807FDFF80FF8
FF807FDFF00FF8
FF807FDFF00FF8
FF803FFFF00FF8
FF803FFFE00FF8
FF803FFFE00FF8
FF803FFFE00FF8
FF801FFFC00FF8
FF801FFFC00FF8
FF801FFFC00FF8
FF800FFFC00FF8
FF800FFF800FF8
FF800FFF800FF8
FF8007FF800FF8
FF8007FF000FF8
FF8007FF000FF8
FF8003FF000FF8
ENDCHAR
STARTCHAR 004E
ENCODING 78
SWIDTH 764 0
DWIDTH 52 0
BBX 42 49 5 0
BITMAP
FFFC00007FC0
FFFE00007FC0
FFFE00007FC0
FFFF00007FC0
FFFF00007FC0
FFFF80007FC0
FFFF80007FC0
FFFFC0007FC0
FFFFC0007FC0
FFFFE0007FC0
FFBFE0007FC0
FFBFF0007FC0
FF9FF0007FC0
FF9FF8007FC0
FF8FF8007FC0
FF8FFC007FC0
FF8FFC007FC0
FF87FE007FC0
FF87FE007FC0
FF83FE007FC0
FF83FF007FC0
FF81FF007FC0
FF81FF807FC0
FF80FF807FC0
FF80FFC07FC0
FF807FC07FC0
FF807FE07FC0
FF803FE07FC0
FF803FF07FC0
FF801FF07FC0
FF801FF87FC0
FF800FF87FC0
FF800FFC7FC0
FF8007FC7FC0
FF8007FE7FC0
FF8003FE7FC0
FF8003FF7FC0
FF8001FF7FC0
FF8001FFFFC0
FF8000FFFFC0
FF8000FFFFC0
FF80007FFFC0
FF80007FFFC0
FF80003FFFC0
FF80003FFFC0
FF80001FFFC0
FF80001FFFC0
FF80000FFFC0
FF80000FFFC0
ENDCHAR
STARTCHAR 004F
ENCODING 79
SWIDTH 794 0
DWIDTH 54 0
BBX 46 51 4 -1
BITMAP
00007FF80000
0003FFFF0000
000FFFFFC000
003FFFFFF000
00FFFFFFF800
01FFFFFFFE00
03FFFFFFFF00
03FFFFFFFF00
07FFE01FFF80
0FFF8007FFC0
1FFE0001FFC0
1FFC0000FFE0
3FF800007FE0
3FF800007FF0
3FF000003FF0
7FF000003FF8
7FE000001FF8
7FE000001FF8
7FE000001FF8
FFE000001FFC
FFC000000FFC
FFC000000FFC
FFC000000FFC
FFC000000FFC
FFC000000FFC
FFC000000FFC
FFC000000FFC
FFC000000FFC
FFC000000FFC
FFC000000FFC
FFC000000FFC
FFC000001FFC
7FE000001FF8
7FE000001FF8
7FE000001FF8
7FF000003FF8
3FF000003FF0
3FF800007FF0
3FF800007FE0
1FFC0000FFE0
1FFE0001FFC0
0FFF0007FFC0
07FFE01FFF80
07FFFFFFFF00
03FFFFFFFF00
01FFFFFFFE00
00FFFFFFFC00
003FFFFFF000
001FFFFFE000
0003FFFF0000
00007FF80000
ENDCHAR
STARTCHAR 0050
ENCODING 80
SWIDTH 661 0
DWIDTH 45 0
BBX 36 49 5 1
BITMAP
FFFFFE0000
FFFFFFC000
FFFFFFF800
FFFFFFFC00
FFFFFFFE00
FFFFFFFF00
FFFFFFFF80
FFFFFFFFC0
FFC00FFFE0
FFC001FFE0
FFC000FFE0
FFC0007FF0
FFC0007FF0
FFC0003FF0
FFC0003FF0
FFC0003FF0
FFC0003FF0
FFC0003FF0
FFC0003FF0
FFC0007FF0
FFC000FFE0
FFC001FFE0
FFC007FFE0
FFFFFFFFC0
FFFFFFFF80
FFFFFFFF80
FFFFFFFF00
FFFFFFFC00
FFFFFFF800
FFFFFFE000
FFFFFE0000
FFC0000000
FFC0000000
FFC0000000
FFC0000000
FFC0000000
FFC0000000
FFC0000000
FFC0000000
FFC0000000
FFC0000000
FFC0000000
FFC0000000
FFC0000000
FFC0000000
FFC0000000
FFC0000000
FFC0000000
FFC0000000
ENDCHAR
STARTCHAR 0051
ENCODING 81
SWIDTH 838 0
DWIDTH 57 0
BBX 51 51 4 -1
BITMAP
00003FF0000000
0003FFFF000000
000FFFFFC00000
003FFFFFF00000
00FFFFFFF80000
01FFFFFFFC0000
03FFFFFFFF0000
07FFFFFFFF0000
07FFE01FFF8000
0FFF8007FFC000
1FFE0001FFC000
1FFC0000FFE000
3FF800007FE000
3FF800007FF000
3FF000003FF000
7FF000003FF800
7FE000001FF800
7FE000001FF800
7FE000001FF800
FFE000001FF800
FFC000000FFC00
FFC000000FFC00
FFC000000FFC00
FFC000000FFC00
FFC000000FFC00
FFC000000FFC00
FFC000000FFC00
FFC000000FFC00
FFC000000FFC00
FFC000000FFC00
FFC000000FFC00
FFC000001FF800
7FE000001FF800
7FE000001FF800
7FE000001FF800
7FF000003FF000
3FF000003FF000
3FF800007FE000
1FF800007FE000
1FFC0000FFC000
0FFE0001FF8000
0FFF0007FF8000
07FFE01FFF0FE0
03FFFFFFFFFFE0
01FFFFFFFFFFE0
00FFFFFFFFFFE0
007FFFFFFFFFE0
003FFFFFFFFFE0
000FFFFFFFFFE0
0003FFFFFFFFE0
00003FFE000000
ENDCHAR
STARTCHAR 0052
ENCODING 82
SWIDTH 691 0
DWIDTH 47 0
BBX 39 49 5 0
BITMAP
FFFFFFC000
FFFFFFFC00
FFFFFFFF00
FFFFFFFFC0
FFFFFFFFE0
FFFFFFFFF0
FFFFFFFFF0
FFFFFFFFF8
FFC001FFF8
FFC0007FFC
FFC0003FFC
FFC0001FFC
FFC0000FFC
FFC0000FFC
FFC0000FFC
FFC0000FFC
FFC0000FF8
FFC0001FF8
FFC0003FF0
FFC000FFF0
FFC003FFE0
FFFFFFFF80
FFFFFFFF00
FFFFFFFC00
FFFFFFF000
FFFFFFFE00
FFFFFFFF80
FFFFFFFFC0
FFFFFFFFE0
FFC003FFE0
FFC000FFF0
FFC0007FF0
FFC0003FF0
FFC0003FF0
FFC0003FF0
FFC0001FF0
FFC0001FF8
FFC0001FF8
FFC0001FF8
FFC0001FF8
FFC0001FF8
FFC0001FF8
FFC0000FFC
FFC0000FFC
FFC0000FFC
FFC0000FFC
FFC0000FFC
FFC0000FFE
FFC00007FE
ENDCHAR
STARTCHAR 0053
ENCODING 83
SWIDTH 691 0
DWIDTH 47 0
BBX 39 51 4 -1
BITMAP
0001FF8000
000FFFF000
003FFFFC00
00FFFFFF00
01FFFFFF80
03FFFFFFC0
07FFFFFFC0
0FFFFFFFE0
1FFF01FFF0
1FFC00FFF0
1FF8003FF0
3FF0003FF8
3FE0001FF8
3FE0001FF8
3FE0001FF8
3FE0000000
3FE0000000
3FF0000000
3FF8000000
3FFE000000
1FFFC00000
0FFFF80000
0FFFFF8000
07FFFFF000
01FFFFFE00
00FFFFFF80
003FFFFFC0
0007FFFFE0
00007FFFF0
00000FFFF8
000000FFFC
0000003FFC
0000000FFE
00000007FE
00000007FE
FFC00003FE
FFC00003FE
FFC00003FE
FFE00007FE
7FE00007FE
7FF0000FFC
7FF8003FFC
3FFF00FFF8
3FFFFFFFF8
1FFFFFFFF0
0FFFFFFFE0
07FFFFFFC0
01FFFFFF00
00FFFFFC00
001FFFF000
0003FF8000
ENDCHAR
STARTCHAR 0054
ENCODING 84
SWIDTH 632 0
DWIDTH 43 0
BBX 39 49 2 0
BITMAP
FFFFFFFFFE
FFFFFFFFFE
FFFFFFFFFE
FFFFFFFFFE
FFFFFFFFFE
FFFFFFFFFE
FFFFFFFFFE
FFFFFFFFFE
0001FF8000
0001FF8000
0001FF8000
0001FF8000
0001FF8000
0001FF8000
0001FF8000
0001FF8000
0001FF8000
0001FF8000
0001FF8000
0001FF8000
0001FF8000
0001FF8000
0001FF8000
0001FF8000
0001FF8000
0001FF8000
0001FF8000
0001FF8000
0001FF8000
0001FF8000
0001FF8000
0001FF8000
0001FF8000
0001FF8000
0001FF8000
0001FF8000
0001FF8000
0001FF8000
0001FF8000
0001FF8000
0001FF8000
0001FF8000
0001FF8000
0001FF8000
0001FF8000
0001FF8000
0001FF8000
0001FF8000
0001FF8000
ENDCHAR
STARTCHAR 0055
ENCODING 85
SWIDTH 764 0
DWIDTH 52 0
BBX 42 50 5 -1
BITMAP
FFC00000FFC0
FFC00000FFC0
FFC00000FFC0
FFC00000FFC0
FFC00000FFC0
FFC00000FFC0
FFC00000FFC0
FFC00000FFC0
FFC00000FFC0
FFC00000FFC0
FFC00000FFC0
FFC00000FFC0
FFC00000FFC0
FFC00000FFC0
FFC00000FFC0
FFC00000FFC0
FFC00000FFC0
FFC00000FFC0
FFC00000FFC0
FFC00000FFC0
FFC00000FFC0
FFC00000FFC0
FFC00000FFC0
FFC00000FFC0
FFC00000FFC0
FFC00000FFC0
FFC00000FFC0
FFC00000FFC0
FFC00000FFC0
FFC00000FFC0
FFC00000FFC0
FFC00000FFC0
FFC00000FFC0
FFC00000FFC0
7FE00001FF80
7FE00001FF80
7FE00001FF80
7FF00003FF80
3FF80007FF00
3FF8000FFF00
1FFE001FFE00
1FFF807FFC00
0FFFFFFFFC00
07FFFFFFF800
07FFFFFFF000
03FFFFFFE000
00FFFFFFC000
007FFFFF0000
000FFFFC0000
0001FFC00000
ENDCHAR
STARTCHAR 0056
ENCODING 86
SWIDTH 735 0
DWIDTH 50 0
BBX 48 49 1 0
BITMAP
FFE0000007FF
FFE0000007FF
7FE0000007FF
7FF000000FFE
7FF000000FFE
3FF800000FFC
3FF800001FFC
3FF800001FFC
1FFC00001FF8
1FFC00003FF8
0FFC00003FF0
0FFE00003FF0
0FFE00007FF0
07FE00007FE0
07FF0000FFE0
07FF0000FFE0
03FF8000FFC0
03FF8001FFC0
03FF8001FF80
01FFC001FF80
01FFC003FF80
00FFC003FF00
00FFE003FF00
00FFE007FF00
007FE007FE00
007FF00FFE00
007FF00FFC00
003FF00FFC00
003FF81FFC00
001FF81FF800
001FFC1FF800
001FFC3FF000
000FFC3FF000
000FFE3FF000
000FFE7FE000
0007FE7FE000
0007FF7FE000
0007FFFFC000
0003FFFFC000
0003FFFF8000
0001FFFF8000
0001FFFF8000
0001FFFF0000
0000FFFF0000
0000FFFF0000
0000FFFE0000
00007FFE0000
00007FFC0000
00003FFC0000
ENDCHAR
STARTCHAR 0057
ENCODING 87
SWIDTH 1000 0
DWIDTH 68 0
BBX 66 49 1 0
BITMAP
FFE0001FFE0001FFC0
FFE0001FFE0001FFC0
FFE0001FFE0001FFC0
7FE0001FFE0001FF80
7FE0003FFF0001FF80
7FF0003FFF0003FF80
7FF0003FFF0003FF80
3FF0003FFF0003FF00
3FF0007FFF8003FF00
3FF8007FFF8007FF00
3FF8007FFF8007FF00
1FF8007FFF8007FE00
1FF800FFFFC007FE00
1FF800FFFFC007FE00
1FFC00FF3FC00FFE00
0FFC00FF3FC00FFC00
0FFC01FF3FE00FFC00
0FFC01FF3FE00FFC00
0FFC01FE1FE00FFC00
07FE01FE1FE01FF800
07FE03FE1FF01FF800
07FE03FE1FF01FF800
07FE03FC0FF01FF800
03FE03FC0FF01FF000
03FF07FC0FF83FF000
03FF07FC0FF83FF000
03FF07F807F83FF000
01FF0FF807FC3FE000
01FF0FF807FC3FE000
01FF8FF807FC7FE000
01FF8FF003FC7FE000
00FF9FF003FE7FC000
00FF9FF003FE7FC000
00FF9FF003FE7FC000
00FFDFE001FEFFC000
007FFFE001FFFF8000
007FFFE001FFFF8000
007FFFC000FFFF8000
007FFFC000FFFF8000
003FFFC000FFFF0000
003FFFC000FFFF0000
003FFF80007FFF0000
003FFF80007FFF0000
001FFF80007FFE0000
001FFF80007FFE0000
001FFF00003FFE0000
001FFF00003FFE0000
000FFF00003FFC0000
000FFF00003FFC0000
ENDCHAR
STARTCHAR 0058
ENCODING 88
SWIDTH 691 0
DWIDTH 47 0
BBX 45 49 1 0
BITMAP
7FF800007FF0
3FFC00007FE0
1FFC0000FFC0
1FFE0001FFC0
0FFF0001FF80
07FF0003FF00
07FF8007FF00
03FF8007FE00
01FFC00FFC00
01FFE00FFC00
00FFE01FF800
007FF03FF000
007FF83FF000
003FF87FE000
001FFCFFC000
001FFEFFC000
000FFFFF8000
0007FFFF0000
0007FFFE0000
0003FFFE0000
0001FFFC0000
0001FFF80000
0000FFF80000
00007FF00000
0000FFF80000
0001FFF80000
0001FFFC0000
0003FFFE0000
0007FFFF0000
0007FFFF0000
000FFFFF8000
001FFBFFC000
001FF1FFC000
003FF0FFE000
007FE0FFF000
007FC07FF000
00FFC03FF800
01FF803FFC00
01FF801FFC00
03FF000FFE00
07FE000FFF00
07FE0007FF00
0FFC0003FF80
1FF80003FFC0
1FF80001FFC0
3FF00000FFE0
7FE00000FFF0
7FE000007FF0
FFC000003FF8
ENDCHAR
STARTCHAR 0059
ENCODING 89
SWIDTH 647 0
DWIDTH 44 0
BBX 42 49 1 0
BITMAP
FFE00001FFC0
FFF00003FFC0
7FF00003FF80
7FF80007FF80
3FF80007FF00
1FFC000FFE00
1FFC000FFE00
0FFE001FFC00
0FFE001FFC00
07FF003FF800
07FF003FF800
03FF807FF000
03FF807FF000
01FFC0FFE000
01FFC0FFE000
00FFC1FFC000
00FFE1FFC000
007FE3FF8000
003FF3FF0000
003FF3FF0000
001FFFFE0000
001FFFFE0000
000FFFFC0000
000FFFFC0000
0007FFF80000
0007FFF80000
0003FFF00000
0003FFF00000
0001FFE00000
0001FFE00000
0000FFC00000
0000FFC00000
0000FFC00000
0000FFC00000
0000FFC00000
0000FFC00000
0000FFC00000
0000FFC00000
0000FFC00000
0000FFC00000
0000FFC00000
0000FFC00000
0000FFC00000
0000FFC00000
0000FFC00000
0000FFC00000
0000FFC00000
0000FFC00000
0000FFC00000
ENDCHAR
STARTCHAR 005A
ENCODING 90
SWIDTH 632 0
DWIDTH 43 0
BBX 37 49 3 0
BITMAP
7FFFFFFFF0
7FFFFFFFF0
7FFFFFFFF0
7FFFFFFFF0
7FFFFFFFF0
7FFFFFFFF0
7FFFFFFFF0
7FFFFFFFF0
000000FFF0
000001FFE0
000003FFE0
000003FFC0
000007FF80
00000FFF00
00001FFF00
00001FFE00
00003FFC00
00007FF800
0000FFF800
0000FFF000
0001FFE000
0003FFC000
0007FF8000
0007FF8000
000FFF0000
001FFE0000
003FFC0000
003FFC0000
007FF80000
00FFF00000
01FFE00000
01FFE00000
03FFC00000
07FF800000
0FFF000000
0FFF000000
1FFE000000
3FFC000000
7FF8000000
7FF0000000
FFF0000000
FFFFFFFFF8
FFFFFFFFF8
FFFFFFFFF8
FFFFFFFFF8
FFFFFFFFF8
FFFFFFFFF8
FFFFFFFFF8
FFFFFFFFF8
ENDCHAR
STARTCHAR 005B
ENCODING 91
SWIDTH 397 0
DWIDTH 27 0
BBX 16 63 6 -13
BITMAP
FFFF
FFFF
FFFF
FFFF
FFFF
FFFF
FF00
FF00
FF00
FF00
FF00
FF00
FF00
FF00
FF00
FF00
FF00
FF00
FF00
FF00
FF00
FF00
FF00
FF00
FF00
FF00
FF00
FF00
FF00
FF00
FF00
FF00
FF00
FF00
FF00
FF00
FF00
FF00
FF00
FF00
FF00
FF00
FF00
FF00
FF00
FF00
FF00
FF00
FF00
FF00
FF00
FF00
FF00
FF00
FF00
FF00
FF00
FFFF
FFFF
FFFF
FFFF
FFFF
FFFF
ENDCHAR
STARTCHAR 005C
ENCODING 92
SWIDTH 426 0
DWIDTH 29 0
BBX 23 54 3 -4
BITMAP
FE0000
FE0000
7E0000
7F0000
7F0000
3F0000
3F8000
3F8000
1F8000
1FC000
1FC000
1FC000
0FC000
0FE000
0FE000
07E000
07F000
07F000
03F000
03F800
03F800
03F800
01F800
01FC00
01FC00
00FC00
00FE00
00FE00
007E00
007F00
007F00
007F00
003F00
003F80
003F80
001F80
001FC0
001FC0
000FC0
000FE0
000FE0
000FE0
0007E0
0007F0
0007F0
0003F0
0003F8
0003F8
0001F8
0001FC
0001FC
0001FC
0000FC
0000FE
ENDCHAR
STARTCHAR 005D
ENCODING 93
SWIDTH 397 0
DWIDTH 27 0
BBX 15 63 6 -13
BITMAP
FFFE
FFFE
FFFE
FFFE
FFFE
FFFE
01FE
01FE
01FE
01FE
01FE
01FE
01FE
01FE
01FE
01FE
01FE
01FE
01FE
01FE
01FE
01FE
01FE
01FE
01FE
01FE
01FE
01FE
01FE
01FE
01FE
01FE
01FE
01FE
01FE
01FE
01FE
01FE
01FE
01FE
01FE
01FE
01FE
01FE
01FE
01FE
01FE
01FE
01FE
01FE
01FE
01FE
01FE
01FE
01FE
01FE
01FE
FFFE
FFFE
FFFE
FFFE
FFFE
FFFE
ENDCHAR
STARTCHAR 005E
ENCODING 94
SWIDTH 1000 0
DWIDTH 68 0
BBX 36 41 16 1
BITMAP
0000F00000
0001F80000
0001F80000
0001F80000
0003FC0000
0003FC0000
00079E0000
00079E0000
00078E0000
000F0F0000
000F0F0000
001E078000
001E078000
001E078000
003C03C000
003C03C000
003C03C000
007801E000
007801E000
00F000F000
00F000F000
00F000F000
01E0007800
01E0007800
01E0007800
03C0003C00
03C0003C00
0780001E00
0780001E00
0780001E00
0F00000F00
0F00000F00
1F00000F00
1E00000780
1E00000780
3E000003C0
3C000003C0
3C000003C0
78000001E0
78000001E0
F8000001F0
ENDCHAR
STARTCHAR 005F
ENCODING 95
SWIDTH 500 0
DWIDTH 34 0
BBX 34 5 0 -10
BITMAP
FFFFFFFFC0
FFFFFFFFC0
FFFFFFFFC0
FFFFFFFFC0
FFFFFFFFC0
ENDCHAR
STARTCHAR 0060
ENCODING 96
SWIDTH 250 0
DWIDTH 17 0
BBX 15 13 -2 41
BITMAP
FF80
7FC0
3FC0
1FE0
0FE0
0FF0
07F0
03F8
01F8
00FC
007C
007E
003E
ENDCHAR
STARTCHAR 0061
ENCODING 97
SWIDTH 544 0
DWIDTH 37 0
BBX 31 36 3 -1
BITMAP
001FF800
00FFFF00
03FFFFC0
07FFFFE0
0FFFFFF0
1FFFFFF8
3FF81FF8
3FE00FFC
3FE007FC
7FE007FC
7FC007FC
000007FC
000007FC
001FFFFC
01FFFFFC
07FFFFFC
0FFFFFFC
1FFFFFFC
3FFC07FC
7FF007FC
7FE007FC
7FC007FC
FFC007FC
FF8007FC
FF8007FC
FF800FFC
FF800FFC
FFC00FFC
FFE01FFC
7FF07FFE
7FFFFFFE
3FFFFBFE
1FFFF3FE
0FFFE3FE
07FFC1FE
00FE0000
ENDCHAR
STARTCHAR 0062
ENCODING 98
SWIDTH 602 0
DWIDTH 41 0
BBX 34 50 4 -1
BITMAP
FF80000000
FF80000000
FF80000000
FF80000000
FF80000000
FF80000000
FF80000000
FF80000000
FF80000000
FF80000000
FF80000000
FF80000000
FF80000000
FF80000000
FF81FE0000
FF8FFFC000
FF9FFFF000
FFBFFFF800
FFFFFFFC00
FFFFFFFE00
FFFC0FFE00
FFF807FF00
FFF003FF00
FFE001FF80
FFC001FF80
FFC000FF80
FFC000FFC0
FFC000FFC0
FF80007FC0
FF80007FC0
FF80007FC0
FF80007FC0
FF80007FC0
FF80007FC0
FF80007FC0
FF80007FC0
FFC0007FC0
FFC000FFC0
FFC000FF80
FFE000FF80
FFE001FF80
FFF001FF00
FFF803FF00
FFFC0FFE00
FFFFFFFE00
FFBFFFFC00
FF9FFFF800
FF8FFFE000
FF83FFC000
0000FE0000
ENDCHAR
STARTCHAR 0063
ENCODING 99
SWIDTH 514 0
DWIDTH 35 0
BBX 29 36 3 -1
BITMAP
001FF000
00FFFE00
03FFFF80
07FFFFC0
0FFFFFE0
1FFFFFF0
1FF83FF0
3FE01FF0
3FE01FF8
7FC00FF8
7FC00FF8
7FC00FF8
FF800FF8
FF800000
FF800000
FF800000
FF800000
FF800000
FF800000
FF800000
FF800000
FF800000
FF800000
FF800FF8
7F800FF8
7FC00FF8
7FC00FF8
7FC01FF8
3FE01FF0
3FF03FF0
1FFFFFE0
0FFFFFE0
07FFFFC0
03FFFF80
00FFFE00
001FF000
ENDCHAR
STARTCHAR 0064
ENCODING 100
SWIDTH 617 0
DWIDTH 42 0
BBX 34 50 3 -1
BITMAP
0000007FC0
0000007FC0
0000007FC0
0000007FC0
0000007FC0
0000007FC0
0000007FC0
0000007FC0
0000007FC0
0000007FC0
0000007FC0
0000007FC0
0000007FC0
0000007FC0
001FE07FC0
00FFFC7FC0
01FFFE7FC0
07FFFF7FC0
0FFFFFFFC0
0FFFFFFFC0
1FFC0FFFC0
3FF803FFC0
3FF001FFC0
7FE001FFC0
7FE000FFC0
7FC000FFC0
7FC000FFC0
FFC0007FC0
FFC0007FC0
FF80007FC0
FF80007FC0
FF80007FC0
FF80007FC0
FF80007FC0
FF80007FC0
FF80007FC0
FFC0007FC0
7FC000FFC0
7FC000FFC0
7FE001FFC0
7FE001FFC0
3FF003FFC0
3FF807FFC0
1FFC0FFFC0
0FFFFFFFC0
0FFFFF7FC0
07FFFE7FC0
01FFFC7FC0
007FF87FC0
001FE00000
ENDCHAR
STARTCHAR 0065
ENCODING 101
SWIDTH 558 0
DWIDTH 38 0
BBX 32 36 3 -1
BITMAP
000FF800
007FFE00
01FFFF80
03FFFFE0
07FFFFF0
0FFFFFF0
1FF81FF8
3FE00FF8
3FE007FC
7FC007FC
7FC003FE
7F8003FE
7F8003FE
FF8003FE
FFFFFFFE
FFFFFFFE
FFFFFFFE
FFFFFFFF
FFFFFFFF
FFFFFFFF
FF800000
FF800000
FF800000
FF800000
7FC003FE
7FC007FE
7FC007FE
3FE007FC
3FE00FFC
1FF81FFC
1FFFFFF8
0FFFFFF0
07FFFFE0
03FFFFC0
00FFFF00
001FF800
ENDCHAR
STARTCHAR 0066
ENCODING 102
SWIDTH 367 0
DWIDTH 25 0
BBX 24 50 1 0
BITMAP
0007F0
003FFF
007FFF
00FFFF
01FFFF
01FFFF
03FF83
03FF00
03FF00
03FE00
03FE00
03FE00
03FE00
03FE00
03FE00
03FE00
FFFFFE
FFFFFE
FFFFFE
FFFFFE
FFFFFE
FFFFFE
03FE00
03FE00
03FE00
03FE00
03FE00
03FE00
03FE00
03FE00
03FE00
03FE00
03FE00
03FE00
03FE00
03FE00
03FE00
03FE00
03FE00
03FE00
03FE00
03FE00
03FE00
03FE00
03FE00
03FE00
03FE00
03FE00
03FE00
03FE00
ENDCHAR
STARTCHAR 0067
ENCODING 103
SWIDTH 617 0
DWIDTH 42 0
BBX 34 49 3 -13
BITMAP
000FE00000
00FFFC7FC0
01FFFE7FC0
07FFFF7FC0
0FFFFFFFC0
0FFFFFFFC0
1FFE0FFFC0
3FF803FFC0
3FF003FFC0
7FE001FFC0
7FE000FFC0
7FC000FFC0
7FC000FFC0
FFC0007FC0
FFC0007FC0
FF80007FC0
FF80007FC0
FF80007FC0
FF80007FC0
FF80007FC0
FF80007FC0
FF80007FC0
FFC000FFC0
7FC000FFC0
7FC000FFC0
7FE001FFC0
3FE001FFC0
3FF003FFC0
1FFC0FFFC0
1FFFFFFFC0
0FFFFF7FC0
07FFFE7FC0
03FFFC7FC0
00FFF87FC0
001FE07FC0
0000007FC0
0000007FC0
0000007FC0
0000007FC0
3FE000FFC0
3FE000FF80
3FF001FF80
1FFC07FF00
1FFFFFFF00
0FFFFFFE00
07FFFFFC00
03FFFFF000
00FFFFC000
001FFE0000
ENDCHAR
STARTCHAR 0068
ENCODING 104
SWIDTH 588 0
DWIDTH 40 0
BBX 32 49 4 0
BITMAP
FF800000
FF800000
FF800000
FF800000
FF800000
FF800000
FF800000
FF800000
FF800000
FF800000
FF800000
FF800000
FF800000
FF800000
FF81FF00
FF87FFE0
FF9FFFF0
FFBFFFF8
FFBFFFFC
FFFFFFFE
FFFC1FFE
FFF807FE
FFF007FF
FFE003FF
FFC003FF
FFC003FF
FFC001FF
FF8001FF
FF8001FF
FF8001FF
FF8001FF
FF8001FF
FF8001FF
FF8001FF
FF8001FF
FF8001FF
FF8001FF
FF8001FF
FF8001FF
FF8001FF
FF8001FF
FF8001FF
FF8001FF
FF8001FF
FF8001FF
FF8001FF
FF8001FF
FF8001FF
FF8001FF
ENDCHAR
STARTCHAR 0069
ENCODING 105
SWIDTH 279 0
DWIDTH 19 0
BBX 11 49 4 0
BITMAP
FFE0
FFE0
FFE0
FFE0
FFE0
FFE0
FFE0
FFE0
FFE0
0000
0000
0000
0000
0000
0000
7FC0
7FC0
7FC0
7FC0
7FC0
7FC0
7FC0
7FC0
7FC0
7FC0
7FC0
7FC0
7FC0
7FC0
7FC0
7FC0
7FC0
7FC0
7FC0
7FC0
7FC0
7FC0
7FC0
7FC0
7FC0
7FC0
7FC0
7FC0
7FC0
7FC0
7FC0
7FC0
7FC0
7FC0
ENDCHAR
STARTCHAR 006A
ENCODING 106
SWIDTH 367 0
DWIDTH 25 0
BBX 14 64 7 -14
BITMAP
1FFC
1FFC
1FFC
1FFC
1FFC
1FFC
1FFC
1FFC
1FFC
0000
0000
0000
0000
0000
0000
0FF8
0FF8
0FF8
0FF8
0FF8
0FF8
0FF8
0FF8
0FF8
0FF8
0FF8
0FF8
0FF8
0FF8
0FF8
0FF8
0FF8
0FF8
0FF8
0FF8
0FF8
0FF8
0FF8
0FF8
0FF8
0FF8
0FF8
0FF8
0FF8
0FF8
0FF8
0FF8
0FF8
0FF8
0FF8
0FF8
0FF8
0FF8
0FF8
0FF8
1FF8
FFF8
FFF8
FFF8
FFF0
FFF0
FFE0
FFC0
FF00
ENDCHAR
STARTCHAR 006B
ENCODING 107
SWIDTH 544 0
DWIDTH 37 0
BBX 32 49 4 0
BITMAP
FF800000
FF800000
FF800000
FF800000
FF800000
FF800000
FF800000
FF800000
FF800000
FF800000
FF800000
FF800000
FF800000
FF800000
FF800000
FF800FFC
FF801FFC
FF803FF8
FF807FF0
FF80FFE0
FF80FFC0
FF81FF80
FF83FF80
FF87FF00
FF8FFE00
FF8FFC00
FF9FF800
FFBFF000
FFFFF000
FFFFE000
FFFFE000
FFFFF000
FFBFF800
FF9FF800
FF9FFC00
FF8FFE00
FF87FE00
FF87FF00
FF83FF80
FF81FF80
FF81FFC0
FF80FFE0
FF807FF0
FF807FF0
FF803FF8
FF801FFC
FF801FFC
FF800FFE
FF8007FF
ENDCHAR
STARTCHAR 006C
ENCODING 108
SWIDTH 264 0
DWIDTH 18 0
BBX 9 49 4 0
BITMAP
FF80
FF80
FF80
FF80
FF80
FF80
FF80
FF80
FF80
FF80
FF80
FF80
FF80
FF80
FF80
FF80
FF80
FF80
FF80
FF80
FF80
FF80
FF80
FF80
FF80
FF80
FF80
FF80
FF80
FF80
FF80
FF80
FF80
FF80
FF80
FF80
FF80
FF80
FF80
FF80
FF80
FF80
FF80
FF80
FF80
FF80
FF80
FF80
FF80
ENDCHAR
STARTCHAR 006D
ENCODING 109
SWIDTH 911 0
DWIDTH 62 0
BBX 53 35 4 0
BITMAP
0000FF0007FC00
FF87FFC01FFF00
FF8FFFF03FFF80
FF9FFFF8FFFFC0
FFBFFFF8FFFFE0
FFBFFFFDFFFFF0
FFFC1FFFF07FF0
FFF80FFFC03FF0
FFE007FF801FF8
FFE007FF801FF8
FFC003FF000FF8
FFC003FF000FF8
FFC003FE000FF8
FF8003FE000FF8
FF8003FE000FF8
FF8003FE000FF8
FF8003FE000FF8
FF8003FE000FF8
FF8003FE000FF8
FF8003FE000FF8
FF8003FE000FF8
FF8003FE000FF8
FF8003FE000FF8
FF8003FE000FF8
FF8003FE000FF8
FF8003FE000FF8
FF8003FE000FF8
FF8003FE000FF8
FF8003FE000FF8
FF8003FE000FF8
FF8003FE000FF8
FF8003FE000FF8
FF8003FE000FF8
FF8003FE000FF8
FF8003FE000FF8
ENDCHAR
STARTCHAR 006E
ENCODING 110
SWIDTH 588 0
DWIDTH 40 0
BBX 32 35 4 0
BITMAP
0000FF00
FF87FFE0
FF8FFFF0
FF9FFFF8
FFBFFFFC
FFFFFFFE
FFFC1FFE
FFF007FE
FFE007FF
FFE003FF
FFC003FF
FFC003FF
FFC001FF
FF8001FF
FF8001FF
FF8001FF
FF8001FF
FF8001FF
FF8001FF
FF8001FF
FF8001FF
FF8001FF
FF8001FF
FF8001FF
FF8001FF
FF8001FF
FF8001FF
FF8001FF
FF8001FF
FF8001FF
FF8001FF
FF8001FF
FF8001FF
FF8001FF
FF8001FF
ENDCHAR
STARTCHAR 006F
ENCODING 111
SWIDTH 602 0
DWIDTH 41 0
BBX 35 36 3 -1
BITMAP
0007FC0000
003FFF8000
00FFFFE000
01FFFFF000
07FFFFF800
0FFFFFFC00
0FFC07FE00
1FF803FF00
3FF001FF80
3FE000FF80
7FE000FFC0
7FC0007FC0
7FC0007FC0
FFC0007FE0
FF80003FE0
FF80003FE0
FF80003FE0
FF80003FE0
FF80003FE0
FF80003FE0
FF80003FE0
FF80003FE0
FFC0007FE0
7FC0007FC0
7FC0007FC0
7FE000FFC0
3FE000FF80
3FF001FF80
1FF803FF00
0FFC07FE00
0FFFFFFC00
07FFFFFC00
01FFFFF000
00FFFFE000
003FFF8000
0007FC0000
ENDCHAR
STARTCHAR 0070
ENCODING 112
SWIDTH 602 0
DWIDTH 41 0
BBX 34 48 4 -13
BITMAP
FF80FE0000
FF87FFC000
FF8FFFE000
FF9FFFF800
FFBFFFFC00
FFFFFFFE00
FFFC0FFE00
FFF803FF00
FFF001FF00
FFE001FF80
FFE000FF80
FFC000FF80
FFC000FFC0
FFC0007FC0
FF80007FC0
FF80007FC0
FF80007FC0
FF80007FC0
FF80007FC0
FF80007FC0
FF80007FC0
FF80007FC0
FFC000FFC0
FFC000FFC0
FFC000FF80
FFC001FF80
FFE001FF80
FFF003FF00
FFF807FF00
FFFC1FFE00
FFFFFFFE00
FFFFFFFC00
FFBFFFF800
FF9FFFE000
FF8FFFC000
FF80FE0000
FF80000000
FF80000000
FF80000000
FF80000000
FF80000000
FF80000000
FF80000000
FF80000000
FF80000000
FF80000000
FF80000000
FF80000000
ENDCHAR
STARTCHAR 0071
ENCODING 113
SWIDTH 617 0
DWIDTH 42 0
BBX 34 48 3 -13
BITMAP
001FE07FC0
00FFF87FC0
01FFFE7FC0
07FFFF7FC0
0FFFFF7FC0
0FFFFFFFC0
1FFC0FFFC0
3FF807FFC0
3FF003FFC0
7FE001FFC0
7FE001FFC0
7FC000FFC0
7FC000FFC0
FFC0007FC0
FF80007FC0
FF80007FC0
FF80007FC0
FF80007FC0
FF80007FC0
FF80007FC0
FF80007FC0
FFC0007FC0
FFC0007FC0
7FC000FFC0
7FC000FFC0
7FE000FFC0
7FE001FFC0
3FF003FFC0
3FF803FFC0
1FFE0FFFC0
0FFFFFFFC0
0FFFFFFFC0
07FFFF7FC0
01FFFE7FC0
00FFFC7FC0
001FE07FC0
0000007FC0
0000007FC0
0000007FC0
0000007FC0
0000007FC0
0000007FC0
0000007FC0
0000007FC0
0000007FC0
0000007FC0
0000007FC0
0000007FC0
ENDCHAR
STARTCHAR 0072
ENCODING 114
SWIDTH 382 0
DWIDTH 26 0
BBX 21 35 4 0
BITMAP
0000F8
FF87F8
FF8FF8
FF9FF8
FFBFF8
FFBFF8
FFFFF8
FFFFF8
FFFF80
FFFC00
FFF000
FFE000
FFE000
FFC000
FFC000
FF8000
FF8000
FF8000
FF8000
FF8000
FF8000
FF8000
FF8000
FF8000
FF8000
FF8000
FF8000
FF8000
FF8000
FF8000
FF8000
FF8000
FF8000
FF8000
FF8000
ENDCHAR
STARTCHAR 0073
ENCODING 115
SWIDTH 514 0
DWIDTH 35 0
BBX 29 36 3 -1
BITMAP
003FF000
01FFFE00
07FFFF80
0FFFFFC0
1FFFFFC0
3FFFFFE0
3FF07FF0
7FE03FF0
7FC01FF0
7FC01FF0
7FC01FF0
7FE00000
7FF00000
7FFE0000
3FFFF000
3FFFFE00
1FFFFF80
0FFFFFC0
03FFFFE0
007FFFF0
000FFFF0
0000FFF8
00003FF8
00001FF8
FF800FF8
FF800FF8
FF800FF8
FFC00FF8
7FC01FF8
7FE03FF0
3FFFFFF0
3FFFFFE0
1FFFFFC0
0FFFFF00
03FFFC00
007FE000
ENDCHAR
STARTCHAR 0074
ENCODING 116
SWIDTH 411 0
DWIDTH 28 0
BBX 25 45 2 -1
BITMAP
00010000
00070000
001F0000
007F0000
00FF0000
01FF0000
01FF0000
01FF0000
01FF0000
01FF0000
FFFFFF00
FFFFFF00
FFFFFF00
FFFFFF00
FFFFFF00
FFFFFF00
01FF0000
01FF0000
01FF0000
01FF0000
01FF0000
01FF0000
01FF0000
01FF0000
01FF0000
01FF0000
01FF0000
01FF0000
01FF0000
01FF0000
01FF0000
01FF0000
01FF0000
01FF0000
01FF0000
01FF0000
01FF0000
01FF8000
01FFC000
01FFFF80
00FFFF80
007FFF80
003FFF80
001FFF80
0003FC00
ENDCHAR
STARTCHAR 0075
ENCODING 117
SWIDTH 588 0
DWIDTH 40 0
BBX 32 35 4 -1
BITMAP
FF8001FF
FF8001FF
FF8001FF
FF8001FF
FF8001FF
FF8001FF
FF8001FF
FF8001FF
FF8001FF
FF8001FF
FF8001FF
FF8001FF
FF8001FF
FF8001FF
FF8001FF
FF8001FF
FF8001FF
FF8001FF
FF8001FF
FF8001FF
FF8001FF
FF8001FF
FF8003FF
FF8003FF
FFC003FF
FFC007FF
FFE007FF
7FE00FFF
7FF83FFF
7FFFFFFF
3FFFFDFF
1FFFF9FF
0FFFF1FF
07FFE1FF
01FF8000
ENDCHAR
STARTCHAR 0076
ENCODING 118
SWIDTH 544 0
DWIDTH 37 0
BBX 35 34 1 0
BITMAP
FFC0007FE0
FFC0007FE0
7FC0007FC0
7FE000FFC0
7FE000FFC0
3FE000FF80
3FF001FF80
3FF001FF80
1FF001FF00
1FF803FF00
0FF803FE00
0FF803FE00
0FFC07FE00
07FC07FC00
07FC07FC00
07FE0FFC00
03FE0FF800
03FE0FF800
01FF1FF000
01FF1FF000
01FF1FF000
00FFBFE000
00FFBFE000
00FFBFE000
007FFFC000
007FFFC000
003FFF8000
003FFF8000
003FFF8000
001FFF0000
001FFF0000
001FFF0000
000FFE0000
000FFE0000
ENDCHAR
STARTCHAR 0077
ENCODING 119
SWIDTH 852 0
DWIDTH 58 0
BBX 56 34 1 0
BITMAP
FF8001FFC001FF
FFC003FFC001FF
FFC003FFC003FF
7FC003FFE003FE
7FC007FFE003FE
7FE007FFE007FE
3FE007FFE007FE
3FE00FFFF007FC
3FF00FFFF007FC
1FF00FFFF00FFC
1FF01FFFF80FF8
1FF01FFFF80FF8
0FF81FE7F81FF8
0FF83FE7FC1FF0
0FF83FE7FC1FF0
0FFC3FE3FC1FF0
07FC3FC3FE3FE0
07FC7FC3FE3FE0
07FE7FC1FE3FE0
03FE7F81FF7FE0
03FEFF81FF7FC0
03FEFF81FF7FC0
01FFFF00FFFFC0
01FFFF00FFFF80
01FFFF00FFFF80
01FFFF007FFF80
00FFFE007FFF00
00FFFE007FFF00
00FFFE003FFF00
007FFC003FFF00
007FFC003FFE00
007FFC001FFE00
003FF8001FFE00
003FF8001FFC00
ENDCHAR
STARTCHAR 0078
ENCODING 120
SWIDTH 544 0
DWIDTH 37 0
BBX 35 34 1 0
BITMAP
7FF000FFC0
3FF801FF80
1FF801FF80
1FFC03FF00
0FFE03FE00
07FE07FE00
07FF0FFC00
03FF8FF800
01FF9FF800
01FFDFF000
00FFFFE000
007FFFE000
003FFFC000
003FFF8000
001FFF8000
000FFF0000
001FFF0000
001FFF8000
003FFF8000
007FFFC000
007FFFE000
00FFFFE000
01FFFFF000
01FF3FF800
03FE1FF800
07FE1FFC00
07FC0FFE00
0FFC07FE00
1FF807FF00
1FF803FF80
3FF003FF80
7FE001FFC0
7FE000FFE0
FFC000FFE0
ENDCHAR
STARTCHAR 0079
ENCODING 121
SWIDTH 544 0
DWIDTH 37 0
BBX 35 48 1 -13
BITMAP
FFC0007FE0
FFE0007FE0
7FE0007FC0
7FE000FFC0
7FF000FFC0
3FF000FF80
3FF001FF80
1FF801FF80
1FF801FF00
1FFC03FF00
0FFC03FF00
0FFC03FE00
07FE07FE00
07FE07FC00
07FE07FC00
03FF0FFC00
03FF0FF800
01FF0FF800
01FF9FF800
01FF9FF000
00FFDFF000
00FFFFF000
007FFFE000
007FFFE000
007FFFE000
003FFFC000
003FFFC000
001FFFC000
001FFF8000
001FFF8000
000FFF0000
000FFF0000
0007FF0000
0007FE0000
0007FE0000
0007FE0000
0007FC0000
000FFC0000
000FFC0000
001FF80000
001FF80000
001FF80000
003FF00000
003FF00000
003FE00000
007FE00000
007FE00000
00FFC00000
ENDCHAR
STARTCHAR 007A
ENCODING 122
SWIDTH 500 0
DWIDTH 34 0
BBX 28 34 3 0
BITMAP
FFFFFFE0
FFFFFFE0
FFFFFFE0
FFFFFFE0
FFFFFFE0
FFFFFFE0
00007FE0
0000FFE0
0001FFC0
0003FF80
0003FF00
0007FE00
000FFE00
001FFC00
003FF800
007FF000
007FE000
00FFC000
01FF8000
03FF8000
07FF0000
0FFE0000
0FFC0000
1FF80000
3FF00000
7FE00000
FFE00000
FFC00000
FFFFFFF0
FFFFFFF0
FFFFFFF0
FFFFFFF0
FFFFFFF0
FFFFFFF0
ENDCHAR
STARTCHAR 007B
ENCODING 123
SWIDTH 500 0
DWIDTH 34 0
BBX 25 68 5 -16
BITMAP
00003F80
0003FF80
000FFF80
001FFF80
003FFF80
007FFF80
007FF000
007FC000
00FFC000
00FF8000
00FF8000
00FF8000
00FF8000
00FF8000
00FF8000
00FF8000
00FF8000
00FF8000
00FF8000
00FF8000
00FF8000
00FF8000
00FF8000
00FF8000
00FF8000
01FF0000
01FF0000
03FF0000
03FE0000
07FE0000
3FFC0000
FFF80000
FFE00000
FFC00000
FF800000
FFE00000
FFF80000
3FFC0000
1FFE0000
07FE0000
03FF0000
03FF0000
01FF0000
01FF8000
00FF8000
00FF8000
00FF8000
00FF8000
00FF8000
00FF8000
00FF8000
00FF8000
00FF8000
00FF8000
00FF8000
00FF8000
00FF8000
00FF8000
00FF8000
00FFC000
007FC000
007FE000
007FFF80
003FFF80
001FFF80
000FFF80
0007FF80
00003F80
ENDCHAR
STARTCHAR 007C
ENCODING 124
SWIDTH 338 0
DWIDTH 23 0
BBX 5 72 9 -18
BITMAP
F8
F8
F8
F8
F8
F8
F8
F8
F8
F8
F8
F8
F8
F8
F8
F8
F8
F8
F8
F8
F8
F8
F8
F8
F8
F8
F8
F8
F8
F8
F8
F8
F8
F8
F8
F8
F8
F8
F8
F8
F8
F8
F8
F8
F8
F8
F8
F8
F8
F8
F8
F8
F8
F8
F8
F8
F8
F8
F8
F8
F8
F8
F8
F8
F8
F8
F8
F8
F8
F8
F8
F8
ENDCHAR
STARTCHAR 007D
ENCODING 125
SWIDTH 514 0
DWIDTH 35 0
BBX 26 68 5 -16
BITMAP
FC000000
FFE00000
FFF80000
FFFC0000
FFFE0000
FFFF0000
07FF0000
01FF8000
01FF8000
00FF8000
00FF8000
00FF8000
00FF8000
00FF8000
00FF8000
00FF8000
00FF8000
00FF8000
00FF8000
00FF8000
00FF8000
00FF8000
00FF8000
00FF8000
007FC000
007FC000
007FE000
007FE000
003FF000
001FF800
001FFE00
000FFFC0
0003FFC0
0000FFC0
0000FFC0
0003FFC0
0007FFC0
000FFE00
001FF800
003FF000
007FE000
007FC000
007FC000
007FC000
00FF8000
00FF8000
00FF8000
00FF8000
00FF8000
00FF8000
00FF8000
00FF8000
00FF8000
00FF8000
00FF8000
00FF8000
00FF8000
00FF8000
00FF8000
00FF8000
01FF8000
07FF0000
FFFF0000
FFFE0000
FFFE0000
FFF80000
FFE00000
FE000000
ENDCHAR
STARTCHAR 007E
ENCODING 126
SWIDTH 529 0
DWIDTH 36 0
BBX 36 8 0 14
BITMAP
00FE0003F0
03FFE007F0
0FFFFE1FE0
1FFFFFFFC0
3FFFFFFFC0
7F83FFFF00
FF007FFE00
FE0007F800
ENDCHAR
STARTCHAR 00A0
ENCODING 160
SWIDTH 294 0
DWIDTH 20 0
BBX 0 0 0 0
BITMAP
ENDCHAR
STARTCHAR 00A1
ENCODING 161
SWIDTH 411 0
DWIDTH 28 0
BBX 9 48 9 -13
BITMAP
FF80
FF80
FF80
FF80
FF80
FF80
FF80
FF80
0000
0000
0000
0000
0000
FF80
FF80
FF80
FF80
FF80
FF80
FF80
FF80
FF80
FF80
FF80
FF80
FF80
FF80
FF80
FF80
FF80
FF80
FF80
FF80
FF80
FF80
FF80
FF80
FF80
FF80
FF80
FF80
FF80
FF80
FF80
FF80
FF80
FF80
FF80
ENDCHAR
STARTCHAR 00A2
ENCODING 162
SWIDTH 558 0
DWIDTH 38 0
BBX 30 51 4 -10
BITMAP
00000780
00000780
00000F00
00000F00
00000F00
00000E00
00001E00
000FFE00
007FFE00
01FFFF80
03FFFFE0
07FFFFF0
0FFFFFF0
1FF87FF8
3FF07FF8
3FE0FFFC
7FC0FFFC
7FC0F7FC
7FC0E7FC
7F81E7FC
FF81E000
FF81C000
FF83C000
FF83C000
FF838000
FF878000
FF878000
FF878000
FF870000
FF8F0000
FFCF07FC
7FCE07FC
7FDE07FC
7FDE0FFC
3FFC0FFC
3FFC0FF8
1FFC3FF8
1FFFFFF0
0FFFFFF0
07FFFFE0
03FFFF80
00FFFF00
00FFF800
00F00000
01E00000
01E00000
01E00000
03C00000
03C00000
03C00000
07C00000
ENDCHAR
STARTCHAR 00A3
ENCODING 163
SWIDTH 588 0
DWIDTH 40 0
BBX 34 50 4 0
BITMAP
0003FF8000
001FFFF800
007FFFFC00
00FFFFFE00
01FFFFFF00
01FFFFFF80
03FF83FF80
03FF00FFC0
07FE00FFC0
07FE007FC0
07FC007FC0
07FC007FC0
07FC000000
07FC000000
07FC000000
07FC000000
07FC000000
07FC000000
07FC000000
FFFFFE0000
FFFFFE0000
FFFFFE0000
FFFFFE0000
FFFFFE0000
FFFFFE0000
07FC000000
07FC000000
07FC000000
07FC000000
07FC000000
07FC000000
07FC000000
07FC000000
07FC000000
07FC000000
07FC000000
07FC000000
07FC000000
07FC000000
07FC000000
07FC000000
07FC000000
07FC000000
07FC000000
FFFFFFFFC0
FFFFFFFFC0
FFFFFFFFC0
FFFFFFFFC0
FFFFFFFFC0
FFFFFFFFC0
ENDCHAR
STARTCHAR 00A4
ENCODING 164
SWIDTH 617 0
DWIDTH 42 0
BBX 37 37 3 11
BITMAP
2000000020
7000000070
F8000000F8
7C000001F0
3E01FC03E0
1F0FFF87C0
0FBFFFCF80
07FFFFFF00
03FE03FE00
01F800FC00
03F0007E00
03E0003E00
07C0001F00
0780000F00
0F80000F00
0F00000780
0F00000780
0F00000780
0F00000780
0F00000780
0F00000780
0F00000780
0780000F00
0780000F00
07C0001F00
03E0003E00
03F0007C00
01F800FC00
03FE03FE00
07FFFFFF00
0FBFFFEF80
1F0FFF87C0
3E01FC03E0
7C000001F0
F8000000F8
7000000070
2000000020
ENDCHAR
STARTCHAR 00A5
ENCODING 165
SWIDTH 573 0
DWIDTH 39 0
BBX 39 49 0 1
BITMAP
FFC00007FE
7FE0000FFC
7FE0000FFC
3FF0000FF8
3FF0001FF8
1FF8001FF0
1FF8003FF0
0FF8003FE0
0FFC007FE0
07FC007FC0
07FE00FFC0
03FE00FFC0
03FF00FF80
01FF01FF80
7FFF81FFFC
7FFF83FFFC
7FFF83FFFC
7FFFC7FFFC
7FFFC7FFFC
007FE7FC00
003FEFFC00
003FFFF800
001FFFF800
001FFFF000
000FFFF000
000FFFE000
0007FFE000
7FFFFFFFFC
7FFFFFFFFC
7FFFFFFFFC
7FFFFFFFFC
0001FF0000
0001FF0000
0001FF0000
0001FF0000
0001FF0000
0001FF0000
0001FF0000
0001FF0000
0001FF0000
0001FF0000
0001FF0000
0001FF0000
0001FF0000
0001FF0000
0001FF0000
0001FF0000
0001FF0000
0001FF0000
ENDCHAR
STARTCHAR 00A6
ENCODING 166
SWIDTH 338 0
DWIDTH 23 0
BBX 3 64 10 -13
BITMAP
E0
E0
E0
E0
E0
E0
E0
E0
E0
E0
E0
E0
E0
E0
E0
E0
E0
E0
E0
E0
E0
E0
E0
E0
E0
E0
E0
00
00
00
00
00
00
00
00
00
00
E0
E0
E0
E0
E0
E0
E0
E0
E0
E0
E0
E0
E0
E0
E0
E0
E0
E0
E0
E0
E0
E0
E0
E0
E0
E0
E0
ENDCHAR
STARTCHAR 00A7
ENCODING 167
SWIDTH 470 0
DWIDTH 32 0
BBX 27 62 2 -12
BITMAP
001FE000
00FFFE00
03FFFF00
07FFFF80
0FFFFF80
1FFFFF80
3FF81F80
3FF00780
7FE00180
7FC00000
7FC00000
7FC00000
7FE00000
7FE00000
3FF00000
3FFC0000
1FFE0000
1FFF8000
0FFFE000
03FFF800
01FFFC00
03FFFE00
0FFFFF00
1FFFFF80
3FF9FFC0
3FE07FC0
7FC03FE0
7F803FE0
FF801FE0
FF001FE0
FF001FE0
FF003FE0
FF803FC0
FFC07FC0
FFE1FF80
7FFFFF00
7FFFFE00
3FFFFC00
1FFFF000
0FFFF800
03FFFC00
00FFFF00
003FFF00
0007FF80
0001FFC0
0000FFC0
00007FE0
00003FE0
00001FE0
00001FE0
00001FE0
00003FE0
60007FC0
7800FFC0
7E03FF80
7FFFFF80
7FFFFF00
7FFFFE00
7FFFFC00
3FFFF000
0FFFE000
00FF0000
ENDCHAR
STARTCHAR 00A8
ENCODING 168
SWIDTH 323 0
DWIDTH 22 0
BBX 22 8 0 43
BITMAP
FF03FC
FF03FC
FF03FC
FF03FC
FF03FC
FF03FC
FF03FC
FF03FC
ENDCHAR
STARTCHAR 00A9
ENCODING 169
SWIDTH 867 0
DWIDTH 59 0
BBX 51 51 4 -1
BITMAP
00000FFE000000
00007FFFC00000
0003FFFFF80000
000FFFFFFC0000
001FFFFFFF0000
003FF801FF8000
00FFC0003FE000
01FF00000FF000
03FC000003F800
03F803F801F800
07F01FFF00FC00
0FE03FFF807E00
1FC07FFFE03E00
1F80FFFFE01F00
3F01FFFFF00F80
3F03FE0FF80F80
3E03FC07F80780
7E07F807F807C0
7C07F003FC03C0
7C07F003FC03C0
FC0FF003FC03E0
F80FF0000001E0
F80FF0000001E0
F80FF0000001E0
F80FF0000001E0
F80FF0000001E0
F80FF0000001E0
F80FF0000001E0
F80FF0000001E0
F80FF003FC01E0
F807F003FC01E0
7C07F003FC03C0
7C07F803FC03C0
7C03F807F803C0
3E03FC07F80780
3E01FE0FF00780
3F01FFFFF00F80
1F00FFFFE00F00
1F807FFF801F00
0FC01FFF003E00
07E007F8007C00
03F0000000F800
03F8000001F800
01FC000003F000
00FF00000FE000
003FC0003F8000
001FF801FF0000
000FFFFFFE0000
0003FFFFF80000
00007FFFC00000
00000FFE000000
ENDCHAR
STARTCHAR 00AA
ENCODING 170
SWIDTH 382 0
DWIDTH 26 0
BBX 24 33 1 16
BITMAP
00FF00
03FFE0
0FFFF0
1FFFF8
1FC1F8
3F80FC
3F80FC
0000FC
0000FC
00FFFC
07FFFC
0FFFFC
1FFFFC
3FE0FC
3F80FC
7F00FC
7F00FC
7F00FC
7F00FC
7F01FC
7F83FC
3FFFFC
3FFF7C
1FFE7E
07FC7E
00E000
000000
000000
000000
000000
FFFFFF
FFFFFF
FFFFFF
ENDCHAR
STARTCHAR 00AB
ENCODING 171
SWIDTH 602 0
DWIDTH 41 0
BBX 33 27 4 4
BITMAP
01FF00FF80
03FE00FF80
03FE01FF00
07FC01FF00
07FC03FE00
0FF803FE00
1FF807FE00
1FF80FFC00
3FF00FFC00
3FF01FF800
7FE01FF800
7FE03FF000
FFC03FF000
FFC07FE000
FFC03FF000
7FE03FF000
7FE01FF800
3FF01FF800
3FF00FFC00
1FF80FFC00
1FF807FE00
0FF803FE00
07FC03FE00
07FC01FF00
03FE01FF00
03FE00FF80
01FF00FF80
ENDCHAR
STARTCHAR 00AC
ENCODING 172
SWIDTH 617 0
DWIDTH 42 0
BBX 36 15 3 14
BITMAP
FFFFFFFFF0
FFFFFFFFF0
FFFFFFFFF0
FFFFFFFFF0
00000000F0
00000000F0
00000000F0
00000000F0
00000000F0
00000000F0
00000000F0
00000000F0
00000000F0
00000000F0
00000000F0
ENDCHAR
STARTCHAR 00AE
ENCODING 174
SWIDTH 867 0
DWIDTH 59 0
BBX 51 51 4 -1
BITMAP
00000FFE000000
00007FFFC00000
0003FFFFF80000
000FFFFFFC0000
001FFFFFFF0000
003FF801FF8000
00FFC0003FE000
01FF00000FF000
03FC000003F800
03F8000001F800
07F1FFFE00FC00
0FE1FFFFC07E00
1FC1FFFFF03E00
1F81FFFFF81F00
3F01FFFFF80F80
3F01F807FC0F80
3E01F801FC0780
7E01F800FC07C0
7C01F800FC03C0
7C01F800FC03C0
FC01F800FC03E0
F801F801F801E0
F801F807F001E0
F801FFFFE001E0
F801FFFF8001E0
F801FFFF8001E0
F801FFFFE001E0
F801FFFFF001E0
F801F807F001E0
F801F803F801E0
F801F801F801E0
7C01F801F803C0
7C01F801F803C0
7C01F801F803C0
3E01F801F80780
3E01F800FC0780
3F01F800FC0F80
1F01F800FC0F00
1F81F800FC1F00
0FC1F800FC3E00
07E00000007C00
03F0000000F800
03F8000001F800
01FC000003F000
00FF00000FE000
003FC0003F8000
001FF801FF0000
000FFFFFFE0000
0003FFFFF80000
00007FFFC00000
00000FFE000000
ENDCHAR
STARTCHAR 00AF
ENCODING 175
SWIDTH 323 0
DWIDTH 22 0
BBX 22 6 0 43
BITMAP
FFFFFC
FFFFFC
FFFFFC
FFFFFC
FFFFFC
FFFFFC
ENDCHAR
STARTCHAR 00B0
ENCODING 176
SWIDTH 308 0
DWIDTH 21 0
BBX 15 15 3 34
BITMAP
07C0
1FF0
3FF8
783C
701C
E00E
E00E
E00E
E00E
E00E
701C
783C
3FF8
1FF0
07C0
ENDCHAR
STARTCHAR 00B1
ENCODING 177
SWIDTH 1014 0
DWIDTH 69 0
BBX 41 41 14 0
BITMAP
00003C000000
00003C000000
00003C000000
00003C000000
00003C000000
00003C000000
00003C000000
00003C000000
00003C000000
00003C000000
00003C000000
00003C000000
FFFFFFFFFF80
FFFFFFFFFF80
FFFFFFFFFF80
FFFFFFFFFF80
00003C000000
00003C000000
00003C000000
00003C000000
00003C000000
00003C000000
00003C000000
00003C000000
00003C000000
00003C000000
00003C000000
00003C000000
00003C000000
000000000000
000000000000
000000000000
000000000000
000000000000
000000000000
000000000000
000000000000
FFFFFFFFFF80
FFFFFFFFFF80
FFFFFFFFFF80
FFFFFFFFFF80
ENDCHAR
STARTCHAR 00B2
ENCODING 178
SWIDTH 367 0
DWIDTH 25 0
BBX 21 27 2 24
BITMAP
00FE00
07FF80
0FFFE0
1FFFF0
3FC7F0
7F83F8
7F03F8
7F03F8
0003F8
0007F8
0007F8
000FF0
001FF0
003FE0
007FC0
00FF80
01FF00
03FE00
07FC00
0FF000
3FE000
7FC000
FF0000
FFFFF8
FFFFF8
FFFFF8
FFFFF8
ENDCHAR
STARTCHAR 00B3
ENCODING 179
SWIDTH 367 0
DWIDTH 25 0
BBX 21 27 2 23
BITMAP
03FC00
0FFF00
3FFFC0
7FFFE0
7F0FE0
FE07F0
FE07F0
0007F0
0007F0
0007F0
001FE0
01FFC0
01FF00
01FF00
01FFE0
000FF0
0007F0
0003F8
0003F8
FE03F8
FE03F8
FE07F0
7F0FF0
7FFFE0
3FFFC0
1FFF00
03FC00
ENDCHAR
STARTCHAR 00B4
ENCODING 180
SWIDTH 220 0
DWIDTH 15 0
BBX 15 13 3 41
BITMAP
03FE
07FC
07F8
0FF0
0FF0
1FE0
1FC0
1F80
3F00
3E00
7E00
7C00
F800
ENDCHAR
STARTCHAR 00B6
ENCODING 182
SWIDTH 558 0
DWIDTH 38 0
BBX 32 59 3 -10
BITMAP
003FFFFF
00FFFFFF
03FFFFFF
07FFC1F0
0FFFC1F0
1FFFC1F0
3FFFC1F0
7FFFC1F0
7FFFC1F0
7FFFC1F0
FFFFC1F0
FFFFC1F0
FFFFC1F0
FFFFC1F0
FFFFC1F0
FFFFC1F0
FFFFC1F0
7FFFC1F0
7FFFC1F0
3FFFC1F0
1FFFC1F0
0FFFC1F0
07FFC1F0
01FFC1F0
001FC1F0
0007C1F0
0007C1F0
0007C1F0
0007C1F0
0007C1F0
0007C1F0
0007C1F0
0007C1F0
0007C1F0
0007C1F0
0007C1F0
0007C1F0
0007C1F0
0007C1F0
0007C1F0
0007C1F0
0007C1F0
0007C1F0
0007C1F0
0007C1F0
0007C1F0
0007C1F0
0007C1F0
0007C1F0
0007C1F0
0007C1F0
0007C1F0
0007C1F0
0007C1F0
0007C1F0
0007C1F0
0007C1F0
0007C1F0
0007C1F0
ENDCHAR
STARTCHAR 00B7
ENCODING 183
SWIDTH 279 0
DWIDTH 19 0
BBX 9 9 5 19
BITMAP
FF80
FF80
FF80
FF80
FF80
FF80
FF80
FF80
FF80
ENDCHAR
STARTCHAR 00B8
ENCODING 184
SWIDTH 250 0
DWIDTH 17 0
BBX 17 17 3 -17
BITMAP
0E0000
0E0000
0E0000
0E0000
0FF800
0FFE00
0FFF00
00FF00
003F80
001F80
001F80
001F80
C03F80
FFFF00
FFFE00
FFFC00
7FE000
ENDCHAR
STARTCHAR 00B9
ENCODING 185
SWIDTH 294 0
DWIDTH 20 0
BBX 13 26 3 24
BITMAP
01F8
07F8
1FF8
7FF8
FFF8
FBF8
F3F8
C3F8
03F8
03F8
03F8
03F8
03F8
03F8
03F8
03F8
03F8
03F8
03F8
03F8
03F8
03F8
03F8
03F8
03F8
03F8
ENDCHAR
STARTCHAR 00BA
ENCODING 186
SWIDTH 426 0
DWIDTH 29 0
BBX 25 33 2 16
BITMAP
007F0000
03FFE000
07FFF000
0FFFF800
1FC1FC00
3F80FE00
7F007E00
7F007F00
7F007F00
FE003F80
FE003F80
FE003F80
FE003F80
FE003F80
FE003F80
FE003F80
FE003F80
7E007F00
7F007F00
7F007E00
3F80FE00
1FC1FC00
0FFFF800
07FFF000
03FFE000
007F0000
00000000
00000000
00000000
00000000
7FFFFF80
7FFFFF80
7FFFFF80
ENDCHAR
STARTCHAR 00BB
ENCODING 187
SWIDTH 602 0
DWIDTH 41 0
BBX 33 27 4 4
BITMAP
FF807FC000
FF803FE000
7FC03FE000
7FC01FF000
3FE01FF800
3FE00FF800
1FF00FFC00
1FF807FC00
1FF807FE00
0FFC07FE00
0FFC03FF00
07FE03FF00
07FE01FF80
03FF01FF80
07FE01FF80
07FE03FF00
0FFC03FF00
0FFC07FE00
1FF807FE00
1FF807FC00
1FF00FFC00
3FE00FF800
3FE01FF800
7FC01FF000
7FC03FE000
FF803FE000
FF807FC000
ENDCHAR
STARTCHAR 00BC
ENCODING 188
SWIDTH 808 0
DWIDTH 55 0
BBX 49 51 3 -1
BITMAP
01F800003F8000
07F800003F0000
1FF800007F0000
7FF80000FE0000
FFF80000FE0000
FFF80001FC0000
F3F80001FC0000
C3F80003F80000
03F80003F80000
03F80007F00000
03F8000FE00000
03F8000FE00000
03F8001FC00000
03F8001FC00000
03F8003F800000
03F8003F800000
03F8007F000000
03F8007E000000
03F800FE000000
03F801FC000000
03F801FC000000
03F803F8000000
03F803F8000000
03F807F0000000
03F807F0000000
03F80FE007FC00
00000FC007FC00
00001FC00FFC00
00003F801FFC00
00003F801FFC00
00007F003FFC00
00007F007FFC00
0000FE00FDFC00
0000FC00F9FC00
0001FC01F9FC00
0003F803F1FC00
0003F803E1FC00
0007F007E1FC00
0007F00FC1FC00
000FE00FC1FC00
000FE01F81FC00
001FC01FFFFF80
001F801FFFFF80
003F801FFFFF80
007F001FFFFF80
007F000001FC00
00FE000001FC00
00FE000001FC00
01FC000001FC00
01F8000001FC00
03F8000001FC00
ENDCHAR
STARTCHAR 00BD
ENCODING 189
SWIDTH 808 0
DWIDTH 55 0
BBX 49 50 3 0
BITMAP
03F800007F0000
07F80000FE0000
1FF80000FE0000
7FF80001FC0000
FFF80001F80000
FBF80003F80000
F3F80007F00000
C3F80007F00000
03F8000FE00000
03F8000FE00000
03F8001FC00000
03F8001F800000
03F8003F800000
03F8007F000000
03F8007F000000
03F800FE000000
03F800FE000000
03F801FC000000
03F801F8000000
03F803F8000000
03F807F0000000
03F807F0000000
03F80FE0000000
03F80FE01FE000
03F81FC0FFF800
03F81F81FFFE00
00003F83FFFF00
00007F07F8FF00
00007F0FF07F80
0000FE0FE03F80
0000FE0FE03F80
0001FC00003F80
0001F800007F80
0003F800007F00
0007F00000FF00
0007F00001FE00
000FE00003FE00
000FE00007FC00
001FC0000FF800
001F80001FF000
003F80007FC000
007F0000FF8000
007F0001FF0000
00FE0007FC0000
00FE000FF80000
01FC001FE00000
01F8001FFFFF00
03F8001FFFFF00
07F0001FFFFF00
07F0001FFFFF00
ENDCHAR
STARTCHAR 00BE
ENCODING 190
SWIDTH 794 0
DWIDTH 54 0
BBX 50 52 2 -1
BITMAP
03FC000007F800
0FFF000007F000
3FFF80000FE000
7FFFC0000FE000
7F0FE0001FC000
FE07F0001FC000
FE07F0003F8000
FE07F0003F8000
0007F0007F0000
0007F0007F0000
000FF000FE0000
001FE001FC0000
01FFC001FC0000
01FF0003F80000
01FF0003F80000
01FFE007F00000
000FF007F00000
0007F00FE00000
0003F80FE00000
0003F81FC00000
FE03F83F800000
FE03F83F800000
FE07F07F000000
7F0FF07F000000
7FFFE0FE000000
3FFFC0FE000000
1FFF81FC03FE00
03FC01FC03FE00
000003F807FE00
000003F00FFE00
000007F00FFE00
00000FE01FFE00
00000FE03FFE00
00001FC03EFE00
00001FC07CFE00
00003F80FCFE00
00003F81F8FE00
00007F01F8FE00
00007F03F0FE00
0000FE07E0FE00
0001FC07E0FE00
0001FC0FC0FE00
0003F80FFFFFC0
0003F80FFFFFC0
0007F00FFFFFC0
0007F00FFFFFC0
000FE00000FE00
000FE00000FE00
001FC00000FE00
001F800000FE00
003F800000FE00
007F000000FE00
ENDCHAR
STARTCHAR 00BF
ENCODING 191
SWIDTH 544 0
DWIDTH 37 0
BBX 31 48 3 -13
BITMAP
0007F800
0007F800
0007F800
0007F800
0007F800
0007F800
0007F800
0007F800
00000000
00000000
00000000
00000000
00000000
0003F800
0003F800
0003F800
0003F800
0003F800
0003F800
0007F800
000FF000
001FF000
003FE000
00FFC000
01FF0000
03FE0000
0FFC0000
1FF80000
1FF00000
3FE00000
7FC00000
7FC00000
FFC00000
FF800000
FF800080
FF8000E0
FF8001F0
FFC001FC
FFC003FE
7FE007FC
7FF81FFC
3FFFFFF8
1FFFFFF0
1FFFFFE0
07FFFFC0
03FFFF80
00FFFE00
001FF000
ENDCHAR
STARTCHAR 00C0
ENCODING 192
SWIDTH 705 0
DWIDTH 48 0
BBX 46 68 1 1
BITMAP
001FF0000000
000FF8000000
0007F8000000
0003FC000000
0001FC000000
0000FE000000
0000FE000000
00007F000000
00003F000000
00001F800000
00000F800000
000007C00000
000003C00000
000000000000
000000000000
000000000000
000000000000
000000000000
000000000000
00003FF00000
00003FF80000
00007FF80000
00007FF80000
00007FFC0000
0000FFFC0000
0000FFFC0000
0001FFFE0000
0001FFFE0000
0001FFFF0000
0003FFFF0000
0003FFFF0000
0003FEFF8000
0007FCFF8000
0007FCFF8000
000FFC7FC000
000FF87FC000
000FF87FE000
001FF83FE000
001FF03FE000
001FF03FF000
003FF01FF000
003FE01FF000
007FE01FF800
007FC00FF800
007FC00FFC00
00FFC00FFC00
00FF8007FC00
00FF8007FE00
01FF8007FE00
01FF0003FE00
03FFFFFFFF00
03FFFFFFFF00
03FFFFFFFF80
07FFFFFFFF80
07FFFFFFFF80
07FFFFFFFFC0
0FFFFFFFFFC0
0FFFFFFFFFC0
1FF800007FE0
1FF800007FE0
1FF000003FF0
3FF000003FF0
3FF000003FF0
3FE000001FF8
7FE000001FF8
7FE000000FF8
FFC000000FFC
FFC000000FFC
ENDCHAR
STARTCHAR 00C1
ENCODING 193
SWIDTH 705 0
DWIDTH 48 0
BBX 46 68 1 1
BITMAP
0000003FE000
0000007FC000
0000007F8000
000000FF0000
000000FE0000
000001FC0000
000001FC0000
000003F80000
000003F00000
000007E00000
000007C00000
00000F800000
00000F000000
000000000000
000000000000
000000000000
000000000000
000000000000
000000000000
00003FF00000
00003FF80000
00007FF80000
00007FF80000
00007FFC0000
0000FFFC0000
0000FFFC0000
0001FFFE0000
0001FFFE0000
0001FFFF0000
0003FFFF0000
0003FFFF0000
0003FEFF8000
0007FCFF8000
0007FCFF8000
000FFC7FC000
000FF87FC000
000FF87FE000
001FF83FE000
001FF03FE000
001FF03FF000
003FF01FF000
003FE01FF000
007FE01FF800
007FC00FF800
007FC00FFC00
00FFC00FFC00
00FF8007FC00
00FF8007FE00
01FF8007FE00
01FF0003FE00
03FFFFFFFF00
03FFFFFFFF00
03FFFFFFFF80
07FFFFFFFF80
07FFFFFFFF80
07FFFFFFFFC0
0FFFFFFFFFC0
0FFFFFFFFFC0
1FF800007FE0
1FF800007FE0
1FF000003FF0
3FF000003FF0
3FF000003FF0
3FE000001FF8
7FE000001FF8
7FE000000FF8
FFC000000FFC
FFC000000FFC
ENDCHAR
STARTCHAR 00C2
ENCODING 194
SWIDTH 705 0
DWIDTH 48 0
BBX 46 68 1 1
BITMAP
00003FF00000
00003FF00000
00007FF80000
00007FF80000
0000FFFC0000
0000FFFC0000
0001FCFE0000
0001F87E0000
0003F03F0000
0003F01F0000
0007E00F8000
0007C00F8000
000F8007C000
000000000000
000000000000
000000000000
000000000000
000000000000
000000000000
00003FF00000
00003FF80000
00007FF80000
00007FF80000
00007FFC0000
0000FFFC0000
0000FFFC0000
0001FFFE0000
0001FFFE0000
0001FFFF0000
0003FFFF0000
0003FFFF0000
0003FEFF8000
0007FCFF8000
0007FCFF8000
000FFC7FC000
000FF87FC000
000FF87FE000
001FF83FE000
001FF03FE000
001FF03FF000
003FF01FF000
003FE01FF000
007FE01FF800
007FC00FF800
007FC00FFC00
00FFC00FFC00
00FF8007FC00
00FF8007FE00
01FF8007FE00
01FF0003FE00
03FFFFFFFF00
03FFFFFFFF00
03FFFFFFFF80
07FFFFFFFF80
07FFFFFFFF80
07FFFFFFFFC0
0FFFFFFFFFC0
0FFFFFFFFFC0
1FF800007FE0
1FF800007FE0
1FF000003FF0
3FF000003FF0
3FF000003FF0
3FE000001FF8
7FE000001FF8
7FE000000FF8
FFC000000FFC
FFC000000FFC
ENDCHAR
STARTCHAR 00C3
ENCODING 195
SWIDTH 705 0
DWIDTH 48 0
BBX 46 65 1 1
BITMAP
00000003C000
00007C03C000
0001FF878000
0003FFFF8000
0003FFFF8000
0007FFFF0000
000783FE0000
000F00FC0000
000F00000000
000000000000
000000000000
000000000000
000000000000
000000000000
000000000000
000000000000
000000000000
00003FF80000
00007FF80000
00007FF80000
00007FFC0000
0000FFFC0000
0000FFFC0000
0001FFFE0000
0001FFFE0000
0001FFFF0000
0003FFFF0000
0003FFFF0000
0003FEFF8000
0007FCFF8000
0007FCFF8000
000FFC7FC000
000FF87FC000
000FF87FE000
001FF83FE000
001FF03FE000
001FF03FF000
003FF01FF000
003FE01FF000
007FE01FF800
007FC00FF800
007FC00FFC00
00FFC00FFC00
00FF8007FC00
00FF8007FE00
01FF8007FE00
01FF0003FE00
03FFFFFFFF00
03FFFFFFFF00
03FFFFFFFF80
07FFFFFFFF80
07FFFFFFFF80
07FFFFFFFFC0
0FFFFFFFFFC0
0FFFFFFFFFC0
1FF800007FE0
1FF800007FE0
1FF000003FF0
3FF000003FF0
3FF000003FF0
3FE000001FF8
7FE000001FF8
7FE000000FF8
FFC000000FFC
FFC000000FFC
ENDCHAR
STARTCHAR 00C4
ENCODING 196
SWIDTH 705 0
DWIDTH 48 0
BBX 46 66 1 1
BITMAP
000FE01FC000
000FE01FC000
000FE01FC000
000FE01FC000
000FE01FC000
000FE01FC000
000FE01FC000
000FE01FC000
000000000000
000000000000
000000000000
000000000000
000000000000
000000000000
000000000000
000000000000
000000000000
00007FF80000
00007FF80000
00007FFC0000
0000FFFC0000
0000FFFC0000
0001FFFE0000
0001FFFE0000
0001FFFE0000
0003FFFF0000
0003FFFF0000
0003FFFF0000
0007FFFF8000
0007FCFF8000
0007FCFFC000
000FFCFFC000
000FF87FC000
001FF87FE000
001FF87FE000
001FF03FE000
003FF03FF000
003FF03FF000
003FE01FF000
007FE01FF800
007FC01FF800
00FFC00FFC00
00FFC00FFC00
00FF800FFC00
01FF8007FE00
01FF8007FE00
01FF0003FE00
03FF0003FF00
03FFFFFFFF00
03FFFFFFFF00
07FFFFFFFF80
07FFFFFFFF80
0FFFFFFFFFC0
0FFFFFFFFFC0
0FFFFFFFFFC0
1FFFFFFFFFE0
1FF800007FE0
1FF000007FE0
3FF000003FF0
3FF000003FF0
3FE000003FF0
7FE000001FF8
7FE000001FF8
FFC000000FFC
FFC000000FFC
FFC000000FFC
ENDCHAR
STARTCHAR 00C5
ENCODING 197
SWIDTH 705 0
DWIDTH 48 0
BBX 46 72 1 1
BITMAP
00000FC00000
00003FF00000
00007FF80000
00007FF80000
0000F87C0000
0001F03C0000
0001E01E0000
0001E01E0000
0001E01E0000
0001E01E0000
0001E01E0000
0001F03E0000
0000F87C0000
00007FF80000
00007FF80000
00003FF00000
00000FC00000
000000000000
000000000000
000000000000
000000000000
000000000000
000000000000
000000000000
00003FF00000
00007FF80000
00007FF80000
00007FF80000
0000FFFC0000
0000FFFC0000
0001FFFE0000
0001FFFE0000
0001FFFE0000
0003FFFF0000
0003FFFF0000
0003FFFF0000
0007FCFF8000
0007FCFF8000
000FFCFFC000
000FF87FC000
000FF87FC000
001FF87FE000
001FF03FE000
001FF03FE000
003FE03FF000
003FE01FF000
007FE01FF800
007FC01FF800
007FC00FF800
00FFC00FFC00
00FF800FFC00
00FF8007FC00
01FF8007FE00
01FF0007FE00
03FFFFFFFF00
03FFFFFFFF00
03FFFFFFFF00
07FFFFFFFF80
07FFFFFFFF80
07FFFFFFFF80
0FFFFFFFFFC0
0FFFFFFFFFC0
1FF800007FE0
1FF800007FE0
1FF000007FE0
3FF000003FF0
3FF000003FF0
3FE000001FF0
7FE000001FF8
7FE000001FF8
FFC000000FFC
FFC000000FFC
ENDCHAR
STARTCHAR 00C6
ENCODING 198
SWIDTH 1000 0
DWIDTH 68 0
BBX 63 49 1 0
BITMAP
0000003FFFFFFFFE
0000007FFFFFFFFE
0000007FFFFFFFFE
000000FFFFFFFFFE
000000FFFFFFFFFE
000001FFFFFFFFFE
000003FFFFFFFFFE
000003FFFF000000
000007FFFF000000
000007FDFF000000
00000FFDFF000000
00000FF9FF000000
00001FF9FF000000
00001FF1FF000000
00003FE1FF000000
00003FE1FF000000
00007FC1FF000000
0000FFC1FF000000
0000FF81FF000000
0001FF81FF000000
0001FF01FFFFFFF8
0003FF01FFFFFFF8
0003FE01FFFFFFF8
0007FC01FFFFFFF8
0007FC01FFFFFFF8
000FF801FFFFFFF8
000FF801FFFFFFF8
001FF001FFFFFFF8
001FF001FF000000
003FFFFFFF000000
007FFFFFFF000000
007FFFFFFF000000
00FFFFFFFF000000
00FFFFFFFF000000
01FFFFFFFF000000
01FFFFFFFF000000
03FFFFFFFF000000
03FE0003FF000000
07FE0003FF000000
07FC0003FF000000
0FFC0003FF000000
1FF80003FFFFFFFE
1FF00003FFFFFFFE
3FF00003FFFFFFFE
3FE00003FFFFFFFE
7FE00003FFFFFFFE
7FC00003FFFFFFFE
FFC00003FFFFFFFE
FF800003FFFFFFFE
ENDCHAR
STARTCHAR 00C7
ENCODING 199
SWIDTH 735 0
DWIDTH 50 0
BBX 42 67 4 -17
BITMAP
00007FE00000
0007FFFE0000
001FFFFF8000
003FFFFFE000
00FFFFFFF000
01FFFFFFF800
03FFFFFFFC00
07FFFFFFFE00
07FFC03FFE00
0FFF000FFF00
1FFC0007FF00
1FF80003FF80
3FF80003FF80
3FF00001FF80
3FF00001FF80
7FE00000FF80
7FE00000FFC0
7FE000000000
7FC000000000
FFC000000000
FFC000000000
FFC000000000
FFC000000000
FFC000000000
FFC000000000
FFC000000000
FFC000000000
FFC000000000
FFC000000000
FFC000000000
FFC000000000
FFC000000000
FFC000000000
7FC000000000
7FE00001FFC0
7FE00001FFC0
7FE00001FFC0
3FF00001FFC0
3FF00003FF80
3FF80003FF80
1FF80007FF80
1FFC000FFF00
0FFF001FFF00
0FFFC07FFE00
07FFFFFFFC00
03FFFFFFF800
01FFFFFFF000
00FFFFFFE000
007FFFFFC000
001FFFFF0000
0007FFFC0000
0000FFE00000
00001C000000
00001C000000
00001F000000
00001FF00000
00001FFC0000
00001FFE0000
000000FF0000
0000003F0000
0000003F0000
0000003F0000
0001807F0000
0001FFFE0000
0001FFFE0000
0001FFF80000
0000FFC00000
ENDCHAR
STARTCHAR 00C8
ENCODING 200
SWIDTH 632 0
DWIDTH 43 0
BBX 33 68 5 0
BITMAP
03FC000000
01FE000000
00FE000000
00FF000000
007F000000
003F800000
001FC00000
000FC00000
0007E00000
0007E00000
0003F00000
0001F00000
0000000000
0000000000
0000000000
0000000000
0000000000
0000000000
0000000000
FFFFFFFF80
FFFFFFFF80
FFFFFFFF80
FFFFFFFF80
FFFFFFFF80
FFFFFFFF80
FFFFFFFF80
FFFFFFFF80
FF80000000
FF80000000
FF80000000
FF80000000
FF80000000
FF80000000
FF80000000
FF80000000
FF80000000
FF80000000
FF80000000
FF80000000
FFFFFFFE00
FFFFFFFE00
FFFFFFFE00
FFFFFFFE00
FFFFFFFE00
FFFFFFFE00
FFFFFFFE00
FF80000000
FF80000000
FF80000000
FF80000000
FF80000000
FF80000000
FF80000000
FF80000000
FF80000000
FF80000000
FF80000000
FF80000000
FF80000000
FF80000000
FFFFFFFF80
FFFFFFFF80
FFFFFFFF80
FFFFFFFF80
FFFFFFFF80
FFFFFFFF80
FFFFFFFF80
FFFFFFFF80
ENDCHAR
STARTCHAR 00C9
ENCODING 201
SWIDTH 632 0
DWIDTH 43 0
BBX 33 68 5 0
BITMAP
00003FC000
00007FC000
0000FF8000
0000FF0000
0001FE0000
0001FC0000
0003F80000
0003F00000
0007E00000
0007E00000
000FC00000
000F800000
0000000000
0000000000
0000000000
0000000000
0000000000
0000000000
0000000000
FFFFFFFF80
FFFFFFFF80
FFFFFFFF80
FFFFFFFF80
FFFFFFFF80
FFFFFFFF80
FFFFFFFF80
FFFFFFFF80
FF80000000
FF80000000
FF80000000
FF80000000
FF80000000
FF80000000
FF80000000
FF80000000
FF80000000
FF80000000
FF80000000
FF80000000
FFFFFFFE00
FFFFFFFE00
FFFFFFFE00
FFFFFFFE00
FFFFFFFE00
FFFFFFFE00
FFFFFFFE00
FF80000000
FF80000000
FF80000000
FF80000000
FF80000000
FF80000000
FF80000000
FF80000000
FF80000000
FF80000000
FF80000000
FF80000000
FF80000000
FF80000000
FFFFFFFF80
FFFFFFFF80
FFFFFFFF80
FFFFFFFF80
FFFFFFFF80
FFFFFFFF80
FFFFFFFF80
FFFFFFFF80
ENDCHAR
STARTCHAR 00CA
ENCODING 202
SWIDTH 632 0
DWIDTH 43 0
BBX 33 68 5 0
BITMAP
001FF80000
001FFC0000
003FFC0000
003FFE0000
007FFE0000
007E7F0000
00FE3F0000
00FC1F8000
01F81F8000
01F00FC000
03E007C000
03C003E000
0000000000
0000000000
0000000000
0000000000
0000000000
0000000000
0000000000
FFFFFFFF80
FFFFFFFF80
FFFFFFFF80
FFFFFFFF80
FFFFFFFF80
FFFFFFFF80
FFFFFFFF80
FFFFFFFF80
FF80000000
FF80000000
FF80000000
FF80000000
FF80000000
FF80000000
FF80000000
FF80000000
FF80000000
FF80000000
FF80000000
FF80000000
FFFFFFFE00
FFFFFFFE00
FFFFFFFE00
FFFFFFFE00
FFFFFFFE00
FFFFFFFE00
FFFFFFFE00
FF80000000
FF80000000
FF80000000
FF80000000
FF80000000
FF80000000
FF80000000
FF80000000
FF80000000
FF80000000
FF80000000
FF80000000
FF80000000
FF80000000
FFFFFFFF80
FFFFFFFF80
FFFFFFFF80
FFFFFFFF80
FFFFFFFF80
FFFFFFFF80
FFFFFFFF80
FFFFFFFF80
ENDCHAR
STARTCHAR 00CB
ENCODING 203
SWIDTH 632 0
DWIDTH 43 0
BBX 33 66 5 0
BITMAP
03F80FE000
03F80FE000
03F80FE000
03F80FE000
03F80FE000
03F80FE000
03F80FE000
03F80FE000
0000000000
0000000000
0000000000
0000000000
0000000000
0000000000
0000000000
0000000000
0000000000
FFFFFFFF80
FFFFFFFF80
FFFFFFFF80
FFFFFFFF80
FFFFFFFF80
FFFFFFFF80
FFFFFFFF80
FFFFFFFF80
FF80000000
FF80000000
FF80000000
FF80000000
FF80000000
FF80000000
FF80000000
FF80000000
FF80000000
FF80000000
FF80000000
FF80000000
FFFFFFFE00
FFFFFFFE00
FFFFFFFE00
FFFFFFFE00
FFFFFFFE00
FFFFFFFE00
FFFFFFFE00
FF80000000
FF80000000
FF80000000
FF80000000
FF80000000
FF80000000
FF80000000
FF80000000
FF80000000
FF80000000
FF80000000
FF80000000
FF80000000
FF80000000
FFFFFFFF80
FFFFFFFF80
FFFFFFFF80
FFFFFFFF80
FFFFFFFF80
FFFFFFFF80
FFFFFFFF80
FFFFFFFF80
ENDCHAR
STARTCHAR 00CC
ENCODING 204
SWIDTH 294 0
DWIDTH 20 0
BBX 16 68 -1 0
BITMAP
FF00
7F80
7F80
3FC0
1FC0
0FE0
07E0
03F0
03F0
01F8
00F8
007C
0000
0000
0000
0000
0000
0000
0000
03FF
03FF
03FF
03FF
03FF
03FF
03FF
03FF
03FF
03FF
03FF
03FF
03FF
03FF
03FF
03FF
03FF
03FF
03FF
03FF
03FF
03FF
03FF
03FF
03FF
03FF
03FF
03FF
03FF
03FF
03FF
03FF
03FF
03FF
03FF
03FF
03FF
03FF
03FF
03FF
03FF
03FF
03FF
03FF
03FF
03FF
03FF
03FF
03FF
ENDCHAR
STARTCHAR 00CD
ENCODING 205
SWIDTH 250 0
DWIDTH 17 0
BBX 15 68 4 0
BITMAP
01FE
03FC
03FC
07F8
07F0
0FE0
0FC0
1F80
1F80
3F00
3E00
7C00
0000
0000
0000
0000
0000
0000
0000
FFC0
FFC0
FFC0
FFC0
FFC0
FFC0
FFC0
FFC0
FFC0
FFC0
FFC0
FFC0
FFC0
FFC0
FFC0
FFC0
FFC0
FFC0
FFC0
FFC0
FFC0
FFC0
FFC0
FFC0
FFC0
FFC0
FFC0
FFC0
FFC0
FFC0
FFC0
FFC0
FFC0
FFC0
FFC0
FFC0
FFC0
FFC0
FFC0
FFC0
FFC0
FFC0
FFC0
FFC0
FFC0
FFC0
FFC0
FFC0
FFC0
ENDCHAR
STARTCHAR 00CE
ENCODING 206
SWIDTH 294 0
DWIDTH 20 0
BBX 22 68 -1 0
BITMAP
03FF00
03FF00
07FF80
07FF80
0FFFC0
0FCFC0
1FCFE0
3F87E0
3F03F0
7E01F8
7C00F8
F8007C
000000
000000
000000
000000
000000
000000
000000
03FF00
03FF00
03FF00
03FF00
03FF00
03FF00
03FF00
03FF00
03FF00
03FF00
03FF00
03FF00
03FF00
03FF00
03FF00
03FF00
03FF00
03FF00
03FF00
03FF00
03FF00
03FF00
03FF00
03FF00
03FF00
03FF00
03FF00
03FF00
03FF00
03FF00
03FF00
03FF00
03FF00
03FF00
03FF00
03FF00
03FF00
03FF00
03FF00
03FF00
03FF00
03FF00
03FF00
03FF00
03FF00
03FF00
03FF00
03FF00
03FF00
ENDCHAR
STARTCHAR 00CF
ENCODING 207
SWIDTH 294 0
DWIDTH 20 0
BBX 22 66 -1 0
BITMAP
FE01FC
FE01FC
FE01FC
FE01FC
FE01FC
FE01FC
FE01FC
FE01FC
000000
000000
000000
000000
000000
000000
000000
000000
000000
03FF00
03FF00
03FF00
03FF00
03FF00
03FF00
03FF00
03FF00
03FF00
03FF00
03FF00
03FF00
03FF00
03FF00
03FF00
03FF00
03FF00
03FF00
03FF00
03FF00
03FF00
03FF00
03FF00
03FF00
03FF00
03FF00
03FF00
03FF00
03FF00
03FF00
03FF00
03FF00
03FF00
03FF00
03FF00
03FF00
03FF00
03FF00
03FF00
03FF00
03FF00
03FF00
03FF00
03FF00
03FF00
03FF00
03FF00
03FF00
03FF00
ENDCHAR
STARTCHAR 00D0
ENCODING 208
SWIDTH 735 0
DWIDTH 50 0
BBX 46 49 0 0
BITMAP
07FFFFC00000
07FFFFFC0000
07FFFFFF8000
07FFFFFFE000
07FFFFFFF000
07FFFFFFFC00
07FFFFFFFE00
07FFFFFFFF00
07FE007FFF80
07FE000FFFC0
07FE0003FFC0
07FE0001FFE0
07FE0000FFE0
07FE00007FF0
07FE00003FF0
07FE00003FF8
07FE00001FF8
07FE00001FF8
07FE00001FF8
07FE00000FFC
07FE00000FFC
FFFFFF800FFC
FFFFFF800FFC
FFFFFF800FFC
FFFFFF800FFC
FFFFFF800FFC
FFFFFF800FFC
07FE00000FFC
07FE00000FFC
07FE00000FFC
07FE00001FF8
07FE00001FF8
07FE00001FF8
07FE00003FF8
07FE00003FF0
07FE00007FF0
07FE0000FFE0
07FE0001FFE0
07FE0003FFC0
07FE000FFFC0
07FE007FFF80
07FFFFFFFF00
07FFFFFFFE00
07FFFFFFFC00
07FFFFFFF000
07FFFFFFE000
07FFFFFF8000
07FFFFFC0000
07FFFFC00000
ENDCHAR
STARTCHAR 00D1
ENCODING 209
SWIDTH 764 0
DWIDTH 52 0
BBX 42 66 5 0
BITMAP
000000070000
0000000F0000
0003F81F0000
0007FFFE0000
000FFFFE0000
001FFFFC0000
001FFFF80000
003E07F00000
003C00000000
000000000000
000000000000
000000000000
000000000000
000000000000
000000000000
000000000000
000000000000
FFFC00007FC0
FFFE00007FC0
FFFE00007FC0
FFFF00007FC0
FFFF00007FC0
FFFF80007FC0
FFFF80007FC0
FFFFC0007FC0
FFFFC0007FC0
FFFFE0007FC0
FFBFE0007FC0
FFBFF0007FC0
FF9FF0007FC0
FF9FF8007FC0
FF8FF8007FC0
FF8FFC007FC0
FF8FFC007FC0
FF87FE007FC0
FF87FE007FC0
FF83FE007FC0
FF83FF007FC0
FF81FF007FC0
FF81FF807FC0
FF80FF807FC0
FF80FFC07FC0
FF807FC07FC0
FF807FE07FC0
FF803FE07FC0
FF803FF07FC0
FF801FF07FC0
FF801FF87FC0
FF800FF87FC0
FF800FFC7FC0
FF8007FC7FC0
FF8007FE7FC0
FF8003FE7FC0
FF8003FF7FC0
FF8001FF7FC0
FF8001FFFFC0
FF8000FFFFC0
FF8000FFFFC0
FF80007FFFC0
FF80007FFFC0
FF80003FFFC0
FF80003FFFC0
FF80001FFFC0
FF80001FFFC0
FF80000FFFC0
FF80000FFFC0
ENDCHAR
STARTCHAR 00D2
ENCODING 210
SWIDTH 794 0
DWIDTH 54 0
BBX 46 69 4 -1
BITMAP
001FF0000000
000FF0000000
0007F8000000
0007F8000000
0003FC000000
0001FC000000
0000FE000000
00007E000000
00003F000000
00001F000000
00001F800000
00000F800000
000000000000
000000000000
000000000000
000000000000
000000000000
000000000000
00007FF80000
0003FFFF0000
000FFFFFC000
003FFFFFF000
00FFFFFFF800
01FFFFFFFE00
03FFFFFFFF00
03FFFFFFFF00
07FFE01FFF80
0FFF8007FFC0
1FFE0001FFC0
1FFC0000FFE0
3FF800007FE0
3FF800007FF0
3FF000003FF0
7FF000003FF8
7FE000001FF8
7FE000001FF8
7FE000001FF8
FFE000001FFC
FFC000000FFC
FFC000000FFC
FFC000000FFC
FFC000000FFC
FFC000000FFC
FFC000000FFC
FFC000000FFC
FFC000000FFC
FFC000000FFC
FFC000000FFC
FFC000000FFC
FFC000001FFC
7FE000001FF8
7FE000001FF8
7FE000001FF8
7FF000003FF8
3FF000003FF0
3FF800007FF0
3FF800007FE0
1FFC0000FFE0
1FFE0001FFC0
0FFF0007FFC0
07FFE01FFF80
07FFFFFFFF00
03FFFFFFFF00
01FFFFFFFE00
00FFFFFFFC00
003FFFFFF000
001FFFFFE000
0003FFFF0000
00007FF80000
ENDCHAR
STARTCHAR 00D3
ENCODING 211
SWIDTH 794 0
DWIDTH 54 0
BBX 46 69 4 -1
BITMAP
0000003FE000
0000003FC000
0000007F8000
0000007F0000
000000FE0000
000000FE0000
000001FC0000
000001F80000
000003F00000
000003E00000
000007C00000
00000F800000
000000000000
000000000000
000000000000
000000000000
000000000000
000000000000
00007FF80000
0003FFFF0000
000FFFFFC000
003FFFFFF000
00FFFFFFF800
01FFFFFFFE00
03FFFFFFFF00
03FFFFFFFF00
07FFE01FFF80
0FFF8007FFC0
1FFE0001FFC0
1FFC0000FFE0
3FF800007FE0
3FF800007FF0
3FF000003FF0
7FF000003FF8
7FE000001FF8
7FE000001FF8
7FE000001FF8
FFE000001FFC
FFC000000FFC
FFC000000FFC
FFC000000FFC
FFC000000FFC
FFC000000FFC
FFC000000FFC
FFC000000FFC
FFC000000FFC
FFC000000FFC
FFC000000FFC
FFC000000FFC
FFC000001FFC
7FE000001FF8
7FE000001FF8
7FE000001FF8
7FF000003FF8
3FF000003FF0
3FF800007FF0
3FF800007FE0
1FFC0000FFE0
1FFE0001FFC0
0FFF0007FFC0
07FFE01FFF80
07FFFFFFFF00
03FFFFFFFF00
01FFFFFFFE00
00FFFFFFFC00
003FFFFFF000
001FFFFFE000
0003FFFF0000
00007FF80000
ENDCHAR
STARTCHAR 00D4
ENCODING 212
SWIDTH 794 0
DWIDTH 54 0
BBX 46 69 4 -1
BITMAP
00003FF00000
00007FF80000
00007FF80000
0000FFFC0000
0000FFFC0000
0001FCFE0000
0001FC7E0000
0003F87F0000
0003F03F0000
0007E01F8000
0007C00F8000
000F8007C000
000000000000
000000000000
000000000000
000000000000
000000000000
000000000000
00007FF80000
0003FFFF0000
000FFFFFC000
003FFFFFF000
00FFFFFFF800
01FFFFFFFE00
03FFFFFFFF00
03FFFFFFFF00
07FFE01FFF80
0FFF8007FFC0
1FFE0001FFC0
1FFC0000FFE0
3FF800007FE0
3FF800007FF0
3FF000003FF0
7FF000003FF8
7FE000001FF8
7FE000001FF8
7FE000001FF8
FFE000001FFC
FFC000000FFC
FFC000000FFC
FFC000000FFC
FFC000000FFC
FFC000000FFC
FFC000000FFC
FFC000000FFC
FFC000000FFC
FFC000000FFC
FFC000000FFC
FFC000000FFC
FFC000001FFC
7FE000001FF8
7FE000001FF8
7FE000001FF8
7FF000003FF8
3FF000003FF0
3FF800007FF0
3FF800007FE0
1FFC0000FFE0
1FFE0001FFC0
0FFF0007FFC0
07FFE01FFF80
07FFFFFFFF00
03FFFFFFFF00
01FFFFFFFE00
00FFFFFFFC00
003FFFFFF000
001FFFFFE000
0003FFFF0000
00007FF80000
ENDCHAR
STARTCHAR 00D5
ENCODING 213
SWIDTH 794 0
DWIDTH 54 0
BBX 46 67 4 -1
BITMAP
00000003C000
00000003C000
0000FE07C000
0001FFFF8000
0003FFFF8000
0007FFFF0000
0007FFFE0000
000F81F80000
000F00000000
000000000000
000000000000
000000000000
000000000000
000000000000
000000000000
000000000000
00007FF80000
0003FFFF0000
000FFFFFC000
003FFFFFF000
00FFFFFFF800
01FFFFFFFE00
03FFFFFFFF00
03FFFFFFFF00
07FFE01FFF80
0FFF8007FFC0
1FFE0001FFC0
1FFC0000FFE0
3FF800007FE0
3FF800007FF0
3FF000003FF0
7FF000003FF8
7FE000001FF8
7FE000001FF8
7FE000001FF8
FFE000001FFC
FFC000000FFC
FFC000000FFC
FFC000000FFC
FFC000000FFC
FFC000000FFC
FFC000000FFC
FFC000000FFC
FFC000000FFC
FFC000000FFC
FFC000000FFC
FFC000000FFC
FFC000001FFC
7FE000001FF8
7FE000001FF8
7FE000001FF8
7FF000003FF8
3FF000003FF0
3FF800007FF0
3FF800007FE0
1FFC0000FFE0
1FFE0001FFC0
0FFF0007FFC0
07FFE01FFF80
07FFFFFFFF00
03FFFFFFFF00
01FFFFFFFE00
00FFFFFFFC00
003FFFFFF000
001FFFFFE000
0003FFFF0000
00007FF80000
ENDCHAR
STARTCHAR 00D6
ENCODING 214
SWIDTH 794 0
DWIDTH 54 0
BBX 46 67 4 -1
BITMAP
0007F01FC000
0007F01FC000
0007F01FC000
0007F01FC000
0007F01FC000
0007F01FC000
0007F01FC000
0007F01FC000
000000000000
000000000000
000000000000
000000000000
000000000000
000000000000
000000000000
000000000000
00007FF80000
0003FFFF0000
000FFFFFC000
003FFFFFF000
00FFFFFFF800
01FFFFFFFE00
03FFFFFFFF00
03FFFFFFFF00
07FFE01FFF80
0FFF8007FFC0
1FFE0001FFC0
1FFC0000FFE0
3FF800007FE0
3FF800007FF0
3FF000003FF0
7FF000003FF8
7FE000001FF8
7FE000001FF8
7FE000001FF8
FFE000001FFC
FFC000000FFC
FFC000000FFC
FFC000000FFC
FFC000000FFC
FFC000000FFC
FFC000000FFC
FFC000000FFC
FFC000000FFC
FFC000000FFC
FFC000000FFC
FFC000000FFC
FFC000001FFC
7FE000001FF8
7FE000001FF8
7FE000001FF8
7FF000003FF8
3FF000003FF0
3FF800007FF0
3FF800007FE0
1FFC0000FFE0
1FFE0001FFC0
0FFF0007FFC0
07FFE01FFF80
07FFFFFFFF00
03FFFFFFFF00
01FFFFFFFE00
00FFFFFFFC00
003FFFFFF000
001FFFFFE000
0003FFFF0000
00007FF80000
ENDCHAR
STARTCHAR 00D7
ENCODING 215
SWIDTH 1000 0
DWIDTH 68 0
BBX 36 37 16 2
BITMAP
2000000040
70000000E0
F8000001F0
FC000003F0
7E000007E0
3F00000FC0
1F80001F80
0FC0003F00
07E0007E00
03F000FC00
01F801F800
00FC03F000
007E07E000
003F0FC000
001F9F8000
000FFF0000
0007FE0000
0003FC0000
0001F80000
0003FC0000
0007FE0000
000FFF0000
001F9F8000
003F0FC000
007E07E000
00FC03F000
01F801F800
03F000FC00
07E0007E00
0FC0003F00
1F80001F80
3F00000FC0
7E000007E0
FC000003F0
F8000001F0
70000000E0
2000000040
ENDCHAR
STARTCHAR 00D8
ENCODING 216
SWIDTH 794 0
DWIDTH 54 0
BBX 50 56 2 -4
BITMAP
00000000000200
00000000000300
00000000000780
00000FFC000FC0
0000FFFFC01FC0
0003FFFFF03F80
000FFFFFFC7F00
003FFFFFFE7F00
007FFFFFFFFE00
00FFFFFFFFFC00
00FFFFFFFFF800
01FFF807FFF000
03FFE001FFF000
07FF80007FF000
07FF00003FF800
0FFE00007FF800
0FFE0000FFFC00
0FFC0001FFFC00
1FFC0001FFFE00
1FF80003FFFE00
1FF80007F7FE00
1FF8000FE7FE00
3FF8001FC7FE00
3FF0003F83FF00
3FF0007F03FF00
3FF000FF03FF00
3FF001FE03FF00
3FF003FC03FF00
3FF007F803FF00
3FF00FF003FF00
3FF01FE003FF00
3FF03FC003FF00
3FF03F8003FF00
3FF07F0003FF00
3FF0FE0007FF00
1FF9FC0007FE00
1FFBF80007FE00
1FFFF00007FE00
1FFFE0000FFE00
0FFFE0000FFC00
0FFFC0001FFC00
0FFF80001FF800
07FF00003FF800
07FF80007FF000
03FFE001FFF000
03FFF807FFE000
07FFFFFFFFC000
0FFFFFFFFFC000
1FFFFFFFFF8000
3FBFFFFFFF0000
7F8FFFFFFC0000
7F03FFFFF00000
FE00FFFFC00000
FC001FFE000000
78000000000000
30000000000000
ENDCHAR
STARTCHAR 00D9
ENCODING 217
SWIDTH 764 0
DWIDTH 52 0
BBX 42 69 5 -1
BITMAP
007FC0000000
003FC0000000
001FE0000000
001FE0000000
000FF0000000
0007F0000000
0003F8000000
0001F8000000
0000FC000000
00007C000000
00007E000000
00003E000000
000000000000
000000000000
000000000000
000000000000
000000000000
000000000000
000000000000
FFC00000FFC0
FFC00000FFC0
FFC00000FFC0
FFC00000FFC0
FFC00000FFC0
FFC00000FFC0
FFC00000FFC0
FFC00000FFC0
FFC00000FFC0
FFC00000FFC0
FFC00000FFC0
FFC00000FFC0
FFC00000FFC0
FFC00000FFC0
FFC00000FFC0
FFC00000FFC0
FFC00000FFC0
FFC00000FFC0
FFC00000FFC0
FFC00000FFC0
FFC00000FFC0
FFC00000FFC0
FFC00000FFC0
FFC00000FFC0
FFC00000FFC0
FFC00000FFC0
FFC00000FFC0
FFC00000FFC0
FFC00000FFC0
FFC00000FFC0
FFC00000FFC0
FFC00000FFC0
FFC00000FFC0
FFC00000FFC0
7FE00001FF80
7FE00001FF80
7FE00001FF80
7FF00003FF80
3FF80007FF00
3FF8000FFF00
1FFE001FFE00
1FFF807FFC00
0FFFFFFFFC00
07FFFFFFF800
07FFFFFFF000
03FFFFFFE000
00FFFFFFC000
007FFFFF0000
000FFFFC0000
0001FFC00000
ENDCHAR
STARTCHAR 00DA
ENCODING 218
SWIDTH 764 0
DWIDTH 52 0
BBX 42 69 5 -1
BITMAP
000000FF8000
000000FF0000
000001FE0000
000001FC0000
000003F80000
000003F80000
000007F00000
00000FE00000
00000FC00000
00001F800000
00001F000000
00003E000000
000000000000
000000000000
000000000000
000000000000
000000000000
000000000000
000000000000
FFC00000FFC0
FFC00000FFC0
FFC00000FFC0
FFC00000FFC0
FFC00000FFC0
FFC00000FFC0
FFC00000FFC0
FFC00000FFC0
FFC00000FFC0
FFC00000FFC0
FFC00000FFC0
FFC00000FFC0
FFC00000FFC0
FFC00000FFC0
FFC00000FFC0
FFC00000FFC0
FFC00000FFC0
FFC00000FFC0
FFC00000FFC0
FFC00000FFC0
FFC00000FFC0
FFC00000FFC0
FFC00000FFC0
FFC00000FFC0
FFC00000FFC0
FFC00000FFC0
FFC00000FFC0
FFC00000FFC0
FFC00000FFC0
FFC00000FFC0
FFC00000FFC0
FFC00000FFC0
FFC00000FFC0
FFC00000FFC0
7FE00001FF80
7FE00001FF80
7FE00001FF80
7FF00003FF80
3FF80007FF00
3FF8000FFF00
1FFE001FFE00
1FFF807FFC00
0FFFFFFFFC00
07FFFFFFF800
07FFFFFFF000
03FFFFFFE000
00FFFFFFC000
007FFFFF0000
000FFFFC0000
0001FFC00000
ENDCHAR
STARTCHAR 00DB
ENCODING 219
SWIDTH 764 0
DWIDTH 52 0
BBX 42 69 5 -1
BITMAP
0000FFC00000
0001FFC00000
0001FFE00000
0003FFE00000
0007FFF00000
0007F7F00000
000FE3F80000
000FC1F80000
001F80FC0000
001F807E0000
003F003E0000
003E003F0000
000000000000
000000000000
000000000000
000000000000
000000000000
000000000000
000000000000
FFC00000FFC0
FFC00000FFC0
FFC00000FFC0
FFC00000FFC0
FFC00000FFC0
FFC00000FFC0
FFC00000FFC0
FFC00000FFC0
FFC00000FFC0
FFC00000FFC0
FFC00000FFC0
FFC00000FFC0
FFC00000FFC0
FFC00000FFC0
FFC00000FFC0
FFC00000FFC0
FFC00000FFC0
FFC00000FFC0
FFC00000FFC0
FFC00000FFC0
FFC00000FFC0
FFC00000FFC0
FFC00000FFC0
FFC00000FFC0
FFC00000FFC0
FFC00000FFC0
FFC00000FFC0
FFC00000FFC0
FFC00000FFC0
FFC00000FFC0
FFC00000FFC0
FFC00000FFC0
FFC00000FFC0
FFC00000FFC0
7FE00001FF80
7FE00001FF80
7FE00001FF80
7FF00003FF80
3FF80007FF00
3FF8000FFF00
1FFE001FFE00
1FFF807FFC00
0FFFFFFFFC00
07FFFFFFF800
07FFFFFFF000
03FFFFFFE000
00FFFFFFC000
007FFFFF0000
000FFFFC0000
0001FFC00000
ENDCHAR
STARTCHAR 00DC
ENCODING 220
SWIDTH 735 0
DWIDTH 50 0
BBX 42 67 4 -1
BITMAP
003FC0FF0000
003FC0FF0000
003FC0FF0000
003FC0FF0000
003FC0FF0000
003FC0FF0000
003FC0FF0000
003FC0FF0000
000000000000
000000000000
000000000000
000000000000
000000000000
000000000000
000000000000
000000000000
000000000000
FFC00000FFC0
FFC00000FFC0
FFC00000FFC0
FFC00000FFC0
FFC00000FFC0
FFC00000FFC0
FFC00000FFC0
FFC00000FFC0
FFC00000FFC0
FFC00000FFC0
FFC00000FFC0
FFC00000FFC0
FFC00000FFC0
FFC00000FFC0
FFC00000FFC0
FFC00000FFC0
FFC00000FFC0
FFC00000FFC0
FFC00000FFC0
FFC00000FFC0
FFC00000FFC0
FFC00000FFC0
FFC00000FFC0
FFC00000FFC0
FFC00000FFC0
FFC00000FFC0
FFC00000FFC0
FFC00000FFC0
FFC00000FFC0
FFC00000FFC0
FFC00000FFC0
FFC00000FFC0
FFC00000FFC0
FFC00001FFC0
7FE00001FF80
7FE00001FF80
7FE00001FF80
7FF00003FF80
3FF80007FF00
3FF8000FFF00
1FFE001FFE00
1FFF807FFC00
0FFFFFFFFC00
07FFFFFFF800
07FFFFFFF000
03FFFFFFE000
00FFFFFFC000
007FFFFF0000
000FFFFC0000
0001FFC00000
ENDCHAR
STARTCHAR 00DD
ENCODING 221
SWIDTH 647 0
DWIDTH 44 0
BBX 42 68 1 0
BITMAP
000001FF0000
000001FE0000
000003FC0000
000003FC0000
000007F80000
000007F00000
00000FE00000
00000FC00000
00000F800000
00001F800000
00001F000000
00003E000000
000000000000
000000000000
000000000000
000000000000
000000000000
000000000000
000000000000
FFE00001FFC0
FFF00003FFC0
7FF00003FF80
7FF80007FF80
3FF80007FF00
3FFC000FFE00
1FFC000FFE00
0FFE001FFC00
0FFE001FFC00
07FF003FF800
07FF003FF800
03FF807FF000
03FF807FF000
01FF80FFE000
01FFC0FFE000
00FFC1FFC000
00FFE1FFC000
007FE3FF8000
003FF3FF0000
003FF3FF0000
001FFFFE0000
001FFFFE0000
000FFFFC0000
000FFFFC0000
0007FFF80000
0007FFF80000
0003FFF00000
0003FFF00000
0001FFE00000
0001FFE00000
0000FFC00000
0000FFC00000
0000FFC00000
0000FFC00000
0000FFC00000
0000FFC00000
0000FFC00000
0000FFC00000
0000FFC00000
0000FFC00000
0000FFC00000
0000FFC00000
0000FFC00000
0000FFC00000
0000FFC00000
0000FFC00000
0000FFC00000
0000FFC00000
0000FFC00000
ENDCHAR
STARTCHAR 00DE
ENCODING 222
SWIDTH 661 0
DWIDTH 45 0
BBX 36 49 4 0
BITMAP
FFC0000000
FFC0000000
FFC0000000
FFC0000000
FFC0000000
FFC0000000
FFC0000000
FFC0000000
FFFFFE0000
FFFFFFE000
FFFFFFF800
FFFFFFFE00
FFFFFFFF00
FFFFFFFF80
FFFFFFFFC0
FFFFFFFFC0
FFC007FFE0
FFC001FFE0
FFC0007FE0
FFC0007FF0
FFC0003FF0
FFC0003FF0
FFC0003FF0
FFC0003FF0
FFC0003FF0
FFC0003FF0
FFC0007FF0
FFC0007FE0
FFC000FFE0
FFC007FFE0
FFFFFFFFC0
FFFFFFFFC0
FFFFFFFF80
FFFFFFFF00
FFFFFFFE00
FFFFFFF800
FFFFFFE000
FFFFFE0000
FFC0000000
FFC0000000
FFC0000000
FFC0000000
FFC0000000
FFC0000000
FFC0000000
FFC0000000
FFC0000000
FFC0000000
FFC0000000
ENDCHAR
STARTCHAR 00DF
ENCODING 223
SWIDTH 573 0
DWIDTH 39 0
BBX 35 51 3 -1
BITMAP
003FF00000
01FFFF0000
07FFFFC000
0FFFFFE000
1FFFFFF000
3FFFFFF800
7FF01FF800
7FE00FFC00
7FC007FC00
FFC007FC00
FF8007FC00
FF8007FC00
FF8007FC00
FF800FFC00
FF800FF800
FF801FF800
FF803FF000
FF803FE000
FF80FFE000
FF80FF8000
FF81FF0000
FF83FE0000
FF87FE0000
FF87FC0000
FF87FC0000
FF87FC0000
FF87FE0000
FF87FF8000
FF83FFC000
FF83FFF000
FF81FFFC00
FF80FFFE00
FF803FFF00
FF800FFF80
FF8007FF80
FF8001FFC0
FF8000FFC0
FF80007FE0
FF80003FE0
FF80003FE0
FF80003FE0
FF9FE03FE0
FF9FE03FE0
FF9FF07FE0
FF9FF87FE0
FF8FFFFFC0
FF8FFFFFC0
FF87FFFF80
FF83FFFF00
FF81FFFC00
00003FE000
ENDCHAR
STARTCHAR 00E0
ENCODING 224
SWIDTH 544 0
DWIDTH 37 0
BBX 31 54 3 -1
BITMAP
0FF80000
07F80000
03FC0000
01FC0000
00FE0000
00FE0000
007F0000
003F0000
001F8000
000F8000
0007C000
0003C000
00000000
00000000
00000000
00000000
00000000
00000000
001FF800
00FFFF00
03FFFFC0
07FFFFE0
0FFFFFF0
1FFFFFF8
3FF81FF8
3FE00FFC
3FE007FC
7FE007FC
7FC007FC
000007FC
000007FC
001FFFFC
01FFFFFC
07FFFFFC
0FFFFFFC
1FFFFFFC
3FFC07FC
7FF007FC
7FE007FC
7FC007FC
FFC007FC
FF8007FC
FF8007FC
FF800FFC
FF800FFC
FFC00FFC
FFE01FFC
7FF07FFE
7FFFFFFE
3FFFFBFE
1FFFF3FE
0FFFE3FE
07FFC1FE
00FE0000
ENDCHAR
STARTCHAR 00E1
ENCODING 225
SWIDTH 544 0
DWIDTH 37 0
BBX 31 54 3 -1
BITMAP
00003FE0
00003FC0
00007F80
00007F00
0000FE00
0000FE00
0001FC00
0001F800
0003F000
0007E000
0007C000
000F8000
00000000
00000000
00000000
00000000
00000000
00000000
001FF800
00FFFF00
03FFFFC0
07FFFFE0
0FFFFFF0
1FFFFFF8
3FF81FF8
3FE00FFC
3FE007FC
7FE007FC
7FC007FC
000007FC
000007FC
001FFFFC
01FFFFFC
07FFFFFC
0FFFFFFC
1FFFFFFC
3FFC07FC
7FF007FC
7FE007FC
7FC007FC
FFC007FC
FF8007FC
FF8007FC
FF800FFC
FF800FFC
FFC00FFC
FFE01FFC
7FF07FFE
7FFFFFFE
3FFFFBFE
1FFFF3FE
0FFFE3FE
07FFC1FE
00FE0000
ENDCHAR
STARTCHAR 00E2
ENCODING 226
SWIDTH 544 0
DWIDTH 37 0
BBX 31 54 3 -1
BITMAP
001FF800
003FF800
003FFC00
007FFC00
007FFE00
00FEFE00
00FC7F00
01F83F00
01F01F80
03F00F80
03E00FC0
07C007C0
00000000
00000000
00000000
00000000
00000000
00000000
001FF800
00FFFF00
03FFFFC0
07FFFFE0
0FFFFFF0
1FFFFFF8
3FF81FF8
3FE00FFC
3FE007FC
7FE007FC
7FC007FC
000007FC
000007FC
001FFFFC
01FFFFFC
07FFFFFC
0FFFFFFC
1FFFFFFC
3FFC07FC
7FF007FC
7FE007FC
7FC007FC
FFC007FC
FF8007FC
FF8007FC
FF800FFC
FF800FFC
FFC00FFC
FFE01FFC
7FF07FFE
7FFFFFFE
3FFFFBFE
1FFFF3FE
0FFFE3FE
07FFC1FE
00FE0000
ENDCHAR
STARTCHAR 00E3
ENCODING 227
SWIDTH 544 0
DWIDTH 37 0
BBX 31 51 3 -1
BITMAP
000001C0
007F03C0
01FFFFC0
01FFFF80
03FFFF80
07FFFF00
0780FC00
07800000
00000000
00000000
00000000
00000000
00000000
00000000
00000000
001FF800
00FFFF00
03FFFFC0
07FFFFE0
0FFFFFF0
1FFFFFF8
3FF81FF8
3FE00FFC
3FE007FC
7FE007FC
7FC007FC
000007FC
000007FC
001FFFFC
01FFFFFC
07FFFFFC
0FFFFFFC
1FFFFFFC
3FFC07FC
7FF007FC
7FE007FC
7FC007FC
FFC007FC
FF8007FC
FF8007FC
FF800FFC
FF800FFC
FFC00FFC
FFE01FFC
7FF07FFE
7FFFFFFE
3FFFFBFE
1FFFF3FE
0FFFE3FE
07FFC1FE
00FE0000
ENDCHAR
STARTCHAR 00E4
ENCODING 228
SWIDTH 544 0
DWIDTH 37 0
BBX 31 52 3 -1
BITMAP
07F01FC0
07F01FC0
07F01FC0
07F01FC0
07F01FC0
07F01FC0
07F01FC0
07F01FC0
00000000
00000000
00000000
00000000
00000000
00000000
00000000
00000000
001FF800
00FFFF00
03FFFFC0
07FFFFE0
0FFFFFF0
1FFFFFF8
3FF01FF8
3FE00FFC
3FE007FC
7FC007FC
7FC007FC
000007FC
000007FC
001FFFFC
01FFFFFC
07FFFFFC
0FFFFFFC
1FFFFFFC
3FFC07FC
7FF007FC
7FE007FC
7FC007FC
FFC007FC
FF8007FC
FF8007FC
FF800FFC
FF800FFC
FFC00FFC
FFE01FFC
7FF07FFE
7FFFFFFE
3FFFFBFE
1FFFF3FE
0FFFE3FE
07FF81FE
00FE0000
ENDCHAR
STARTCHAR 00E5
ENCODING 229
SWIDTH 544 0
DWIDTH 37 0
BBX 31 58 3 -1
BITMAP
0007E000
001FF800
003FFC00
007FFE00
007C3E00
00F81F00
00F00F00
00F00F00
00F00F00
00F00F00
00F81F00
007C3E00
007FFE00
003FFC00
001FF800
0007E000
00000000
00000000
00000000
00000000
00000000
00000000
001FF800
00FFFF00
03FFFFC0
07FFFFE0
0FFFFFF0
1FFFFFF8
3FF81FF8
3FF00FFC
3FE007FC
7FE007FC
7FE007FC
000007FC
000007FC
001FFFFC
01FFFFFC
07FFFFFC
0FFFFFFC
1FFFFFFC
3FFC07FC
7FF007FC
7FE007FC
7FC007FC
FFC007FC
FF8007FC
FF8007FC
FF800FFC
FF800FFC
FFC00FFC
FFE01FFC
7FF07FFE
7FFFFFFE
3FFFFFFE
1FFFF3FE
0FFFE1FE
07FFC1FE
00FE0000
ENDCHAR
STARTCHAR 00E6
ENCODING 230
SWIDTH 882 0
DWIDTH 60 0
BBX 54 36 3 -1
BITMAP
001FF0001FF000
00FFFE00FFFC00
03FFFF81FFFF00
0FFFFFC3FFFF80
1FFFFFE7FFFFC0
3FFFFFFFFFFFE0
3FF80FFFE03FF0
7FE007FFC01FF0
7FE003FF800FF8
7FC003FF800FF8
000001FF0007F8
000001FF0007F8
000001FF0007FC
001FFFFF0007FC
00FFFFFFFFFFFC
07FFFFFFFFFFFC
0FFFFFFFFFFFFC
1FFFFFFFFFFFFC
3FFFE1FFFFFFFC
7FF801FF000000
7FE001FF000000
7FC001FF000000
FFC003FF000000
FF8003FF800000
FF8003FF800000
FF8003FF8007FC
FF8007FFC00FF8
FFC007FFC00FF8
FFE00FFFE01FF8
7FF81FEFF03FF0
7FFFFFC7FFFFF0
3FFFFF87FFFFE0
1FFFFE03FFFFC0
0FFFFC00FFFF80
03FFF0007FFE00
007F80001FF000
ENDCHAR
STARTCHAR 00E7
ENCODING 231
SWIDTH 514 0
DWIDTH 35 0
BBX 29 52 3 -17
BITMAP
001FF000
00FFFE00
01FFFF80
07FFFFC0
0FFFFFE0
1FFFFFE0
1FF83FF0
3FE01FF0
3FE01FF8
7FC00FF8
7FC00FF8
7FC00FF8
7F800FF8
FF800000
FF800000
FF800000
FF800000
FF800000
FF800000
FF800000
FF800000
FF800000
FF800000
FF800FF8
7F800FF8
7FC00FF8
7FC00FF8
7FC01FF8
3FE01FF0
3FF03FF0
1FFFFFE0
0FFFFFE0
07FFFFC0
03FFFF80
01FFFE00
003FF000
000E0000
000E0000
000E0000
000FF000
000FFC00
000FFE00
0000FF00
00003F80
00001F80
00001F80
00001F80
00C03F80
00FFFF00
00FFFE00
00FFFC00
007FE000
ENDCHAR
STARTCHAR 00E8
ENCODING 232
SWIDTH 558 0
DWIDTH 38 0
BBX 32 54 3 -1
BITMAP
0FF80000
07F80000
03FC0000
01FE0000
00FE0000
007F0000
007F0000
003F8000
001F8000
000FC000
0007C000
0003E000
00000000
00000000
00000000
00000000
00000000
00000000
000FF800
007FFE00
01FFFF80
03FFFFE0
07FFFFF0
0FFFFFF0
1FF81FF8
3FE00FF8
3FE007FC
7FC007FC
7FC003FE
7F8003FE
7F8003FE
FF8003FE
FFFFFFFE
FFFFFFFE
FFFFFFFE
FFFFFFFF
FFFFFFFF
FFFFFFFF
FF800000
FF800000
FF800000
FF800000
7FC003FE
7FC007FE
7FC007FE
3FE007FC
3FE00FFC
1FF81FFC
1FFFFFF8
0FFFFFF0
07FFFFE0
03FFFFC0
00FFFF00
001FF800
ENDCHAR
STARTCHAR 00E9
ENCODING 233
SWIDTH 558 0
DWIDTH 38 0
BBX 32 54 3 -1
BITMAP
00003FE0
00003FC0
00007F80
00007F00
0000FF00
0000FE00
0001FC00
0001F800
0003F000
0007E000
0007C000
000F8000
00000000
00000000
00000000
00000000
00000000
00000000
000FF800
007FFE00
01FFFF80
03FFFFE0
07FFFFF0
0FFFFFF0
1FF81FF8
3FE00FF8
3FE007FC
7FC007FC
7FC003FE
7F8003FE
7F8003FE
FF8003FE
FFFFFFFE
FFFFFFFE
FFFFFFFE
FFFFFFFF
FFFFFFFF
FFFFFFFF
FF800000
FF800000
FF800000
FF800000
7FC003FE
7FC007FE
7FC007FE
3FE007FC
3FE00FFC
1FF81FFC
1FFFFFF8
0FFFFFF0
07FFFFE0
03FFFFC0
00FFFF00
001FF800
ENDCHAR
STARTCHAR 00EA
ENCODING 234
SWIDTH 558 0
DWIDTH 38 0
BBX 32 54 3 -1
BITMAP
001FF800
003FF800
003FFC00
007FFC00
007FFE00
00FEFE00
00FC7F00
01F83F00
01F01F80
03F00F80
03E007C0
07C003C0
00000000
00000000
00000000
00000000
00000000
00000000
000FF800
007FFE00
01FFFF80
03FFFFE0
07FFFFF0
0FFFFFF0
1FF81FF8
3FE00FF8
3FE007FC
7FC007FC
7FC003FE
7F8003FE
7F8003FE
FF8003FE
FFFFFFFE
FFFFFFFE
FFFFFFFE
FFFFFFFF
FFFFFFFF
FFFFFFFF
FF800000
FF800000
FF800000
FF800000
7FC003FE
7FC007FE
7FC007FE
3FE007FC
3FE00FFC
1FF81FFC
1FFFFFF8
0FFFFFF0
07FFFFE0
03FFFFC0
00FFFF00
001FF800
ENDCHAR
STARTCHAR 00EB
ENCODING 235
SWIDTH 558 0
DWIDTH 38 0
BBX 32 52 3 -1
BITMAP
07F01FC0
07F01FC0
07F01FC0
07F01FC0
07F01FC0
07F01FC0
07F01FC0
07F01FC0
00000000
00000000
00000000
00000000
00000000
00000000
00000000
00000000
000FF800
007FFE00
01FFFF80
03FFFFE0
07FFFFF0
0FFFFFF0
1FF03FF8
3FE00FF8
3FC00FFC
7FC007FC
7FC007FE
7F8007FE
7F8007FE
FF8003FE
FFFFFFFE
FFFFFFFE
FFFFFFFE
FFFFFFFF
FFFFFFFF
FFFFFFFF
FF800000
FF800000
FF800000
FF800000
7FC007FE
7FC007FE
7FC007FC
3FE00FFC
3FE00FFC
1FF83FF8
1FFFFFF8
0FFFFFF0
07FFFFE0
03FFFFC0
00FFFF00
001FF800
ENDCHAR
STARTCHAR 00EC
ENCODING 236
SWIDTH 264 0
DWIDTH 18 0
BBX 15 53 -2 0
BITMAP
FF80
7F80
3FC0
1FC0
0FE0
0FE0
07F0
03F8
01F8
00FC
007C
003E
0000
0000
0000
0000
0000
0000
0000
03FE
03FE
03FE
03FE
03FE
03FE
03FE
03FE
03FE
03FE
03FE
03FE
03FE
03FE
03FE
03FE
03FE
03FE
03FE
03FE
03FE
03FE
03FE
03FE
03FE
03FE
03FE
03FE
03FE
03FE
03FE
03FE
03FE
03FE
ENDCHAR
STARTCHAR 00ED
ENCODING 237
SWIDTH 220 0
DWIDTH 15 0
BBX 15 53 3 0
BITMAP
03FE
07FC
07F8
0FF0
0FE0
1FC0
1FC0
3F80
3F00
7E00
7C00
F800
0000
0000
0000
0000
0000
0000
0000
7FC0
7FC0
7FC0
7FC0
7FC0
7FC0
7FC0
7FC0
7FC0
7FC0
7FC0
7FC0
7FC0
7FC0
7FC0
7FC0
7FC0
7FC0
7FC0
7FC0
7FC0
7FC0
7FC0
7FC0
7FC0
7FC0
7FC0
7FC0
7FC0
7FC0
7FC0
7FC0
7FC0
7FC0
ENDCHAR
STARTCHAR 00EE
ENCODING 238
SWIDTH 264 0
DWIDTH 18 0
BBX 21 53 -2 0
BITMAP
07FF00
07FF00
0FFF80
0FFF80
1FFFC0
1FDFC0
3F8FE0
3F07E0
7E03F0
7E01F0
FC01F8
F800F8
000000
000000
000000
000000
000000
000000
000000
03FE00
03FE00
03FE00
03FE00
03FE00
03FE00
03FE00
03FE00
03FE00
03FE00
03FE00
03FE00
03FE00
03FE00
03FE00
03FE00
03FE00
03FE00
03FE00
03FE00
03FE00
03FE00
03FE00
03FE00
03FE00
03FE00
03FE00
03FE00
03FE00
03FE00
03FE00
03FE00
03FE00
03FE00
ENDCHAR
STARTCHAR 00EF
ENCODING 239
SWIDTH 264 0
DWIDTH 18 0
BBX 22 51 -2 0
BITMAP
FF03FC
FF03FC
FF03FC
FF03FC
FF03FC
FF03FC
FF03FC
FF03FC
000000
000000
000000
000000
000000
000000
000000
000000
000000
03FE00
03FE00
03FE00
03FE00
03FE00
03FE00
03FE00
03FE00
03FE00
03FE00
03FE00
03FE00
03FE00
03FE00
03FE00
03FE00
03FE00
03FE00
03FE00
03FE00
03FE00
03FE00
03FE00
03FE00
03FE00
03FE00
03FE00
03FE00
03FE00
03FE00
03FE00
03FE00
03FE00
03FE00
ENDCHAR
STARTCHAR 00F0
ENCODING 240
SWIDTH 602 0
DWIDTH 41 0
BBX 35 52 3 -1
BITMAP
0000000300
001E000F00
007F803F00
00FFE0FF80
001FFBFE00
000FFFF800
0003FFE000
0001FF8000
0007FF8000
001FFFC000
00FFFFE000
03FF1FE000
0FFC0FF000
07F00FF800
078007F800
020007FC00
0007FFFE00
007FFFFE00
01FFFFFF00
03FFFFFF00
07FFFFFF00
0FFFFFFF80
1FFC07FF80
1FF801FF80
3FF001FFC0
3FE000FFC0
7FE0007FC0
7FC0007FC0
7FC0007FE0
FFC0007FE0
FF80003FE0
FF80003FE0
FF80003FE0
FF80003FE0
FF80003FE0
FF80003FE0
FF80003FE0
FF80003FE0
FFC0007FE0
7FC0007FC0
7FC0007FC0
7FE0007FC0
3FE000FFC0
3FF001FF80
1FF801FF80
1FFC07FF00
0FFFFFFE00
07FFFFFC00
03FFFFF800
00FFFFF000
003FFFC000
0007FE0000
ENDCHAR
STARTCHAR 00F1
ENCODING 241
SWIDTH 588 0
DWIDTH 40 0
BBX 32 51 4 0
BITMAP
000001E0
000001E0
007F03E0
00FFFFC0
01FFFFC0
03FFFF80
03FFFF00
07C0FC00
07800000
00000000
00000000
00000000
00000000
00000000
00000000
00000000
0000FF00
FF87FFE0
FF8FFFF0
FF9FFFF8
FFBFFFFC
FFFFFFFE
FFFC1FFE
FFF007FE
FFE007FF
FFE003FF
FFC003FF
FFC003FF
FFC001FF
FF8001FF
FF8001FF
FF8001FF
FF8001FF
FF8001FF
FF8001FF
FF8001FF
FF8001FF
FF8001FF
FF8001FF
FF8001FF
FF8001FF
FF8001FF
FF8001FF
FF8001FF
FF8001FF
FF8001FF
FF8001FF
FF8001FF
FF8001FF
FF8001FF
FF8001FF
ENDCHAR
STARTCHAR 00F2
ENCODING 242
SWIDTH 602 0
DWIDTH 41 0
BBX 35 54 3 -1
BITMAP
03FE000000
01FE000000
00FF000000
007F000000
003F800000
003F800000
001FC00000
000FC00000
0007E00000
0003E00000
0001F00000
0000F00000
0000000000
0000000000
0000000000
0000000000
0000000000
0000000000
0007FC0000
003FFF8000
00FFFFE000
01FFFFF000
07FFFFF800
0FFFFFFC00
0FFC07FE00
1FF803FF00
3FF001FF80
3FE000FF80
7FE000FFC0
7FC0007FC0
7FC0007FC0
FFC0007FE0
FF80003FE0
FF80003FE0
FF80003FE0
FF80003FE0
FF80003FE0
FF80003FE0
FF80003FE0
FF80003FE0
FFC0007FE0
7FC0007FC0
7FC0007FC0
7FE000FFC0
3FE000FF80
3FF001FF80
1FF803FF00
0FFC07FE00
0FFFFFFC00
07FFFFFC00
01FFFFF000
00FFFFE000
003FFF8000
0007FC0000
ENDCHAR
STARTCHAR 00F3
ENCODING 243
SWIDTH 602 0
DWIDTH 41 0
BBX 35 54 3 -1
BITMAP
00000FF800
00001FF000
00001FE000
00003FC000
00003F8000
00007F0000
00007F0000
0000FE0000
0000FC0000
0001F80000
0001F00000
0003E00000
0000000000
0000000000
0000000000
0000000000
0000000000
0000000000
0007FC0000
003FFF8000
00FFFFE000
01FFFFF000
07FFFFF800
0FFFFFFC00
0FFC07FE00
1FF803FF00
3FF001FF80
3FE000FF80
7FE000FFC0
7FC0007FC0
7FC0007FC0
FFC0007FE0
FF80003FE0
FF80003FE0
FF80003FE0
FF80003FE0
FF80003FE0
FF80003FE0
FF80003FE0
FF80003FE0
FFC0007FE0
7FC0007FC0
7FC0007FC0
7FE000FFC0
3FE000FF80
3FF001FF80
1FF803FF00
0FFC07FE00
0FFFFFFC00
07FFFFFC00
01FFFFF000
00FFFFE000
003FFF8000
0007FC0000
ENDCHAR
STARTCHAR 00F4
ENCODING 244
SWIDTH 602 0
DWIDTH 41 0
BBX 35 54 3 -1
BITMAP
0007FE0000
000FFE0000
000FFF0000
001FFF0000
003FFF8000
003FBF8000
007F1FC000
007E0FC000
00FC07E000
00FC03E000
01F803F000
01F001F000
0000000000
0000000000
0000000000
0000000000
0000000000
0000000000
0007FC0000
003FFF8000
00FFFFE000
01FFFFF000
07FFFFF800
0FFFFFFC00
0FFC07FE00
1FF803FF00
3FF001FF80
3FE000FF80
7FE000FFC0
7FC0007FC0
7FC0007FC0
FFC0007FE0
FF80003FE0
FF80003FE0
FF80003FE0
FF80003FE0
FF80003FE0
FF80003FE0
FF80003FE0
FF80003FE0
FFC0007FE0
7FC0007FC0
7FC0007FC0
7FE000FFC0
3FE000FF80
3FF001FF80
1FF803FF00
0FFC07FE00
0FFFFFFC00
07FFFFFC00
01FFFFF000
00FFFFE000
003FFF8000
0007FC0000
ENDCHAR
STARTCHAR 00F5
ENCODING 245
SWIDTH 588 0
DWIDTH 40 0
BBX 35 52 3 -1
BITMAP
0000007000
0000007000
001FC0F000
007FFFF000
00FFFFE000
00FFFFE000
01FFFFC000
01E07F0000
01C0000000
0000000000
0000000000
0000000000
0000000000
0000000000
0000000000
0000000000
0007FC0000
003FFF8000
00FFFFE000
01FFFFF000
07FFFFF800
0FFFFFFC00
0FFC07FE00
1FF803FF00
3FF001FF80
3FE000FF80
7FE000FFC0
7FC0007FC0
7FC0007FC0
FFC0007FE0
FF80003FE0
FF80003FE0
FF80003FE0
FF80003FE0
FF80003FE0
FF80003FE0
FF80003FE0
FF80003FE0
FFC0007FE0
7FC0007FC0
7FC0007FC0
7FE000FFC0
3FE000FF80
3FF001FF80
1FF803FF00
0FFC07FE00
0FFFFFFC00
07FFFFFC00
01FFFFF000
00FFFFE000
003FFF8000
0007FC0000
ENDCHAR
STARTCHAR 00F6
ENCODING 246
SWIDTH 602 0
DWIDTH 41 0
BBX 35 52 3 -1
BITMAP
03FC07F800
03FC07F800
03FC07F800
03FC07F800
03FC07F800
03FC07F800
03FC07F800
03FC07F800
0000000000
0000000000
0000000000
0000000000
0000000000
0000000000
0000000000
0000000000
0007FC0000
003FFF8000
00FFFFE000
01FFFFF000
07FFFFF800
0FFFFFFC00
0FFC07FE00
1FF803FF00
3FF001FF80
3FE000FF80
7FE000FFC0
7FC0007FC0
7FC0007FC0
FFC0007FE0
FF80003FE0
FF80003FE0
FF80003FE0
FF80003FE0
FF80003FE0
FF80003FE0
FF80003FE0
FF80003FE0
FFC0007FE0
7FC0007FC0
7FC0007FC0
7FE000FFC0
3FE000FF80
3FF001FF80
1FF803FF00
0FFC07FE00
0FFFFFFC00
07FFFFFC00
01FFFFF000
00FFFFE000
003FFF8000
0007FC0000
ENDCHAR
STARTCHAR 00F7
ENCODING 247
SWIDTH 1014 0
DWIDTH 69 0
BBX 41 30 14 5
BITMAP
00003C000000
00007E000000
0000FF000000
0000FF000000
0000FF000000
0000FF000000
00007E000000
00003C000000
000000000000
000000000000
000000000000
000000000000
000000000000
FFFFFFFFFF80
FFFFFFFFFF80
FFFFFFFFFF80
FFFFFFFFFF80
000000000000
000000000000
000000000000
000000000000
000000000000
00003C000000
00007E000000
0000FF000000
0000FF000000
0000FF000000
0000FF000000
00007E000000
00003C000000
ENDCHAR
STARTCHAR 00F8
ENCODING 248
SWIDTH 588 0
DWIDTH 40 0
BBX 36 46 2 -6
BITMAP
0000000180
00000003C0
00000003F0
00000007E0
0000000FC0
0003FE1FC0
001FFFDF80
007FFFFF00
00FFFFFE00
03FFFFFE00
07FFFFFF00
07FE03FF00
0FFC03FF80
1FF803FFC0
1FF007FFC0
3FF00FFFE0
3FE01FBFE0
3FE01FBFE0
7FE03F3FF0
7FC07E1FF0
7FC0FC1FF0
7FC0FC1FF0
7FC1F81FF0
7FC3F01FF0
7FC7E01FF0
7FC7E01FF0
7FCFC01FF0
7FFF803FF0
3FFF803FE0
3FFF003FE0
3FFE007FE0
1FFC007FC0
1FFC00FFC0
0FFC01FF80
07FE03FF00
07FFFFFF00
0FFFFFFE00
0FFFFFFC00
1FFFFFF000
3F1FFFC000
7F03FE0000
7E00000000
FC00000000
F800000000
3800000000
1000000000
ENDCHAR
STARTCHAR 00F9
ENCODING 249
SWIDTH 588 0
DWIDTH 40 0
BBX 32 54 4 -1
BITMAP
0FF80000
07FC0000
03FC0000
01FE0000
00FE0000
007F0000
003F0000
001F8000
001F8000
000FC000
0007C000
0003E000
00000000
00000000
00000000
00000000
00000000
00000000
00000000
FF8001FF
FF8001FF
FF8001FF
FF8001FF
FF8001FF
FF8001FF
FF8001FF
FF8001FF
FF8001FF
FF8001FF
FF8001FF
FF8001FF
FF8001FF
FF8001FF
FF8001FF
FF8001FF
FF8001FF
FF8001FF
FF8001FF
FF8001FF
FF8001FF
FF8001FF
FF8003FF
FF8003FF
FFC003FF
FFC007FF
FFE007FF
7FE00FFF
7FF83FFF
7FFFFFFF
3FFFFDFF
1FFFF9FF
0FFFF1FF
07FFE1FF
01FF8000
ENDCHAR
STARTCHAR 00FA
ENCODING 250
SWIDTH 588 0
DWIDTH 40 0
BBX 32 54 4 -1
BITMAP
00003FE0
00003FC0
00007F80
0000FF00
0000FE00
0001FC00
0001FC00
0003F800
0003F000
0007E000
0007C000
000F8000
00000000
00000000
00000000
00000000
00000000
00000000
00000000
FF8001FF
FF8001FF
FF8001FF
FF8001FF
FF8001FF
FF8001FF
FF8001FF
FF8001FF
FF8001FF
FF8001FF
FF8001FF
FF8001FF
FF8001FF
FF8001FF
FF8001FF
FF8001FF
FF8001FF
FF8001FF
FF8001FF
FF8001FF
FF8001FF
FF8001FF
FF8003FF
FF8003FF
FFC003FF
FFC007FF
FFE007FF
7FE00FFF
7FF83FFF
7FFFFFFF
3FFFFDFF
1FFFF9FF
0FFFF1FF
07FFE1FF
01FF8000
ENDCHAR
STARTCHAR 00FB
ENCODING 251
SWIDTH 588 0
DWIDTH 40 0
BBX 32 54 4 -1
BITMAP
001FF800
003FFC00
003FFC00
007FFE00
007FFE00
00FE7F00
00FC3F00
01FC3F80
01F81F80
03F00FC0
03E007C0
07C003E0
00000000
00000000
00000000
00000000
00000000
00000000
00000000
FF8001FF
FF8001FF
FF8001FF
FF8001FF
FF8001FF
FF8001FF
FF8001FF
FF8001FF
FF8001FF
FF8001FF
FF8001FF
FF8001FF
FF8001FF
FF8001FF
FF8001FF
FF8001FF
FF8001FF
FF8001FF
FF8001FF
FF8001FF
FF8001FF
FF8001FF
FF8003FF
FF8003FF
FFC003FF
FFC007FF
FFE007FF
7FE00FFF
7FF83FFF
7FFFFFFF
3FFFFDFF
1FFFF9FF
0FFFF1FF
07FFE1FF
01FF8000
ENDCHAR
STARTCHAR 00FC
ENCODING 252
SWIDTH 588 0
DWIDTH 40 0
BBX 32 52 4 -1
BITMAP
07F81FE0
07F81FE0
07F81FE0
07F81FE0
07F81FE0
07F81FE0
07F81FE0
07F81FE0
00000000
00000000
00000000
00000000
00000000
00000000
00000000
00000000
00000000
FF8001FF
FF8001FF
FF8001FF
FF8001FF
FF8001FF
FF8001FF
FF8001FF
FF8001FF
FF8001FF
FF8001FF
FF8001FF
FF8001FF
FF8001FF
FF8001FF
FF8001FF
FF8001FF
FF8001FF
FF8001FF
FF8001FF
FF8001FF
FF8001FF
FF8001FF
FF8003FF
FF8003FF
FFC003FF
FFC007FF
FFE007FF
7FE00FFF
7FF83FFF
7FFFFFFF
3FFFFDFF
1FFFF9FF
0FFFF1FF
07FFE1FF
01FF8000
ENDCHAR
STARTCHAR 00FD
ENCODING 253
SWIDTH 558 0
DWIDTH 38 0
BBX 36 67 1 -13
BITMAP
000003FE00
000007FC00
000007F800
00000FF000
00000FE000
00001FC000
00001FC000
00003F8000
00003F0000
00007E0000
00007C0000
0000F80000
0000000000
0000000000
0000000000
0000000000
0000000000
0000000000
0000000000
7FE0003FF0
7FE0003FE0
7FF0007FE0
3FF0007FE0
3FF0007FC0
1FF800FFC0
1FF800FFC0
1FF800FF80
0FFC01FF80
0FFC01FF80
0FFE01FF00
07FE03FF00
07FE03FE00
03FF03FE00
03FF07FE00
03FF07FC00
01FF87FC00
01FF8FFC00
00FF8FF800
00FFCFF800
00FFDFF800
007FFFF000
007FFFF000
003FFFF000
003FFFE000
003FFFE000
001FFFC000
001FFFC000
000FFFC000
000FFF8000
000FFF8000
0007FF8000
0007FF0000
0003FF0000
0003FF0000
0003FE0000
0007FE0000
0007FE0000
0C07FC0000
1C0FFC0000
3F1FFC0000
7FFFF80000
FFFFF80000
FFFFF00000
7FFFE00000
3FFFC00000
0FFF800000
01FC000000
ENDCHAR
STARTCHAR 00FE
ENCODING 254
SWIDTH 632 0
DWIDTH 43 0
BBX 34 63 5 -13
BITMAP
FF80000000
FF80000000
FF80000000
FF80000000
FF80000000
FF80000000
FF80000000
FF80000000
FF80000000
FF80000000
FF80000000
FF80000000
FF80000000
FF80000000
FF80000000
FF81FE0000
FF87FFC000
FF9FFFE000
FFBFFFF800
FFBFFFFC00
FFFFFFFE00
FFFC0FFE00
FFF803FF00
FFF001FF00
FFE001FF80
FFE000FF80
FFC000FF80
FFC000FFC0
FFC0007FC0
FF80007FC0
FF80007FC0
FF80007FC0
FF80007FC0
FF80007FC0
FF80007FC0
FF80007FC0
FF80007FC0
FFC000FFC0
FFC000FFC0
FFC000FF80
FFE001FF80
FFE001FF80
FFF003FF00
FFF007FF00
FFFC1FFE00
FFFFFFFE00
FFFFFFFC00
FFBFFFF800
FF9FFFE000
FF8FFFC000
FF83FE0000
FF80000000
FF80000000
FF80000000
FF80000000
FF80000000
FF80000000
FF80000000
FF80000000
FF80000000
FF80000000
FF80000000
FF80000000
ENDCHAR
STARTCHAR 00FF
ENCODING 255
SWIDTH 558 0
DWIDTH 38 0
BBX 36 65 1 -13
BITMAP
01FC03F800
01FC03F800
01FC03F800
01FC03F800
01FC03F800
01FC03F800
01FC03F800
01FC03F800
0000000000
0000000000
0000000000
0000000000
0000000000
0000000000
0000000000
0000000000
0000000000
FFC0003FF0
7FE0003FE0
7FE0007FE0
7FF0007FE0
3FF0007FC0
3FF000FFC0
1FF800FFC0
1FF800FF80
1FF801FF80
0FFC01FF80
0FFC01FF00
07FE03FF00
07FE03FE00
07FE03FE00
03FF07FE00
03FF07FC00
01FF87FC00
01FF8FFC00
01FF8FF800
00FFCFF800
00FFDFF800
00FFDFF000
007FFFF000
007FFFF000
003FFFE000
003FFFE000
003FFFE000
001FFFC000
001FFFC000
000FFF8000
000FFF8000
000FFF8000
0007FF0000
0007FF0000
0007FF0000
0007FE0000
0007FE0000
000FFE0000
000FFC0000
000FFC0000
001FFC0000
001FF80000
001FF80000
003FF00000
003FF00000
007FF00000
007FE00000
007FE00000
ENDCHAR
STARTCHAR 0131
ENCODING 305
SWIDTH 264 0
DWIDTH 18 0
BBX 9 34 4 0
BITMAP
FF80
FF80
FF80
FF80
FF80
FF80
FF80
FF80
FF80
FF80
FF80
FF80
FF80
FF80
FF80
FF80
FF80
FF80
FF80
FF80
FF80
FF80
FF80
FF80
FF80
FF80
FF80
FF80
FF80
FF80
FF80
FF80
FF80
FF80
ENDCHAR
STARTCHAR 0141
ENCODING 321
SWIDTH 647 0
DWIDTH 44 0
BBX 39 49 2 0
BITMAP
03FF000000
03FF000000
03FF000000
03FF000000
03FF000000
03FF000000
03FF010000
03FF030000
03FF070000
03FF0F0000
03FF1F0000
03FF3F0000
03FF7F0000
03FFFF0000
03FFFF0000
03FFFC0000
03FFF80000
03FFF00000
03FFE00000
03FFC00000
03FF800000
03FF000000
03FF000000
03FF000000
07FF000000
0FFF000000
1FFF000000
3FFF000000
7FFF000000
FFFF000000
FFFF000000
FFFF000000
FBFF000000
F3FF000000
E3FF000000
C3FF000000
83FF000000
03FF000000
03FF000000
03FF000000
03FF000000
03FFFFFFFE
03FFFFFFFE
03FFFFFFFE
03FFFFFFFE
03FFFFFFFE
03FFFFFFFE
03FFFFFFFE
03FFFFFFFE
ENDCHAR
STARTCHAR 0142
ENCODING 322
SWIDTH 367 0
DWIDTH 25 0
BBX 22 49 2 0
BITMAP
03FE00
03FE00
03FE00
03FE00
03FE00
03FE00
03FE00
03FE00
03FE00
03FE04
03FE0C
03FE1C
03FE3C
03FE7C
03FEFC
03FFFC
03FFFC
03FFF8
03FFF0
03FFE0
03FFC0
03FF80
07FF00
0FFE00
1FFE00
3FFE00
7FFE00
FFFE00
FFFE00
FFFE00
FBFE00
F3FE00
E3FE00
C3FE00
83FE00
03FE00
03FE00
03FE00
03FE00
03FE00
03FE00
03FE00
03FE00
03FE00
03FE00
03FE00
03FE00
03FE00
03FE00
ENDCHAR
STARTCHAR 0152
ENCODING 338
SWIDTH 1029 0
DWIDTH 70 0
BBX 62 51 4 -1
BITMAP
00003FF000000000
0003FFFFFFFFFFFC
000FFFFFFFFFFFFC
003FFFFFFFFFFFFC
007FFFFFFFFFFFFC
01FFFFFFFFFFFFFC
03FFFFFFFFFFFFFC
03FFFFFFFFFFFFFC
07FFE01FFFFFFFFC
0FFF8007FC000000
0FFE0007FC000000
1FFC0007FC000000
3FF80007FC000000
3FF80007FC000000
3FF00007FC000000
7FF00007FC000000
7FE00007FC000000
7FE00007FC000000
7FE00007FC000000
FFE00007FC000000
FFC00007FC000000
FFC00007FFFFFFF0
FFC00007FFFFFFF0
FFC00007FFFFFFF0
FFC00007FFFFFFF0
FFC00007FFFFFFF0
FFC00007FFFFFFF0
FFC00007FFFFFFF0
FFC00007FC000000
FFC00007FC000000
FFC00007FC000000
FFC00007FC000000
7FE00007FC000000
7FE00007FC000000
7FE00007FC000000
7FF00007FC000000
3FF00007FC000000
3FF80007FC000000
3FF80007FC000000
1FFC0007FC000000
1FFE0007FC000000
0FFF8007FC000000
07FFE01FFFFFFFFC
03FFFFFFFFFFFFFC
03FFFFFFFFFFFFFC
01FFFFFFFFFFFFFC
00FFFFFFFFFFFFFC
003FFFFFFFFFFFFC
000FFFFFFFFFFFFC
0003FFFFFFFFFFFC
00007FF000000000
ENDCHAR
STARTCHAR 0153
ENCODING 339
SWIDTH 911 0
DWIDTH 62 0
BBX 56 36 3 -1
BITMAP
0007F8000FF800
003FFF007FFF00
00FFFFC1FFFF80
01FFFFE3FFFFE0
07FFFFFFFFFFF0
0FFFFFFFFFFFF0
0FFC0FFFF81FF8
1FF803FFE007FC
3FF001FFE003FC
3FE001FFC003FC
7FE000FFC003FE
7FC000FF8001FE
7FC000FF8001FE
FFC0007F8001FE
FF80007FFFFFFF
FF80007FFFFFFF
FF80007FFFFFFF
FF80007FFFFFFF
FF80007FFFFFFF
FF80007FFFFFFF
FF80007F800000
FF80007F800000
FFC0007F800000
7FC000FF800000
7FC000FF8001FF
7FE000FFC001FF
3FE001FFC003FE
3FF001FFE003FE
1FF803FFF007FE
0FFC07FFF81FFC
0FFFFFFFFFFFFC
07FFFFFFFFFFF8
01FFFFE7FFFFF0
00FFFFC3FFFFE0
003FFF00FFFF80
0007FC001FF800
ENDCHAR
STARTCHAR 0160
ENCODING 352
SWIDTH 691 0
DWIDTH 47 0
BBX 39 69 4 -1
BITMAP
007C007E00
007C00FC00
003E01F800
003F03F800
001F83F000
001FC7F000
000FCFE000
000FFFE000
0007FFC000
0007FF8000
0003FF8000
0003FF0000
0000000000
0000000000
0000000000
0000000000
0000000000
0000000000
0001FF8000
000FFFF000
003FFFFC00
00FFFFFF00
01FFFFFF80
03FFFFFFC0
07FFFFFFC0
0FFFFFFFE0
1FFF01FFF0
1FFC00FFF0
1FF8003FF0
3FF0003FF8
3FE0001FF8
3FE0001FF8
3FE0001FF8
3FE0000000
3FE0000000
3FF0000000
3FF8000000
3FFE000000
1FFFC00000
0FFFF80000
0FFFFF8000
07FFFFF000
01FFFFFE00
00FFFFFF80
003FFFFFC0
0007FFFFE0
00007FFFF0
00000FFFF8
000000FFFC
0000003FFC
0000000FFE
00000007FE
00000007FE
FFC00003FE
FFC00003FE
FFC00003FE
FFE00007FE
7FE00007FE
7FF0000FFC
7FF8003FFC
3FFF00FFF8
3FFFFFFFF8
1FFFFFFFF0
0FFFFFFFE0
07FFFFFFC0
01FFFFFF00
00FFFFFC00
001FFFF000
0003FF8000
ENDCHAR
STARTCHAR 0161
ENCODING 353
SWIDTH 514 0
DWIDTH 35 0
BBX 29 54 3 -1
BITMAP
0F800F80
0FC01F80
07E03F00
03E03F00
03F07E00
01F8FE00
01FDFC00
00FFFC00
00FFF800
007FF800
007FF000
003FF000
00000000
00000000
00000000
00000000
00000000
00000000
003FF000
01FFFE00
07FFFF80
0FFFFFC0
1FFFFFC0
3FFFFFE0
3FF07FE0
7FE03FF0
7FC01FF0
7FC01FF0
7FC01FF0
7FE00000
7FF00000
7FFE0000
3FFFF000
3FFFFE00
1FFFFF80
0FFFFFC0
03FFFFE0
007FFFF0
000FFFF0
0000FFF8
00003FF8
00001FF8
FF800FF8
FF800FF8
FF800FF8
FFC00FF8
7FC01FF8
7FE03FF0
3FFFFFF0
3FFFFFE0
1FFFFFC0
0FFFFF00
03FFFC00
007FE000
ENDCHAR
STARTCHAR 0178
ENCODING 376
SWIDTH 647 0
DWIDTH 44 0
BBX 42 66 1 0
BITMAP
003FC0FF0000
003FC0FF0000
003FC0FF0000
003FC0FF0000
003FC0FF0000
003FC0FF0000
003FC0FF0000
003FC0FF0000
000000000000
000000000000
000000000000
000000000000
000000000000
000000000000
000000000000
000000000000
000000000000
FFE00001FFC0
FFE00003FFC0
7FF00003FF80
7FF00007FF80
3FF80007FF00
3FF8000FFF00
1FFC000FFE00
0FFE001FFC00
0FFE001FFC00
07FF003FF800
07FF003FF800
03FF807FF000
03FF807FF000
01FFC0FFE000
01FFC0FFE000
00FFE1FFC000
00FFE1FFC000
007FF3FF8000
003FF3FF0000
003FFFFF0000
001FFFFE0000
001FFFFE0000
000FFFFC0000
000FFFFC0000
0007FFF80000
0007FFF80000
0003FFF00000
0003FFF00000
0001FFE00000
0000FFC00000
0000FFC00000
0000FFC00000
0000FFC00000
0000FFC00000
0000FFC00000
0000FFC00000
0000FFC00000
0000FFC00000
0000FFC00000
0000FFC00000
0000FFC00000
0000FFC00000
0000FFC00000
0000FFC00000
0000FFC00000
0000FFC00000
0000FFC00000
0000FFC00000
0000FFC00000
ENDCHAR
STARTCHAR 017D
ENCODING 381
SWIDTH 632 0
DWIDTH 43 0
BBX 37 68 3 0
BITMAP
01F000F800
00F801F000
00FC03F000
007E07E000
007F0FE000
003F0FC000
003F9FC000
001FFF8000
001FFF8000
000FFF0000
000FFF0000
0007FE0000
0000000000
0000000000
0000000000
0000000000
0000000000
0000000000
0000000000
7FFFFFFFF0
7FFFFFFFF0
7FFFFFFFF0
7FFFFFFFF0
7FFFFFFFF0
7FFFFFFFF0
7FFFFFFFF0
7FFFFFFFF0
000000FFF0
000001FFE0
000003FFE0
000003FFC0
000007FF80
00000FFF00
00001FFF00
00001FFE00
00003FFC00
00007FF800
0000FFF800
0000FFF000
0001FFE000
0003FFC000
0007FF8000
0007FF8000
000FFF0000
001FFE0000
003FFC0000
003FFC0000
007FF80000
00FFF00000
01FFE00000
01FFE00000
03FFC00000
07FF800000
0FFF000000
0FFF000000
1FFE000000
3FFC000000
7FF8000000
7FF0000000
FFF0000000
FFFFFFFFF8
FFFFFFFFF8
FFFFFFFFF8
FFFFFFFFF8
FFFFFFFFF8
FFFFFFFFF8
FFFFFFFFF8
FFFFFFFFF8
ENDCHAR
STARTCHAR 017E
ENCODING 382
SWIDTH 500 0
DWIDTH 34 0
BBX 28 53 3 0
BITMAP
1F001F00
0F801F00
0FC03E00
07E07E00
07E0FC00
03F1FC00
03FBF800
01FFF800
01FFF000
00FFF000
00FFE000
007FE000
00000000
00000000
00000000
00000000
00000000
00000000
00000000
FFFFFFE0
FFFFFFE0
FFFFFFE0
FFFFFFE0
FFFFFFE0
FFFFFFE0
00007FE0
0000FFE0
0001FFC0
0003FF80
0003FF00
0007FE00
000FFE00
001FFC00
003FF800
007FF000
007FE000
00FFC000
01FF8000
03FF8000
07FF0000
0FFE0000
0FFC0000
1FF80000
3FF00000
7FE00000
FFE00000
FFC00000
FFFFFFF0
FFFFFFF0
FFFFFFF0
FFFFFFF0
FFFFFFF0
FFFFFFF0
ENDCHAR
STARTCHAR 0192
ENCODING 402
SWIDTH 529 0
DWIDTH 36 0
BBX 42 64 -5 -14
BITMAP
00000000FF00
00000007FFC0
0000000FFFC0
0000001FFFC0
0000003FFFC0
0000007FFF80
0000007FC080
000000FF8000
000000FF0000
000001FF0000
000001FE0000
000001FE0000
000003FE0000
000003FC0000
000003FC0000
0001FFFFFC00
0003FFFFFC00
0003FFFFF800
0003FFFFF800
0003FFFFF800
0007FFFFF800
0007FFFFF000
00000FF00000
00001FF00000
00001FE00000
00001FE00000
00001FE00000
00003FE00000
00003FC00000
00003FC00000
00007FC00000
00007F800000
00007F800000
00007F800000
0000FF800000
0000FF000000
0000FF000000
0001FF000000
0001FE000000
0001FE000000
0001FE000000
0003FE000000
0003FC000000
0003FC000000
0003FC000000
0007F8000000
0007F8000000
0007F8000000
000FF8000000
000FF0000000
000FF0000000
001FF0000000
001FE0000000
001FE0000000
003FE0000000
003FC0000000
007FC0000000
60FF80000000
7FFF00000000
7FFF00000000
FFFE00000000
FFFC00000000
FFF000000000
3F8000000000
ENDCHAR
STARTCHAR 02C6
ENCODING 710
SWIDTH 323 0
DWIDTH 22 0
BBX 22 13 0 41
BITMAP
03FF00
03FF00
07FF80
07FF80
0FFFC0
0FFFC0
1FCFE0
1F87E0
3F07F0
3F03F0
7E01F8
7C00F8
F8007C
ENDCHAR
STARTCHAR 02C7
ENCODING 711
SWIDTH 323 0
DWIDTH 22 0
BBX 22 13 0 41
BITMAP
F8007C
FC00F8
7C01F8
7E01F0
3F03F0
3F87E0
1FCFE0
1FDFC0
0FFFC0
0FFF80
07FF80
07FF00
03FF00
ENDCHAR
STARTCHAR 02D8
ENCODING 728
SWIDTH 323 0
DWIDTH 22 0
BBX 22 11 0 41
BITMAP
F0007C
F00078
F800F8
7C01F8
7F07F8
7FFFF0
3FFFE0
1FFFE0
1FFFC0
07FF00
01FC00
ENDCHAR
STARTCHAR 02D9
ENCODING 729
SWIDTH 117 0
DWIDTH 8 0
BBX 8 9 0 41
BITMAP
FF
FF
FF
FF
FF
FF
FF
FF
FF
ENDCHAR
STARTCHAR 02DA
ENCODING 730
SWIDTH 235 0
DWIDTH 16 0
BBX 16 16 0 41
BITMAP
07E0
1FF8
3FFC
7FFE
7C3E
F81F
F00F
F00F
F00F
F00F
F81F
7C3E
7FFE
3FFC
1FF8
07E0
ENDCHAR
STARTCHAR 02DB
ENCODING 731
SWIDTH 205 0
DWIDTH 14 0
BBX 12 16 0 -15
BITMAP
0780
0E00
1E00
3C00
3C00
7800
7800
F800
F800
FC00
FFF0
FFF0
FFF0
7FF0
3FF0
1FF0
ENDCHAR
STARTCHAR 02DC
ENCODING 732
SWIDTH 323 0
DWIDTH 22 0
BBX 22 9 0 42
BITMAP
00003C
0F803C
1FF078
3FFFF8
7FFFF8
7FFFF0
787FE0
F00F80
F00000
ENDCHAR
STARTCHAR 02DD
ENCODING 733
SWIDTH 323 0
DWIDTH 22 0
BBX 22 13 0 41
BITMAP
1FE3FC
1FC3F8
1FC3F8
1F87F0
3F87E0
3F07E0
3E07C0
7E0F80
7C0F80
7C0F00
780F00
F01E00
F01C00
ENDCHAR
STARTCHAR 0394
ENCODING 916
SWIDTH 632 0
DWIDTH 43 0
BBX 42 49 1 1
BITMAP
000002000000
000006000000
000006000000
00000F000000
00000F000000
00001F800000
00001F800000
00003F800000
00003FC00000
00007FC00000
00007FE00000
00007FE00000
0000FFE00000
0000EFF00000
0001EFF00000
0001C7F80000
0003C7F80000
000383F80000
000783FC0000
000703FC0000
000F01FE0000
000E01FE0000
000E00FE0000
001E00FF0000
001C007F0000
003C007F8000
0038007F8000
0078003F8000
0070003FC000
00F0001FC000
00E0001FE000
01E0001FE000
01C0000FE000
03C0000FF000
03800007F000
03800007F800
07800007F800
07000003FC00
0F000003FC00
0E000001FC00
1E000001FE00
1C000001FE00
3C000000FF00
38000000FF00
780000007F00
7FFFFFFFFF80
7FFFFFFFFF80
FFFFFFFFFFC0
FFFFFFFFFFC0
ENDCHAR
STARTCHAR 03A9
ENCODING 937
SWIDTH 808 0
DWIDTH 55 0
BBX 50 50 3 0
BITMAP
00001FFC000000
0001FFFFC00000
0007FE1FF80000
001FC001FE0000
007F00007F0000
00FE00003F8000
01FC00001FC000
03F800000FE000
07F0000007F000
0FF0000007F800
0FE0000003F800
1FE0000003FC00
1FC0000001FC00
3FC0000001FE00
3FC0000001FE00
3FC0000001FE00
7FC0000000FF00
7F80000000FF00
7F80000000FF00
7F80000000FF00
7F80000000FF00
7F80000000FF00
7F80000000FF00
7F80000000FF00
7FC0000000FF00
7FC0000001FF00
3FC0000001FE00
3FC0000001FE00
3FC0000001FE00
1FE0000001FE00
1FE0000003FC00
0FE0000003FC00
0FF0000007F800
07F0000007F000
03F800000FE000
01FC00001FC000
00FE00003F8000
003F80007F0000
001FE001FC0000
8003F003F000C0
8000F003C000C0
C00070038000C0
C00070038001C0
FFFFF003FFFFC0
FFFFF007FFFFC0
FFFFF807FFFFC0
FFFFF807FFFFC0
FFFFF807FFFFC0
FFFFF807FFFFC0
FFFFF807FFFFC0
ENDCHAR
STARTCHAR 03BC
ENCODING 956
SWIDTH 647 0
DWIDTH 44 0
BBX 39 49 4 -14
BITMAP
FF8001FF00
FF8001FF00
FF8001FF00
FF8001FF00
FF8001FF00
FF8001FF00
FF8001FF00
FF8001FF00
FF8001FF00
FF8001FF00
FF8001FF00
FF8001FF00
FF8001FF00
FF8001FF00
FF8001FF00
FF8001FF00
FF8001FF00
FF8001FF00
FF8001FF00
FF8001FF00
FF8001FF00
FF8001FF00
FF8001FF00
FF8001FF00
FF8003FF00
FFC003FF00
FFC007FF00
FFC007FF00
FFE00FFF80
FFFC3FFFC6
FFFFFFFFFE
FFFFFEFFFE
FFFFFC7FFE
FFFFF87FFE
FF9FF03FFE
FF87C00FF8
FF80000000
FF80000000
FF80000000
FF80000000
FF80000000
FF80000000
FF80000000
FF80000000
FF80000000
FF80000000
FF80000000
FF80000000
FF80000000
ENDCHAR
STARTCHAR 03C0
ENCODING 960
SWIDTH 573 0
DWIDTH 39 0
BBX 37 36 1 -1
BITMAP
01FFFFFFF8
07FFFFFFF8
0FFFFFFFF8
1FFFFFFFF8
1FFFFFFFF8
3FFFFFFFF8
381E01F000
701E01F000
601E01E000
C03E01E000
803E01E000
003E01E000
003E01E000
003E01E000
003C01E000
003C03E000
003C03E000
007C03E000
007C03E000
007C03E000
007C03E000
007C03E000
007803E000
007803E000
00F803E018
00F803E018
01F803F018
03F803F018
07F803F830
0FF001FFF0
0FF001FFF0
0FF001FFE0
0FF000FFE0
0FE000FFC0
0FE0007F80
0780001E00
ENDCHAR
STARTCHAR 2013
ENCODING 8211
SWIDTH 500 0
DWIDTH 34 0
BBX 34 8 0 14
BITMAP
FFFFFFFFC0
FFFFFFFFC0
FFFFFFFFC0
FFFFFFFFC0
FFFFFFFFC0
FFFFFFFFC0
FFFFFFFFC0
FFFFFFFFC0
ENDCHAR
STARTCHAR 2014
ENCODING 8212
SWIDTH 1000 0
DWIDTH 68 0
BBX 68 8 0 14
BITMAP
FFFFFFFFFFFFFFFFF0
FFFFFFFFFFFFFFFFF0
FFFFFFFFFFFFFFFFF0
FFFFFFFFFFFFFFFFF0
FFFFFFFFFFFFFFFFF0
FFFFFFFFFFFFFFFFF0
FFFFFFFFFFFFFFFFF0
FFFFFFFFFFFFFFFFF0
ENDCHAR
STARTCHAR 2018
ENCODING 8216
SWIDTH 279 0
DWIDTH 19 0
BBX 15 17 2 32
BITMAP
00FE
00FC
01FC
01FC
03F8
03F8
07F8
07F0
0FF0
0FF0
1FE0
1FE0
3FE0
3FC0
7FC0
7FC0
FFC0
ENDCHAR
STARTCHAR 2019
ENCODING 8217
SWIDTH 279 0
DWIDTH 19 0
BBX 15 17 2 32
BITMAP
07FE
07FC
07FC
0FF8
0FF8
0FF0
1FF0
1FE0
1FE0
3FC0
3FC0
3F80
3F80
7F00
7F00
7E00
FE00
ENDCHAR
STARTCHAR 201A
ENCODING 8218
SWIDTH 279 0
DWIDTH 19 0
BBX 15 17 2 -9
BITMAP
07FE
07FC
07FC
0FF8
0FF8
0FF0
1FF0
1FE0
1FE0
1FC0
3FC0
3F80
3F80
7F00
7F00
7E00
FE00
ENDCHAR
STARTCHAR 201C
ENCODING 8220
SWIDTH 470 0
DWIDTH 32 0
BBX 28 17 2 32
BITMAP
00FE03F0
00FC07F0
01FC07F0
01FC0FE0
03F80FE0
03F81FE0
07F81FC0
07F03FC0
0FF03FC0
0FF07F80
1FE07F80
1FE0FF80
3FE0FF00
3FC1FF00
7FC1FF00
7FC1FF00
FFC3FE00
ENDCHAR
STARTCHAR 201D
ENCODING 8221
SWIDTH 470 0
DWIDTH 32 0
BBX 28 17 2 32
BITMAP
07FE1FF0
07FC1FF0
07FC3FE0
0FF83FE0
0FF83FC0
0FF07FC0
1FF07F80
1FE07F80
1FE0FF00
3FC0FF00
3FC0FE00
3F80FE00
3F81FC00
7F01FC00
7F01F800
7E03F800
FE03F800
ENDCHAR
STARTCHAR 201E
ENCODING 8222
SWIDTH 485 0
DWIDTH 33 0
BBX 28 17 2 -9
BITMAP
07FE1FF0
07FC1FF0
07FC3FE0
0FF83FE0
0FF83FC0
0FF07FC0
1FF07F80
1FE07F80
1FE07F00
1FC0FF00
3FC0FE00
3F80FE00
3F81FC00
7F01FC00
7F01FC00
7E03F800
FE03F800
ENDCHAR
STARTCHAR 2020
ENCODING 8224
SWIDTH 558 0
DWIDTH 38 0
BBX 32 60 3 -11
BITMAP
000FF000
000FF000
000FF000
000FF000
000FF000
000FF000
000FF000
000FF000
000FF000
000FF000
000FF000
000FF000
000FF000
000FF000
000FF000
FFFFFFFF
FFFFFFFF
FFFFFFFF
FFFFFFFF
FFFFFFFF
FFFFFFFF
FFFFFFFF
000FF000
000FF000
000FF000
000FF000
000FF000
000FF000
000FF000
000FF000
000FF000
000FF000
000FF000
000FF000
000FF000
000FF000
000FF000
000FF000
000FF000
000FF000
000FF000
000FF000
000FF000
000FF000
000FF000
000FF000
000FF000
000FF000
000FF000
000FF000
000FF000
000FF000
000FF000
000FF000
000FF000
000FF000
000FF000
000FF000
000FF000
000FF000
ENDCHAR
STARTCHAR 2021
ENCODING 8225
SWIDTH 529 0
DWIDTH 36 0
BBX 30 60 3 -11
BITMAP
001FE000
001FE000
001FE000
001FE000
001FE000
001FE000
001FE000
001FE000
001FE000
001FE000
001FE000
001FE000
001FE000
001FE000
001FE000
FFFFFFFC
FFFFFFFC
FFFFFFFC
FFFFFFFC
FFFFFFFC
FFFFFFFC
FFFFFFFC
001FE000
001FE000
001FE000
001FE000
001FE000
001FE000
001FE000
001FE000
001FE000
001FE000
001FE000
001FE000
001FE000
001FE000
001FE000
001FE000
FFFFFFFC
FFFFFFFC
FFFFFFFC
FFFFFFFC
FFFFFFFC
FFFFFFFC
FFFFFFFC
001FE000
001FE000
001FE000
001FE000
001FE000
001FE000
001FE000
001FE000
001FE000
001FE000
001FE000
001FE000
001FE000
001FE000
001FE000
ENDCHAR
STARTCHAR 2022
ENCODING 8226
SWIDTH 294 0
DWIDTH 20 0
BBX 16 16 2 15
BITMAP
07E0
1FF8
3FFC
7FFE
7FFE
FFFF
FFFF
FFFF
FFFF
FFFF
FFFF
7FFE
7FFE
3FFC
1FF8
07E0
ENDCHAR
STARTCHAR 2026
ENCODING 8230
SWIDTH 985 0
DWIDTH 67 0
BBX 61 9 3 0
BITMAP
FF80003FE0000FF8
FF80003FE0000FF8
FF80003FE0000FF8
FF80003FE0000FF8
FF80003FE0000FF8
FF80003FE0000FF8
FF80003FE0000FF8
FF80003FE0000FF8
FF80003FE0000FF8
ENDCHAR
STARTCHAR 2030
ENCODING 8240
SWIDTH 1426 0
DWIDTH 97 0
BBX 93 51 2 -1
BITMAP
00000000001FC00000000000
007F8000003F800000000000
01FFF000003F800000000000
07FFFC00007F000000000000
0FFFFE00007E000000000000
1FFFFF0000FE000000000000
1FE0FF0001FC000000000000
3F803F8001FC000000000000
7F803FC003F8000000000000
7F001FC003F8000000000000
7F001FC007F0000000000000
FE000FE007E0000000000000
FE000FE00FE0000000000000
FE000FE01FC0000000000000
FE000FE01FC0000000000000
FE000FE03F80000000000000
FE000FE03F80000000000000
FE000FE07F00000000000000
FE000FE07E00000000000000
7F001FC0FE00000000000000
7F001FC1FC00000000000000
7F803FC1FC00000000000000
3F803F83F800000000000000
3FE0FF03F803F800000FE000
1FFFFF07F01FFF00007FFC00
0FFFFE07E07FFFC001FFFF00
07FFFC0FE0FFFFE003FFFF80
01FFF01FC1FFFFF007FFFFC0
007FC01FC1FE0FF007F83FC0
0000003F83F803F80FE00FE0
0000003F87F803FC1FE00FF0
0000007F07F001FC1FC007F0
0000007E07F001FC1FC007F0
000000FE0FE000FE3F8003F8
000001FC0FE000FE3F8003F8
000001FC0FE000FE3F8003F8
000003F80FE000FE3F8003F8
000003F80FE000FE3F8003F8
000007F00FE000FE3F8003F8
000007E00FE000FE3F8003F8
00000FE00FE000FE3F8003F8
00001FC007F001FC1FC007F0
00001FC007F001FC1FC007F0
00003F8007F803FC1FE00FF0
00003F8003F803F80FE00FE0
00007F0003FE0FF00FF83FC0
00007E0001FFFFF007FFFFC0
0000FE0000FFFFE003FFFF80
0001FC00007FFFC001FFFF00
0001FC00001FFF00007FFC00
0003F8000007FC00001FF000
ENDCHAR
STARTCHAR 2039
ENCODING 8249
SWIDTH 367 0
DWIDTH 25 0
BBX 17 27 4 4
BITMAP
00FF80
01FF00
03FF00
03FE00
07FE00
07FC00
0FFC00
0FF800
1FF800
1FF000
3FF000
3FF000
7FE000
FFE000
7FE000
3FF000
3FF000
1FF000
1FF800
0FF800
0FFC00
07FC00
07FE00
03FE00
01FF00
01FF00
00FF00
ENDCHAR
STARTCHAR 203A
ENCODING 8250
SWIDTH 367 0
DWIDTH 25 0
BBX 16 27 5 4
BITMAP
FF80
FF80
7FC0
7FC0
7FE0
3FE0
3FF0
1FF0
1FF8
0FFC
0FFC
07FE
07FE
03FF
07FE
07FE
0FFC
0FFC
1FF8
1FF0
3FF0
3FE0
7FE0
7FC0
7FC0
FF80
FF80
ENDCHAR
STARTCHAR 2044
ENCODING 8260
SWIDTH 573 0
DWIDTH 39 0
BBX 35 51 2 -1
BITMAP
0000000FE0
0000000FE0
0000001FC0
0000001F80
0000003F80
0000003F00
0000007F00
000000FE00
000000FE00
000001FC00
000001F800
000003F800
000003F000
000007F000
00000FE000
00000FE000
00001FC000
00001F8000
00003F8000
00003F0000
00007F0000
0000FE0000
0000FE0000
0001FC0000
0001F80000
0003F80000
0003F00000
0007F00000
000FE00000
000FE00000
001FC00000
001FC00000
003F800000
003F000000
007F000000
007E000000
00FE000000
01FC000000
01FC000000
03F8000000
03F0000000
07F0000000
07E0000000
0FE0000000
1FC0000000
1FC0000000
3F80000000
3F00000000
7F00000000
7E00000000
FE00000000
ENDCHAR
STARTCHAR 2122
ENCODING 8482
SWIDTH 647 0
DWIDTH 44 0
BBX 38 19 3 30
BITMAP
FFFE7F01FC
FFFE7F01FC
FFFE7F01FC
07807F01FC
07807F83FC
07807B83BC
07807B83BC
07807BC7BC
07807BC7BC
078079C73C
078079C73C
078079EF3C
078078EE3C
078078EE3C
078078FE3C
0780787C3C
0780787C3C
0780787C3C
078078383C
ENDCHAR
STARTCHAR 2202
ENCODING 8706
SWIDTH 514 0
DWIDTH 35 0
BBX 31 54 2 -1
BITMAP
01FF0000
0FFFE000
1FFFF800
0FE1FC00
07003F00
04000F80
00000780
000003C0
000001E0
000001E0
000000F0
000000F0
000000F8
00000078
00000078
0000007C
0000007C
0000007C
0000007C
0000003C
0000003E
0000003E
0000007E
0000007E
001F807E
00FFF07E
01FFF87E
07FC1E7E
0FF0077E
1FE003FE
1FC001FE
3F8000FC
3F0000FC
7F0000FC
7E0000FC
7E0000FC
FE0001FC
FE0001F8
FC0001F8
FC0001F8
FC0003F8
FC0003F0
FC0003F0
FC0007E0
FC0007E0
7C0007C0
7E000FC0
3E000F80
3E001F80
1F003F00
0F807E00
07C1FC00
01FFF000
007FC000
ENDCHAR
STARTCHAR 220F
ENCODING 8719
SWIDTH 852 0
DWIDTH 58 0
BBX 55 60 2 -7
BITMAP
FFFFFFFFFFFFFE
FFFFFFFFFFFFFE
0FFFFFFFFFFFE0
07FFFFFFFFFFC0
03FE000000FF80
03FE000000FF80
01FE000000FF00
01FE000000FF00
01FE000000FF00
01FE000000FF00
01FE000000FF00
01FE000000FF00
01FE000000FF00
01FE000000FF00
01FE000000FF00
01FE000000FF00
01FE000000FF00
01FE000000FF00
01FE000000FF00
01FE000000FF00
01FE000000FF00
01FE000000FF00
01FE000000FF00
01FE000000FF00
01FE000000FF00
01FE000000FF00
01FE000000FF00
01FE000000FF00
01FE000000FF00
01FE000000FF00
01FE000000FF00
01FE000000FF00
01FE000000FF00
01FE000000FF00
01FE000000FF00
01FE000000FF00
01FE000000FF00
01FE000000FF00
01FE000000FF00
01FE000000FF00
01FE000000FF00
01FE000000FF00
01FE000000FF00
01FE000000FF00
01FE000000FF00
01FE000000FF00
01FE000000FF00
01FE000000FF00
01FE000000FF00
01FE000000FF00
01FE000000FF00
01FE000000FF00
01FE000000FF00
01FE000000FF00
01FE000000FF00
03FE000000FF80
03FF000001FF80
07FF800003FFC0
FFFFFC007FFFFE
FFFFFC007FFFFE
ENDCHAR
STARTCHAR 2211
ENCODING 8721
SWIDTH 750 0
DWIDTH 51 0
BBX 48 61 1 -8
BITMAP
FFFFFFFFFFE0
7FFFFFFFFFE0
3FFFFFFFFFE0
1FFFFFFFFFE0
0FF8000007E0
0FFC000001E0
07FC000000E0
03FE00000060
01FF00000060
01FF80000030
00FF80000030
007FC0000030
003FE0000000
003FF0000000
001FF8000000
000FF8000000
0007FC000000
0007FE000000
0003FF000000
0001FF000000
0000FF800000
00007FC00000
00007FE00000
00003FE00000
00001FF00000
00000FF80000
00000FFC0000
000007FC0000
000003FE0000
000001FE0000
000001FC0000
000000F80000
000000F00000
000001E00000
000003C00000
000007C00000
00000F800000
00000F000000
00001E000000
00003C000000
000078000000
0000F0000000
0001F0000000
0003E0000000
0007C0000000
000780000003
000F00000006
001E00000006
003C0000000E
00780000000E
00F80000001C
01F00000003C
03E0000003FC
03FFFFFFFFFC
07FFFFFFFFFC
0FFFFFFFFFFC
1FFFFFFFFFF8
3FFFFFFFFFF8
7FFFFFFFFFF8
FFFFFFFFFFF8
000000000008
ENDCHAR
STARTCHAR 2212
ENCODING 8722
SWIDTH 1000 0
DWIDTH 68 0
BBX 41 4 14 18
BITMAP
FFFFFFFFFF80
FFFFFFFFFF80
FFFFFFFFFF80
FFFFFFFFFF80
ENDCHAR
STARTCHAR 221A
ENCODING 8730
SWIDTH 573 0
DWIDTH 39 0
BBX 37 48 2 0
BITMAP
00000000F8
00000001F8
00000001C0
0000000180
0000000380
0000000380
0000000380
0000000300
0000000700
0000000700
0000000600
0000000600
0000000E00
0000000E00
0000000C00
0300001C00
0F00001C00
3F80001C00
FF80001800
E7C0003800
83C0003800
03E0003000
01E0003000
01F0007000
00F0007000
00F8006000
007800E000
007C00E000
003C00E000
003E00C000
001E01C000
001F01C000
000F018000
000F818000
0007838000
0007C38000
0003C30000
0003E70000
0001E70000
0001F70000
0000FE0000
0000FE0000
00007E0000
00007E0000
00003C0000
00003C0000
00001C0000
0000180000
ENDCHAR
STARTCHAR 221E
ENCODING 8734
SWIDTH 1000 0
DWIDTH 68 0
BBX 44 19 12 11
BITMAP
03F00000FC00
0FFE0003FF00
1FFF000FFF80
3FFFC03FFFC0
7C07E07E03E0
F801F0F801F0
F000F9F000F0
F0007FE000F0
E0001F800070
E0000F000070
E0001F800070
E0003FC00070
F00079E000F0
F000F8F000F0
7803E07C01E0
3F1FC03F07C0
1FFF801FFF80
0FFE0007FF00
03F80001FC00
ENDCHAR
STARTCHAR 222B
ENCODING 8747
SWIDTH 470 0
DWIDTH 32 0
BBX 28 65 2 -14
BITMAP
00000FC0
00003FE0
0000FFF0
0000FFF0
0001FFF0
0003C7E0
0003C1E0
0003C000
0007C000
0007C000
0007C000
0007C000
00078000
00078000
000F8000
000F8000
000F8000
000F8000
000F8000
000F8000
000F8000
000F8000
000F8000
000F8000
000F8000
000F8000
000F8000
000F8000
000F8000
000F8000
000F8000
001F8000
001F8000
001F8000
001F8000
001F8000
001F8000
001F8000
001F8000
001F8000
001F8000
001F0000
001F0000
001F0000
001F0000
001F0000
001F0000
001F0000
001F0000
001F0000
001F0000
001F0000
001E0000
001E0000
003E0000
003E0000
003C0000
103C0000
7C3C0000
FF380000
FFF80000
FFF00000
FFE00000
7FC00000
0C000000
ENDCHAR
STARTCHAR 2248
ENCODING 8776
SWIDTH 1000 0
DWIDTH 68 0
BBX 40 21 14 10
BITMAP
0000000001
03FF000003
1FFFF00007
3FFFFE001F
FFFFFFC07F
FC01FFFFFE
F0003FFFFC
C00007FFF0
8000007F80
0000000000
0000000000
0000000000
01FE000001
0FFFE00007
3FFFFC000F
7FFFFFC07F
FC03FFFFFE
F0003FFFFC
E00007FFF0
800000FFC0
8000000000
ENDCHAR
STARTCHAR 2260
ENCODING 8800
SWIDTH 1000 0
DWIDTH 68 0
BBX 41 31 14 6
BITMAP
00000000C000
00000001E000
00000003F000
00000007E000
0000000FC000
0000001F8000
0000003F0000
FFFFFFFFFF80
FFFFFFFFFF80
FFFFFFFFFF80
FFFFFFFFFF80
000007E00000
00000FC00000
00000F800000
00001F000000
00003E000000
00007C000000
0000F8000000
0001F0000000
0003E0000000
FFFFFFFFFF80
FFFFFFFFFF80
FFFFFFFFFF80
FFFFFFFFFF80
007C00000000
00F800000000
01F000000000
03E000000000
07C000000000
078000000000
030000000000
ENDCHAR
STARTCHAR 2264
ENCODING 8804
SWIDTH 1000 0
DWIDTH 68 0
BBX 41 38 14 0
BITMAP
000000000180
000000000F80
000000007F80
00000003FF80
0000001FFF00
000001FFF000
00000FFF8000
00007FFC0000
0003FFC00000
001FFE000000
00FFF0000000
0FFF00000000
7FF800000000
FF8000000000
FC0000000000
FC0000000000
FF8000000000
7FF800000000
0FFF00000000
01FFE0000000
001FFE000000
0003FFC00000
00007FFC0000
00000FFF8000
000001FFF000
0000003FFF00
00000003FF80
000000007F80
000000000F80
000000000180
000000000000
000000000000
000000000000
000000000000
FFFFFFFFFF80
FFFFFFFFFF80
FFFFFFFFFF80
FFFFFFFFFF80
ENDCHAR
STARTCHAR 2265
ENCODING 8805
SWIDTH 1000 0
DWIDTH 68 0
BBX 41 38 14 0
BITMAP
C00000000000
F80000000000
FF0000000000
FFE000000000
7FFC00000000
0FFF80000000
00FFF8000000
001FFF000000
0003FFE00000
00003FFC0000
000007FF8000
0000007FF000
0000000FFF00
00000001FF80
000000001F80
000000001F80
00000001FF80
0000000FFF00
0000007FF000
000007FF8000
00003FFC0000
0001FFE00000
001FFF000000
00FFF8000000
07FFC0000000
7FFC00000000
FFE000000000
FF0000000000
F80000000000
C00000000000
000000000000
000000000000
000000000000
000000000000
FFFFFFFFFF80
FFFFFFFFFF80
FFFFFFFFFF80
FFFFFFFFFF80
ENDCHAR
STARTCHAR 25CA
ENCODING 9674
SWIDTH 529 0
DWIDTH 36 0
BBX 32 53 2 0
BITMAP
0003E000
0007E000
0007F000
000FF000
000FF800
001F7800
001E3C00
003E3C00
003C1E00
00781E00
00780F00
00F00F00
00F00780
01E00780
01E003C0
03C003C0
03C001E0
078001E0
078000F0
0F0000F8
1F000078
1E00007C
3E00003C
3C00003E
7C00001E
7800001F
F800000F
7800001F
7C00001E
3C00003E
1E00003C
1E00007C
0F000078
0F0000F0
078000F0
078001E0
03C001E0
03C003C0
01E003C0
01E00780
00F00780
00F00F00
00780F00
00781E00
003C1E00
003C3C00
001E3C00
001E7800
000F7800
000FF000
0007F000
0007E000
0003E000
ENDCHAR
STARTCHAR FB01
ENCODING 64257
SWIDTH 647 0
DWIDTH 44 0
BBX 39 50 1 0
BITMAP
0007F80000
003FFF0FFE
007FFF0FFE
00FFFF0FFE
01FFFF0FFE
01FFFF0FFE
03FF810FFE
03FF000FFE
03FF000FFE
03FE000FFE
03FE000000
03FE000000
03FE000000
03FE000000
03FE000000
03FE000000
FFFFFE07FC
FFFFFE07FC
FFFFFE07FC
FFFFFE07FC
FFFFFE07FC
FFFFFE07FC
03FE0007FC
03FE0007FC
03FE0007FC
03FE0007FC
03FE0007FC
03FE0007FC
03FE0007FC
03FE0007FC
03FE0007FC
03FE0007FC
03FE0007FC
03FE0007FC
03FE0007FC
03FE0007FC
03FE0007FC
03FE0007FC
03FE0007FC
03FE0007FC
03FE0007FC
03FE0007FC
03FE0007FC
03FE0007FC
03FE0007FC
03FE0007FC
03FE0007FC
03FE0007FC
03FE0007FC
03FE0007FC
ENDCHAR
STARTCHAR FB02
ENCODING 64258
SWIDTH 632 0
DWIDTH 43 0
BBX 38 50 1 0
BITMAP
0007F80000
003FFF07FC
007FFF07FC
00FFFF07FC
01FFFF07FC
01FFFF07FC
03FF8107FC
03FF0007FC
03FF0007FC
03FE0007FC
03FE0007FC
03FE0007FC
03FE0007FC
03FE0007FC
03FE0007FC
03FE0007FC
FFFFFE07FC
FFFFFE07FC
FFFFFE07FC
FFFFFE07FC
FFFFFE07FC
FFFFFE07FC
03FE0007FC
03FE0007FC
03FE0007FC
03FE0007FC
03FE0007FC
03FE0007FC
03FE0007FC
03FE0007FC
03FE0007FC
03FE0007FC
03FE0007FC
03FE0007FC
03FE0007FC
03FE0007FC
03FE0007FC
03FE0007FC
03FE0007FC
03FE0007FC
03FE0007FC
03FE0007FC
03FE0007FC
03FE0007FC
03FE0007FC
03FE0007FC
03FE0007FC
03FE0007FC
03FE0007FC
03FE0007FC
ENDCHAR
ENDFONT
